{
	"asset":{
		"generator":"Khronos glTF Blender I/O v3.6.28",
		"version":"2.0"
	},
	"scene":0,
	"scenes":[
		{
			"name":"Scene",
			"nodes":[
				0
			]
		}
	],
	"nodes":[
		{
			"mesh":0,
			"name":"ant6"
		}
	],
	"materials":[
		{
			"extras":{
				"dirt":0
			},
			"name":"Material 1 (ant.png).008",
			"pbrMetallicRoughness":{
				"baseColorTexture":{
					"index":0
				},
				"metallicFactor":0
			}
		}
	],
	"meshes":[
		{
			"name":"ant6",
			"primitives":[
				{
					"attributes":{
						"POSITION":0,
						"NORMAL":1,
						"TEXCOORD_0":2,
						"TEXCOORD_1":3
					},
					"indices":4,
					"material":0
				}
			]
		}
	],
	"textures":[
		{
			"sampler":0,
			"source":0
		}
	],
	"images":[
		{
			"mimeType":"image/png",
			"name":"objects",
			"uri":"objects.png"
		}
	],
	"accessors":[
		{
			"bufferView":0,
			"componentType":5126,
			"count":18,
			"max":[
				0.24936600029468536,
				0.15428200364112854,
				2.984020948410034
			],
			"min":[
				-0.24724599719047546,
				-0.2774589955806732,
				-0.16720600426197052
			],
			"type":"VEC3"
		},
		{
			"bufferView":1,
			"componentType":5126,
			"count":18,
			"type":"VEC3"
		},
		{
			"bufferView":2,
			"componentType":5126,
			"count":18,
			"type":"VEC2"
		},
		{
			"bufferView":3,
			"componentType":5126,
			"count":18,
			"type":"VEC2"
		},
		{
			"bufferView":4,
			"componentType":5123,
			"count":18,
			"type":"SCALAR"
		}
	],
	"bufferViews":[
		{
			"buffer":0,
			"byteLength":216,
			"byteOffset":0,
			"target":34962
		},
		{
			"buffer":0,
			"byteLength":216,
			"byteOffset":216,
			"target":34962
		},
		{
			"buffer":0,
			"byteLength":144,
			"byteOffset":432,
			"target":34962
		},
		{
			"buffer":0,
			"byteLength":144,
			"byteOffset":576,
			"target":34962
		},
		{
			"buffer":0,
			"byteLength":36,
			"byteOffset":720,
			"target":34963
		}
	],
	"samplers":[
		{
			"magFilter":9729,
			"minFilter":9987
		}
	],
	"buffers":[
		{
			"byteLength":756,
			"uri":"ant6.bin"
		}
	]
}
