{
	"asset":{
		"generator":"Khronos glTF Blender I/O v3.6.28",
		"version":"2.0"
	},
	"scene":0,
	"scenes":[
		{
			"name":"Scene",
			"nodes":[
				0
			]
		}
	],
	"nodes":[
		{
			"mesh":0,
			"name":"apolloj4"
		}
	],
	"materials":[
		{
			"extras":{
				"dirt":1
			},
			"name":"Material 1 (apollo.png).008",
			"pbrMetallicRoughness":{
				"baseColorTexture":{
					"index":0
				},
				"metallicFactor":0
			}
		}
	],
	"meshes":[
		{
			"name":"apolloj4.001",
			"primitives":[
				{
					"attributes":{
						"POSITION":0,
						"NORMAL":1,
						"TEXCOORD_0":2,
						"TEXCOORD_1":3
					},
					"indices":4,
					"material":0
				}
			]
		}
	],
	"textures":[
		{
			"sampler":0,
			"source":0
		}
	],
	"images":[
		{
			"mimeType":"image/png",
			"name":"objects",
			"uri":"objects.png"
		}
	],
	"accessors":[
		{
			"bufferView":0,
			"componentType":5126,
			"count":98,
			"max":[
				1.7751339673995972,
				1.8526639938354492,
				0.6402469873428345
			],
			"min":[
				-1.7369459867477417,
				-1.8401559591293335,
				-0.6557530164718628
			],
			"type":"VEC3"
		},
		{
			"bufferView":1,
			"componentType":5126,
			"count":98,
			"type":"VEC3"
		},
		{
			"bufferView":2,
			"componentType":5126,
			"count":98,
			"type":"VEC2"
		},
		{
			"bufferView":3,
			"componentType":5126,
			"count":98,
			"type":"VEC2"
		},
		{
			"bufferView":4,
			"componentType":5123,
			"count":360,
			"type":"SCALAR"
		}
	],
	"bufferViews":[
		{
			"buffer":0,
			"byteLength":1176,
			"byteOffset":0,
			"target":34962
		},
		{
			"buffer":0,
			"byteLength":1176,
			"byteOffset":1176,
			"target":34962
		},
		{
			"buffer":0,
			"byteLength":784,
			"byteOffset":2352,
			"target":34962
		},
		{
			"buffer":0,
			"byteLength":784,
			"byteOffset":3136,
			"target":34962
		},
		{
			"buffer":0,
			"byteLength":720,
			"byteOffset":3920,
			"target":34963
		}
	],
	"samplers":[
		{
			"magFilter":9729,
			"minFilter":9987
		}
	],
	"buffers":[
		{
			"byteLength":4640,
			"uri":"apolloj4.bin"
		}
	]
}
