{
	"asset":{
		"generator":"Khronos glTF Blender I/O v3.6.28",
		"version":"2.0"
	},
	"scene":0,
	"scenes":[
		{
			"name":"Scene",
			"nodes":[
				0
			]
		}
	],
	"nodes":[
		{
			"mesh":0,
			"name":"bag"
		}
	],
	"materials":[
		{
			"extras":{
				"dirt":1,
				"recolor":"team",
				"recolor_ref":[
					0.039,
					0.651,
					0.996
				]
			},
			"name":"Material 1 (lemt.png).001",
			"pbrMetallicRoughness":{
				"baseColorTexture":{
					"index":0
				},
				"metallicFactor":0
			}
		},
		{
			"extras":{
				"dirt":0
			},
			"name":"Material 3 (human.png).001",
			"pbrMetallicRoughness":{
				"baseColorTexture":{
					"index":1
				},
				"metallicFactor":0
			}
		}
	],
	"meshes":[
		{
			"name":"bag.001",
			"primitives":[
				{
					"attributes":{
						"POSITION":0,
						"NORMAL":1,
						"TEXCOORD_0":2,
						"TEXCOORD_1":3
					},
					"indices":4,
					"material":0
				},
				{
					"attributes":{
						"POSITION":5,
						"NORMAL":6,
						"TEXCOORD_0":7,
						"TEXCOORD_1":8
					},
					"indices":9,
					"material":1
				}
			]
		}
	],
	"textures":[
		{
			"sampler":0,
			"source":0
		},
		{
			"sampler":0,
			"source":0
		}
	],
	"images":[
		{
			"mimeType":"image/png",
			"name":"objects",
			"uri":"objects.png"
		}
	],
	"accessors":[
		{
			"bufferView":0,
			"componentType":5126,
			"count":117,
			"max":[
				1.9948184490203857,
				2.183342456817627,
				1.2160040140151978
			],
			"min":[
				-2.7367029190063477,
				0.9522438049316406,
				-1.2637399435043335
			],
			"type":"VEC3"
		},
		{
			"bufferView":1,
			"componentType":5126,
			"count":117,
			"type":"VEC3"
		},
		{
			"bufferView":2,
			"componentType":5126,
			"count":117,
			"type":"VEC2"
		},
		{
			"bufferView":3,
			"componentType":5126,
			"count":117,
			"type":"VEC2"
		},
		{
			"bufferView":4,
			"componentType":5123,
			"count":210,
			"type":"SCALAR"
		},
		{
			"bufferView":5,
			"componentType":5126,
			"count":67,
			"max":[
				0.6767501831054688,
				2.268527030944824,
				1.3030040264129639
			],
			"min":[
				-1.7033487558364868,
				1.226070523262024,
				-1.338763952255249
			],
			"type":"VEC3"
		},
		{
			"bufferView":6,
			"componentType":5126,
			"count":67,
			"type":"VEC3"
		},
		{
			"bufferView":7,
			"componentType":5126,
			"count":67,
			"type":"VEC2"
		},
		{
			"bufferView":8,
			"componentType":5126,
			"count":67,
			"type":"VEC2"
		},
		{
			"bufferView":9,
			"componentType":5123,
			"count":144,
			"type":"SCALAR"
		}
	],
	"bufferViews":[
		{
			"buffer":0,
			"byteLength":1404,
			"byteOffset":0,
			"target":34962
		},
		{
			"buffer":0,
			"byteLength":1404,
			"byteOffset":1404,
			"target":34962
		},
		{
			"buffer":0,
			"byteLength":936,
			"byteOffset":2808,
			"target":34962
		},
		{
			"buffer":0,
			"byteLength":936,
			"byteOffset":3744,
			"target":34962
		},
		{
			"buffer":0,
			"byteLength":420,
			"byteOffset":4680,
			"target":34963
		},
		{
			"buffer":0,
			"byteLength":804,
			"byteOffset":5100,
			"target":34962
		},
		{
			"buffer":0,
			"byteLength":804,
			"byteOffset":5904,
			"target":34962
		},
		{
			"buffer":0,
			"byteLength":536,
			"byteOffset":6708,
			"target":34962
		},
		{
			"buffer":0,
			"byteLength":536,
			"byteOffset":7244,
			"target":34962
		},
		{
			"buffer":0,
			"byteLength":288,
			"byteOffset":7780,
			"target":34963
		}
	],
	"samplers":[
		{
			"magFilter":9729,
			"minFilter":9987
		}
	],
	"buffers":[
		{
			"byteLength":8068,
			"uri":"bag.bin"
		}
	]
}
