{
	"asset":{
		"generator":"Khronos glTF Blender I/O v3.6.28",
		"version":"2.0"
	},
	"scene":0,
	"scenes":[
		{
			"name":"Scene",
			"nodes":[
				0
			]
		}
	],
	"nodes":[
		{
			"mesh":0,
			"name":"barrier1"
		}
	],
	"materials":[
		{
			"extras":{
				"dirt":1,
				"recolor":"team",
				"recolor_ref":[
					0.039,
					0.651,
					0.996
				]
			},
			"name":"Material 1 (subm.png).001",
			"pbrMetallicRoughness":{
				"baseColorTexture":{
					"index":0
				},
				"metallicFactor":0
			}
		}
	],
	"meshes":[
		{
			"name":"barrier1",
			"primitives":[
				{
					"attributes":{
						"POSITION":0,
						"NORMAL":1,
						"TEXCOORD_0":2,
						"TEXCOORD_1":3
					},
					"indices":4,
					"material":0
				}
			]
		}
	],
	"textures":[
		{
			"sampler":0,
			"source":0
		}
	],
	"images":[
		{
			"mimeType":"image/png",
			"name":"objects",
			"uri":"objects.png"
		}
	],
	"accessors":[
		{
			"bufferView":0,
			"componentType":5126,
			"count":64,
			"max":[
				10,
				4.0099592208862305,
				1.3143279552459717
			],
			"min":[
				-10,
				-1.9977309703826904,
				-1.365671992301941
			],
			"type":"VEC3"
		},
		{
			"bufferView":1,
			"componentType":5126,
			"count":64,
			"type":"VEC3"
		},
		{
			"bufferView":2,
			"componentType":5126,
			"count":64,
			"type":"VEC2"
		},
		{
			"bufferView":3,
			"componentType":5126,
			"count":64,
			"type":"VEC2"
		},
		{
			"bufferView":4,
			"componentType":5123,
			"count":96,
			"type":"SCALAR"
		}
	],
	"bufferViews":[
		{
			"buffer":0,
			"byteLength":768,
			"byteOffset":0,
			"target":34962
		},
		{
			"buffer":0,
			"byteLength":768,
			"byteOffset":768,
			"target":34962
		},
		{
			"buffer":0,
			"byteLength":512,
			"byteOffset":1536,
			"target":34962
		},
		{
			"buffer":0,
			"byteLength":512,
			"byteOffset":2048,
			"target":34962
		},
		{
			"buffer":0,
			"byteLength":192,
			"byteOffset":2560,
			"target":34963
		}
	],
	"samplers":[
		{
			"magFilter":9729,
			"minFilter":9987
		}
	],
	"buffers":[
		{
			"byteLength":2752,
			"uri":"barrier1.bin"
		}
	]
}
