{
	"asset":{
		"generator":"Khronos glTF Blender I/O v3.6.28",
		"version":"2.0"
	},
	"scene":0,
	"scenes":[
		{
			"name":"Scene",
			"nodes":[
				0
			]
		}
	],
	"nodes":[
		{
			"mesh":0,
			"name":"barrier2"
		}
	],
	"materials":[
		{
			"extras":{
				"dirt":0
			},
			"name":"Material 1 (kid2.tga)",
			"pbrMetallicRoughness":{
				"baseColorTexture":{
					"index":0
				},
				"metallicFactor":0
			}
		}
	],
	"meshes":[
		{
			"name":"barrier2",
			"primitives":[
				{
					"attributes":{
						"POSITION":0,
						"NORMAL":1,
						"TEXCOORD_0":2,
						"TEXCOORD_1":3
					},
					"indices":4,
					"material":0
				}
			]
		}
	],
	"textures":[
		{
			"sampler":0,
			"source":0
		}
	],
	"images":[
		{
			"mimeType":"image/png",
			"name":"objects",
			"uri":"objects.png"
		}
	],
	"accessors":[
		{
			"bufferView":0,
			"componentType":5126,
			"count":46,
			"max":[
				9.090909004211426,
				4,
				2
			],
			"min":[
				-9.090909004211426,
				0,
				-2
			],
			"type":"VEC3"
		},
		{
			"bufferView":1,
			"componentType":5126,
			"count":46,
			"type":"VEC3"
		},
		{
			"bufferView":2,
			"componentType":5126,
			"count":46,
			"type":"VEC2"
		},
		{
			"bufferView":3,
			"componentType":5126,
			"count":46,
			"type":"VEC2"
		},
		{
			"bufferView":4,
			"componentType":5123,
			"count":78,
			"type":"SCALAR"
		}
	],
	"bufferViews":[
		{
			"buffer":0,
			"byteLength":552,
			"byteOffset":0,
			"target":34962
		},
		{
			"buffer":0,
			"byteLength":552,
			"byteOffset":552,
			"target":34962
		},
		{
			"buffer":0,
			"byteLength":368,
			"byteOffset":1104,
			"target":34962
		},
		{
			"buffer":0,
			"byteLength":368,
			"byteOffset":1472,
			"target":34962
		},
		{
			"buffer":0,
			"byteLength":156,
			"byteOffset":1840,
			"target":34963
		}
	],
	"samplers":[
		{
			"magFilter":9729,
			"minFilter":9987
		}
	],
	"buffers":[
		{
			"byteLength":1996,
			"uri":"barrier2.bin"
		}
	]
}
