{
	"asset":{
		"generator":"Khronos glTF Blender I/O v3.6.28",
		"version":"2.0"
	},
	"scene":0,
	"scenes":[
		{
			"name":"Scene",
			"nodes":[
				0
			]
		}
	],
	"nodes":[
		{
			"mesh":0,
			"name":"base4"
		}
	],
	"materials":[
		{
			"extras":{
				"dirt":1,
				"recolor":"team",
				"recolor_ref":[
					0.039,
					0.651,
					0.996
				]
			},
			"name":"Material 1 (base1.png).003",
			"pbrMetallicRoughness":{
				"baseColorTexture":{
					"index":0
				},
				"metallicFactor":0
			}
		}
	],
	"meshes":[
		{
			"name":"base4",
			"primitives":[
				{
					"attributes":{
						"POSITION":0,
						"NORMAL":1,
						"TEXCOORD_0":2,
						"TEXCOORD_1":3
					},
					"indices":4,
					"material":0
				}
			]
		}
	],
	"textures":[
		{
			"sampler":0,
			"source":0
		}
	],
	"images":[
		{
			"mimeType":"image/png",
			"name":"objects",
			"uri":"objects.png"
		}
	],
	"accessors":[
		{
			"bufferView":0,
			"componentType":5126,
			"count":5,
			"max":[
				31.32706069946289,
				-0.44358301162719727,
				17.08445167541504
			],
			"min":[
				-23.51096534729004,
				-0.44358500838279724,
				-2.0076348781585693
			],
			"type":"VEC3"
		},
		{
			"bufferView":1,
			"componentType":5126,
			"count":5,
			"type":"VEC3"
		},
		{
			"bufferView":2,
			"componentType":5126,
			"count":5,
			"type":"VEC2"
		},
		{
			"bufferView":3,
			"componentType":5126,
			"count":5,
			"type":"VEC2"
		},
		{
			"bufferView":4,
			"componentType":5123,
			"count":9,
			"type":"SCALAR"
		}
	],
	"bufferViews":[
		{
			"buffer":0,
			"byteLength":60,
			"byteOffset":0,
			"target":34962
		},
		{
			"buffer":0,
			"byteLength":60,
			"byteOffset":60,
			"target":34962
		},
		{
			"buffer":0,
			"byteLength":40,
			"byteOffset":120,
			"target":34962
		},
		{
			"buffer":0,
			"byteLength":40,
			"byteOffset":160,
			"target":34962
		},
		{
			"buffer":0,
			"byteLength":18,
			"byteOffset":200,
			"target":34963
		}
	],
	"samplers":[
		{
			"magFilter":9729,
			"minFilter":9987
		}
	],
	"buffers":[
		{
			"byteLength":220,
			"uri":"base4.bin"
		}
	]
}
