{
	"asset":{
		"generator":"Khronos glTF Blender I/O v3.6.28",
		"version":"2.0"
	},
	"scene":0,
	"scenes":[
		{
			"name":"Scene",
			"nodes":[
				0
			]
		}
	],
	"nodes":[
		{
			"mesh":0,
			"name":"bomb"
		}
	],
	"materials":[
		{
			"extras":{
				"dirt":1
			},
			"name":"Material 1 (lemt.png)",
			"pbrMetallicRoughness":{
				"baseColorTexture":{
					"index":0
				},
				"metallicFactor":0
			}
		}
	],
	"meshes":[
		{
			"name":"bomb",
			"primitives":[
				{
					"attributes":{
						"POSITION":0,
						"NORMAL":1,
						"TEXCOORD_0":2,
						"TEXCOORD_1":3
					},
					"indices":4,
					"material":0
				}
			]
		}
	],
	"textures":[
		{
			"sampler":0,
			"source":0
		}
	],
	"images":[
		{
			"mimeType":"image/png",
			"name":"objects",
			"uri":"objects.png"
		}
	],
	"accessors":[
		{
			"bufferView":0,
			"componentType":5126,
			"count":143,
			"max":[
				4.330126762390137,
				5,
				4.330126762390137
			],
			"min":[
				-4.330126762390137,
				-1.0514620542526245,
				-4.330126762390137
			],
			"type":"VEC3"
		},
		{
			"bufferView":1,
			"componentType":5126,
			"count":143,
			"type":"VEC3"
		},
		{
			"bufferView":2,
			"componentType":5126,
			"count":143,
			"type":"VEC2"
		},
		{
			"bufferView":3,
			"componentType":5126,
			"count":143,
			"type":"VEC2"
		},
		{
			"bufferView":4,
			"componentType":5123,
			"count":261,
			"type":"SCALAR"
		}
	],
	"bufferViews":[
		{
			"buffer":0,
			"byteLength":1716,
			"byteOffset":0,
			"target":34962
		},
		{
			"buffer":0,
			"byteLength":1716,
			"byteOffset":1716,
			"target":34962
		},
		{
			"buffer":0,
			"byteLength":1144,
			"byteOffset":3432,
			"target":34962
		},
		{
			"buffer":0,
			"byteLength":1144,
			"byteOffset":4576,
			"target":34962
		},
		{
			"buffer":0,
			"byteLength":522,
			"byteOffset":5720,
			"target":34963
		}
	],
	"samplers":[
		{
			"magFilter":9729,
			"minFilter":9987
		}
	],
	"buffers":[
		{
			"byteLength":6244,
			"uri":"bomb.bin"
		}
	]
}
