{
	"asset":{
		"generator":"Khronos glTF Blender I/O v3.6.28",
		"version":"2.0"
	},
	"scene":0,
	"scenes":[
		{
			"name":"Scene",
			"nodes":[
				0
			]
		}
	],
	"nodes":[
		{
			"mesh":0,
			"name":"derrick1"
		}
	],
	"materials":[
		{
			"extras":{
				"dirt":1,
				"recolor":"team",
				"recolor_ref":[
					0.039,
					0.651,
					0.996
				]
			},
			"name":"Material 1 (derrick.png)",
			"pbrMetallicRoughness":{
				"baseColorTexture":{
					"index":0
				},
				"metallicFactor":0
			}
		}
	],
	"meshes":[
		{
			"name":"derrick1",
			"primitives":[
				{
					"attributes":{
						"POSITION":0,
						"NORMAL":1,
						"TEXCOORD_0":2,
						"TEXCOORD_1":3
					},
					"indices":4,
					"material":0
				}
			]
		}
	],
	"textures":[
		{
			"sampler":0,
			"source":0
		}
	],
	"images":[
		{
			"mimeType":"image/png",
			"name":"objects",
			"uri":"objects.png"
		}
	],
	"accessors":[
		{
			"bufferView":0,
			"componentType":5126,
			"count":319,
			"max":[
				8.778264045715332,
				24.851276397705078,
				4.903816223144531
			],
			"min":[
				-4.92697811126709,
				-0.7242079973220825,
				-4.903820991516113
			],
			"type":"VEC3"
		},
		{
			"bufferView":1,
			"componentType":5126,
			"count":319,
			"type":"VEC3"
		},
		{
			"bufferView":2,
			"componentType":5126,
			"count":319,
			"type":"VEC2"
		},
		{
			"bufferView":3,
			"componentType":5126,
			"count":319,
			"type":"VEC2"
		},
		{
			"bufferView":4,
			"componentType":5123,
			"count":522,
			"type":"SCALAR"
		}
	],
	"bufferViews":[
		{
			"buffer":0,
			"byteLength":3828,
			"byteOffset":0,
			"target":34962
		},
		{
			"buffer":0,
			"byteLength":3828,
			"byteOffset":3828,
			"target":34962
		},
		{
			"buffer":0,
			"byteLength":2552,
			"byteOffset":7656,
			"target":34962
		},
		{
			"buffer":0,
			"byteLength":2552,
			"byteOffset":10208,
			"target":34962
		},
		{
			"buffer":0,
			"byteLength":1044,
			"byteOffset":12760,
			"target":34963
		}
	],
	"samplers":[
		{
			"magFilter":9729,
			"minFilter":9987
		}
	],
	"buffers":[
		{
			"byteLength":13804,
			"uri":"derrick1.bin"
		}
	]
}
