{
	"asset":{
		"generator":"Khronos glTF Blender I/O v3.6.28",
		"version":"2.0"
	},
	"scene":0,
	"scenes":[
		{
			"name":"Scene",
			"nodes":[
				0
			]
		}
	],
	"nodes":[
		{
			"mesh":0,
			"name":"drawer5"
		}
	],
	"materials":[
		{
			"extras":{
				"dirt":1
			},
			"name":"Material 1 (drawer.png).001",
			"pbrMetallicRoughness":{
				"baseColorTexture":{
					"index":0
				},
				"metallicFactor":0
			}
		}
	],
	"meshes":[
		{
			"name":"drawer5",
			"primitives":[
				{
					"attributes":{
						"POSITION":0,
						"NORMAL":1,
						"TEXCOORD_0":2,
						"TEXCOORD_1":3
					},
					"indices":4,
					"material":0
				}
			]
		}
	],
	"textures":[
		{
			"sampler":0,
			"source":0
		}
	],
	"images":[
		{
			"mimeType":"image/png",
			"name":"objects",
			"uri":"objects.png"
		}
	],
	"accessors":[
		{
			"bufferView":0,
			"componentType":5126,
			"count":172,
			"max":[
				1.8093620538711548,
				2.5357539653778076,
				0.24597600102424622
			],
			"min":[
				-1.797773003578186,
				0.0023960000835359097,
				-0.2540239989757538
			],
			"type":"VEC3"
		},
		{
			"bufferView":1,
			"componentType":5126,
			"count":172,
			"type":"VEC3"
		},
		{
			"bufferView":2,
			"componentType":5126,
			"count":172,
			"type":"VEC2"
		},
		{
			"bufferView":3,
			"componentType":5126,
			"count":172,
			"type":"VEC2"
		},
		{
			"bufferView":4,
			"componentType":5123,
			"count":378,
			"type":"SCALAR"
		}
	],
	"bufferViews":[
		{
			"buffer":0,
			"byteLength":2064,
			"byteOffset":0,
			"target":34962
		},
		{
			"buffer":0,
			"byteLength":2064,
			"byteOffset":2064,
			"target":34962
		},
		{
			"buffer":0,
			"byteLength":1376,
			"byteOffset":4128,
			"target":34962
		},
		{
			"buffer":0,
			"byteLength":1376,
			"byteOffset":5504,
			"target":34962
		},
		{
			"buffer":0,
			"byteLength":756,
			"byteOffset":6880,
			"target":34963
		}
	],
	"samplers":[
		{
			"magFilter":9729,
			"minFilter":9987
		}
	],
	"buffers":[
		{
			"byteLength":7636,
			"uri":"drawer5.bin"
		}
	]
}
