{
	"asset":{
		"generator":"Khronos glTF Blender I/O v3.6.27",
		"version":"2.0"
	},
	"scene":0,
	"scenes":[
		{
			"name":"Scene",
			"nodes":[
				0
			]
		}
	],
	"nodes":[
		{
			"mesh":0,
			"name":"flag1v"
		}
	],
	"materials":[
		{
			"extras":{
				"dirt":0
			},
			"name":"Material 1",
			"pbrMetallicRoughness":{
				"baseColorTexture":{
					"index":0
				},
				"metallicFactor":0
			}
		}
	],
	"meshes":[
		{
			"name":"flag1v",
			"primitives":[
				{
					"attributes":{
						"POSITION":0,
						"NORMAL":1,
						"TEXCOORD_0":2,
						"TEXCOORD_1":3
					},
					"indices":4,
					"material":0
				}
			]
		}
	],
	"textures":[
		{
			"sampler":0,
			"source":0
		}
	],
	"images":[
		{
			"mimeType":"image/png",
			"name":"objects",
			"uri":"objects.png"
		}
	],
	"accessors":[
		{
			"bufferView":0,
			"componentType":5126,
			"count":11,
			"max":[
				0.15000000596046448,
				6.991850852966309,
				0.2598080039024353
			],
			"min":[
				-0.30000001192092896,
				-1,
				-0.2598080039024353
			],
			"type":"VEC3"
		},
		{
			"bufferView":1,
			"componentType":5126,
			"count":11,
			"type":"VEC3"
		},
		{
			"bufferView":2,
			"componentType":5126,
			"count":11,
			"type":"VEC2"
		},
		{
			"bufferView":3,
			"componentType":5126,
			"count":11,
			"type":"VEC2"
		},
		{
			"bufferView":4,
			"componentType":5123,
			"count":21,
			"type":"SCALAR"
		}
	],
	"bufferViews":[
		{
			"buffer":0,
			"byteLength":132,
			"byteOffset":0,
			"target":34962
		},
		{
			"buffer":0,
			"byteLength":132,
			"byteOffset":132,
			"target":34962
		},
		{
			"buffer":0,
			"byteLength":88,
			"byteOffset":264,
			"target":34962
		},
		{
			"buffer":0,
			"byteLength":88,
			"byteOffset":352,
			"target":34962
		},
		{
			"buffer":0,
			"byteLength":42,
			"byteOffset":440,
			"target":34963
		}
	],
	"samplers":[
		{
			"magFilter":9729,
			"minFilter":9987
		}
	],
	"buffers":[
		{
			"byteLength":484,
			"uri":"flag1v.bin"
		}
	]
}
