{
	"asset":{
		"generator":"Khronos glTF Blender I/O v4.2.57",
		"version":"2.0"
	},
	"scene":0,
	"scenes":[
		{
			"name":"Scene",
			"nodes":[
				0
			]
		}
	],
	"nodes":[
		{
			"mesh":0,
			"name":"human3"
		}
	],
	"materials":[
		{
			"doubleSided":true,
			"extras":{
				"dirt":0,
				"tag":"suit"
			},
			"name":"Material_NoDirtSuit",
			"pbrMetallicRoughness":{
				"baseColorTexture":{
					"index":0
				},
				"metallicFactor":0
			}
		}
	],
	"meshes":[
		{
			"name":"human3",
			"primitives":[
				{
					"attributes":{
						"POSITION":0,
						"NORMAL":1,
						"TEXCOORD_0":2,
						"TEXCOORD_1":3
					},
					"indices":4,
					"material":0
				}
			]
		}
	],
	"textures":[
		{
			"sampler":0,
			"source":0
		}
	],
	"images":[
		{
			"mimeType":"image/png",
			"name":"objects",
			"uri":"objects.png"
		}
	],
	"accessors":[
		{
			"bufferView":0,
			"componentType":5126,
			"count":97,
			"max":[
				1.4172170162200928,
				0.5094410181045532,
				0.4831790030002594
			],
			"min":[
				-0.2416509985923767,
				-0.49055901169776917,
				-0.516821026802063
			],
			"type":"VEC3"
		},
		{
			"bufferView":1,
			"componentType":5126,
			"count":97,
			"type":"VEC3"
		},
		{
			"bufferView":2,
			"componentType":5126,
			"count":97,
			"type":"VEC2"
		},
		{
			"bufferView":3,
			"componentType":5126,
			"count":97,
			"type":"VEC2"
		},
		{
			"bufferView":4,
			"componentType":5123,
			"count":186,
			"type":"SCALAR"
		}
	],
	"bufferViews":[
		{
			"buffer":0,
			"byteLength":1164,
			"byteOffset":0,
			"target":34962
		},
		{
			"buffer":0,
			"byteLength":1164,
			"byteOffset":1164,
			"target":34962
		},
		{
			"buffer":0,
			"byteLength":776,
			"byteOffset":2328,
			"target":34962
		},
		{
			"buffer":0,
			"byteLength":776,
			"byteOffset":3104,
			"target":34962
		},
		{
			"buffer":0,
			"byteLength":372,
			"byteOffset":3880,
			"target":34963
		}
	],
	"samplers":[
		{
			"magFilter":9729,
			"minFilter":9987
		}
	],
	"buffers":[
		{
			"byteLength":4252,
			"uri":"human3.bin"
		}
	]
}
