{
	"asset":{
		"generator":"Khronos glTF Blender I/O v3.6.28",
		"version":"2.0"
	},
	"scene":0,
	"scenes":[
		{
			"name":"Scene",
			"nodes":[
				0
			]
		}
	],
	"nodes":[
		{
			"mesh":0,
			"name":"human2g2"
		}
	],
	"materials":[
		{
			"extras":{
				"dirt":0,
				"recolor":"team",
				"recolor_ref":[
					0.039,
					0.651,
					0.996
				]
			},
			"name":"Material 1 (vegetal.png)",
			"pbrMetallicRoughness":{
				"baseColorTexture":{
					"index":0
				},
				"metallicFactor":0
			}
		}
	],
	"meshes":[
		{
			"name":"human2g2",
			"primitives":[
				{
					"attributes":{
						"POSITION":0,
						"NORMAL":1,
						"TEXCOORD_0":2,
						"TEXCOORD_1":3
					},
					"indices":4,
					"material":0
				}
			]
		}
	],
	"textures":[
		{
			"sampler":0,
			"source":0
		}
	],
	"images":[
		{
			"mimeType":"image/png",
			"name":"vegetal",
			"uri":"vegetal.png"
		}
	],
	"accessors":[
		{
			"bufferView":0,
			"componentType":5126,
			"count":19,
			"max":[
				0.6266019940376282,
				1.108989953994751,
				0.5032640099525452
			],
			"min":[
				0.15744300186634064,
				0.9216129779815674,
				-0.5031319856643677
			],
			"type":"VEC3"
		},
		{
			"bufferView":1,
			"componentType":5126,
			"count":19,
			"type":"VEC3"
		},
		{
			"bufferView":2,
			"componentType":5126,
			"count":19,
			"type":"VEC2"
		},
		{
			"bufferView":3,
			"componentType":5126,
			"count":19,
			"type":"VEC2"
		},
		{
			"bufferView":4,
			"componentType":5123,
			"count":45,
			"type":"SCALAR"
		}
	],
	"bufferViews":[
		{
			"buffer":0,
			"byteLength":228,
			"byteOffset":0,
			"target":34962
		},
		{
			"buffer":0,
			"byteLength":228,
			"byteOffset":228,
			"target":34962
		},
		{
			"buffer":0,
			"byteLength":152,
			"byteOffset":456,
			"target":34962
		},
		{
			"buffer":0,
			"byteLength":152,
			"byteOffset":608,
			"target":34962
		},
		{
			"buffer":0,
			"byteLength":90,
			"byteOffset":760,
			"target":34963
		}
	],
	"samplers":[
		{
			"magFilter":9729,
			"minFilter":9987
		}
	],
	"buffers":[
		{
			"byteLength":852,
			"uri":"human2g2.bin"
		}
	]
}
