{
	"asset":{
		"generator":"Khronos glTF Blender I/O v4.2.57",
		"version":"2.0"
	},
	"scene":0,
	"scenes":[
		{
			"name":"Scene",
			"nodes":[
				0
			]
		}
	],
	"nodes":[
		{
			"mesh":0,
			"name":"human2c1"
		}
	],
	"materials":[
		{
			"doubleSided":true,
			"extras":{
				"dirt":0,
				"tag":"suit"
			},
			"name":"Material 1 (human.png).011",
			"pbrMetallicRoughness":{
				"baseColorTexture":{
					"index":0
				},
				"metallicFactor":0
			}
		},
		{
			"alphaMode":"BLEND",
			"extras":{
				"dirt":0
			},
			"name":"Material 2 (human.png).002",
			"pbrMetallicRoughness":{
				"baseColorTexture":{
					"index":1
				},
				"metallicFactor":0
			}
		},
		{
			"doubleSided":true,
			"extras":{
				"tag":"band"
			},
			"name":"Material.001",
			"pbrMetallicRoughness":{
				"baseColorTexture":{
					"index":2
				},
				"metallicFactor":0
			}
		}
	],
	"meshes":[
		{
			"name":"human2c1.001",
			"primitives":[
				{
					"attributes":{
						"POSITION":0,
						"NORMAL":1,
						"TEXCOORD_0":2,
						"TEXCOORD_1":3
					},
					"indices":4,
					"material":0
				},
				{
					"attributes":{
						"POSITION":5,
						"NORMAL":6,
						"TEXCOORD_0":7,
						"TEXCOORD_1":8
					},
					"indices":9,
					"material":1
				},
				{
					"attributes":{
						"POSITION":10,
						"NORMAL":11,
						"TEXCOORD_0":12,
						"TEXCOORD_1":13
					},
					"indices":14,
					"material":2
				}
			]
		}
	],
	"textures":[
		{
			"sampler":0,
			"source":0
		},
		{
			"sampler":0,
			"source":0
		},
		{
			"sampler":0,
			"source":0
		}
	],
	"images":[
		{
			"mimeType":"image/png",
			"name":"objects",
			"uri":"objects.png"
		}
	],
	"accessors":[
		{
			"bufferView":0,
			"componentType":5126,
			"count":213,
			"max":[
				0.8049479722976685,
				1.7791279554367065,
				1
			],
			"min":[
				-0.978875994682312,
				-0.2011280059814453,
				-1
			],
			"type":"VEC3"
		},
		{
			"bufferView":1,
			"componentType":5126,
			"count":213,
			"type":"VEC3"
		},
		{
			"bufferView":2,
			"componentType":5126,
			"count":213,
			"type":"VEC2"
		},
		{
			"bufferView":3,
			"componentType":5126,
			"count":213,
			"type":"VEC2"
		},
		{
			"bufferView":4,
			"componentType":5123,
			"count":588,
			"type":"SCALAR"
		},
		{
			"bufferView":5,
			"componentType":5126,
			"count":14,
			"max":[
				0.9510570168495178,
				1.2622029781341553,
				0.80901700258255
			],
			"min":[
				0.47259199619293213,
				0.14436300098896027,
				-0.80901700258255
			],
			"type":"VEC3"
		},
		{
			"bufferView":6,
			"componentType":5126,
			"count":14,
			"type":"VEC3"
		},
		{
			"bufferView":7,
			"componentType":5126,
			"count":14,
			"type":"VEC2"
		},
		{
			"bufferView":8,
			"componentType":5126,
			"count":14,
			"type":"VEC2"
		},
		{
			"bufferView":9,
			"componentType":5123,
			"count":42,
			"type":"SCALAR"
		},
		{
			"bufferView":10,
			"componentType":5126,
			"count":16,
			"max":[
				0.8045651912689209,
				1.7791279554367065,
				0.1439867913722992
			],
			"min":[
				-0.978875994682312,
				-0.2011280059814453,
				-0.14294438064098358
			],
			"type":"VEC3"
		},
		{
			"bufferView":11,
			"componentType":5126,
			"count":16,
			"type":"VEC3"
		},
		{
			"bufferView":12,
			"componentType":5126,
			"count":16,
			"type":"VEC2"
		},
		{
			"bufferView":13,
			"componentType":5126,
			"count":16,
			"type":"VEC2"
		},
		{
			"bufferView":14,
			"componentType":5123,
			"count":42,
			"type":"SCALAR"
		}
	],
	"bufferViews":[
		{
			"buffer":0,
			"byteLength":2556,
			"byteOffset":0,
			"target":34962
		},
		{
			"buffer":0,
			"byteLength":2556,
			"byteOffset":2556,
			"target":34962
		},
		{
			"buffer":0,
			"byteLength":1704,
			"byteOffset":5112,
			"target":34962
		},
		{
			"buffer":0,
			"byteLength":1704,
			"byteOffset":6816,
			"target":34962
		},
		{
			"buffer":0,
			"byteLength":1176,
			"byteOffset":8520,
			"target":34963
		},
		{
			"buffer":0,
			"byteLength":168,
			"byteOffset":9696,
			"target":34962
		},
		{
			"buffer":0,
			"byteLength":168,
			"byteOffset":9864,
			"target":34962
		},
		{
			"buffer":0,
			"byteLength":112,
			"byteOffset":10032,
			"target":34962
		},
		{
			"buffer":0,
			"byteLength":112,
			"byteOffset":10144,
			"target":34962
		},
		{
			"buffer":0,
			"byteLength":84,
			"byteOffset":10256,
			"target":34963
		},
		{
			"buffer":0,
			"byteLength":192,
			"byteOffset":10340,
			"target":34962
		},
		{
			"buffer":0,
			"byteLength":192,
			"byteOffset":10532,
			"target":34962
		},
		{
			"buffer":0,
			"byteLength":128,
			"byteOffset":10724,
			"target":34962
		},
		{
			"buffer":0,
			"byteLength":128,
			"byteOffset":10852,
			"target":34962
		},
		{
			"buffer":0,
			"byteLength":84,
			"byteOffset":10980,
			"target":34963
		}
	],
	"samplers":[
		{
			"magFilter":9729,
			"minFilter":9987
		}
	],
	"buffers":[
		{
			"byteLength":11064,
			"uri":"human2c1.bin"
		}
	]
}
