{
	"asset":{
		"generator":"Khronos glTF Blender I/O v4.2.57",
		"version":"2.0"
	},
	"scene":0,
	"scenes":[
		{
			"name":"Scene",
			"nodes":[
				0
			]
		}
	],
	"nodes":[
		{
			"mesh":0,
			"name":"human2c1"
		}
	],
	"materials":[
		{
			"doubleSided":true,
			"extras":{
				"dirt":0,
				"tag":"suit"
			},
			"name":"Material_NoDirtSuit.002",
			"pbrMetallicRoughness":{
				"baseColorTexture":{
					"index":0
				},
				"metallicFactor":0
			}
		},
		{
			"alphaMode":"BLEND",
			"doubleSided":true,
			"extras":{
				"dirt":0
			},
			"name":"Material_NoDirt_Transparent.002",
			"pbrMetallicRoughness":{
				"baseColorTexture":{
					"index":1
				},
				"metallicFactor":0
			}
		},
		{
			"doubleSided":true,
			"extras":{
				"dirt":0,
				"tag":"band"
			},
			"name":"Material_NoDirtBand.001",
			"pbrMetallicRoughness":{
				"baseColorTexture":{
					"index":2
				},
				"metallicFactor":0
			}
		},
		{
			"extras":{
				"dirt":0
			},
			"name":"Material_NoDirtNoRecolor.009",
			"pbrMetallicRoughness":{
				"baseColorTexture":{
					"index":3
				},
				"metallicFactor":0
			}
		}
	],
	"meshes":[
		{
			"name":"human2c1.002",
			"primitives":[
				{
					"attributes":{
						"POSITION":0,
						"NORMAL":1,
						"TEXCOORD_0":2,
						"TEXCOORD_1":3
					},
					"indices":4,
					"material":0
				},
				{
					"attributes":{
						"POSITION":5,
						"NORMAL":6,
						"TEXCOORD_0":7,
						"TEXCOORD_1":8
					},
					"indices":9,
					"material":1
				},
				{
					"attributes":{
						"POSITION":10,
						"NORMAL":11,
						"TEXCOORD_0":12,
						"TEXCOORD_1":13
					},
					"indices":14,
					"material":2
				},
				{
					"attributes":{
						"POSITION":15,
						"NORMAL":16,
						"TEXCOORD_0":17,
						"TEXCOORD_1":18
					},
					"indices":19,
					"material":3
				}
			]
		}
	],
	"textures":[
		{
			"sampler":0,
			"source":0
		},
		{
			"sampler":0,
			"source":0
		},
		{
			"sampler":0,
			"source":0
		},
		{
			"sampler":0,
			"source":0
		}
	],
	"images":[
		{
			"mimeType":"image/png",
			"name":"objects",
			"uri":"objects.png"
		}
	],
	"accessors":[
		{
			"bufferView":0,
			"componentType":5126,
			"count":152,
			"max":[
				0.8049479722976685,
				1.7791279554367065,
				1
			],
			"min":[
				-0.978875994682312,
				-0.2011280059814453,
				-1
			],
			"type":"VEC3"
		},
		{
			"bufferView":1,
			"componentType":5126,
			"count":152,
			"type":"VEC3"
		},
		{
			"bufferView":2,
			"componentType":5126,
			"count":152,
			"type":"VEC2"
		},
		{
			"bufferView":3,
			"componentType":5126,
			"count":152,
			"type":"VEC2"
		},
		{
			"bufferView":4,
			"componentType":5123,
			"count":300,
			"type":"SCALAR"
		},
		{
			"bufferView":5,
			"componentType":5126,
			"count":14,
			"max":[
				0.9510570168495178,
				1.2622029781341553,
				0.80901700258255
			],
			"min":[
				0.47259199619293213,
				0.14436300098896027,
				-0.80901700258255
			],
			"type":"VEC3"
		},
		{
			"bufferView":6,
			"componentType":5126,
			"count":14,
			"type":"VEC3"
		},
		{
			"bufferView":7,
			"componentType":5126,
			"count":14,
			"type":"VEC2"
		},
		{
			"bufferView":8,
			"componentType":5126,
			"count":14,
			"type":"VEC2"
		},
		{
			"bufferView":9,
			"componentType":5123,
			"count":42,
			"type":"SCALAR"
		},
		{
			"bufferView":10,
			"componentType":5126,
			"count":16,
			"max":[
				0.8045651912689209,
				1.7791279554367065,
				0.1439867913722992
			],
			"min":[
				-0.978875994682312,
				-0.2011280059814453,
				-0.14294438064098358
			],
			"type":"VEC3"
		},
		{
			"bufferView":11,
			"componentType":5126,
			"count":16,
			"type":"VEC3"
		},
		{
			"bufferView":12,
			"componentType":5126,
			"count":16,
			"type":"VEC2"
		},
		{
			"bufferView":13,
			"componentType":5126,
			"count":16,
			"type":"VEC2"
		},
		{
			"bufferView":14,
			"componentType":5123,
			"count":42,
			"type":"SCALAR"
		},
		{
			"bufferView":15,
			"componentType":5126,
			"count":61,
			"max":[
				0.6777660250663757,
				1.5591349601745605,
				0.5208849906921387
			],
			"min":[
				-0.2230609953403473,
				-0.2004150003194809,
				-0.5233680009841919
			],
			"type":"VEC3"
		},
		{
			"bufferView":16,
			"componentType":5126,
			"count":61,
			"type":"VEC3"
		},
		{
			"bufferView":17,
			"componentType":5126,
			"count":61,
			"type":"VEC2"
		},
		{
			"bufferView":18,
			"componentType":5126,
			"count":61,
			"type":"VEC2"
		},
		{
			"bufferView":19,
			"componentType":5123,
			"count":288,
			"type":"SCALAR"
		}
	],
	"bufferViews":[
		{
			"buffer":0,
			"byteLength":1824,
			"byteOffset":0,
			"target":34962
		},
		{
			"buffer":0,
			"byteLength":1824,
			"byteOffset":1824,
			"target":34962
		},
		{
			"buffer":0,
			"byteLength":1216,
			"byteOffset":3648,
			"target":34962
		},
		{
			"buffer":0,
			"byteLength":1216,
			"byteOffset":4864,
			"target":34962
		},
		{
			"buffer":0,
			"byteLength":600,
			"byteOffset":6080,
			"target":34963
		},
		{
			"buffer":0,
			"byteLength":168,
			"byteOffset":6680,
			"target":34962
		},
		{
			"buffer":0,
			"byteLength":168,
			"byteOffset":6848,
			"target":34962
		},
		{
			"buffer":0,
			"byteLength":112,
			"byteOffset":7016,
			"target":34962
		},
		{
			"buffer":0,
			"byteLength":112,
			"byteOffset":7128,
			"target":34962
		},
		{
			"buffer":0,
			"byteLength":84,
			"byteOffset":7240,
			"target":34963
		},
		{
			"buffer":0,
			"byteLength":192,
			"byteOffset":7324,
			"target":34962
		},
		{
			"buffer":0,
			"byteLength":192,
			"byteOffset":7516,
			"target":34962
		},
		{
			"buffer":0,
			"byteLength":128,
			"byteOffset":7708,
			"target":34962
		},
		{
			"buffer":0,
			"byteLength":128,
			"byteOffset":7836,
			"target":34962
		},
		{
			"buffer":0,
			"byteLength":84,
			"byteOffset":7964,
			"target":34963
		},
		{
			"buffer":0,
			"byteLength":732,
			"byteOffset":8048,
			"target":34962
		},
		{
			"buffer":0,
			"byteLength":732,
			"byteOffset":8780,
			"target":34962
		},
		{
			"buffer":0,
			"byteLength":488,
			"byteOffset":9512,
			"target":34962
		},
		{
			"buffer":0,
			"byteLength":488,
			"byteOffset":10000,
			"target":34962
		},
		{
			"buffer":0,
			"byteLength":576,
			"byteOffset":10488,
			"target":34963
		}
	],
	"samplers":[
		{
			"magFilter":9729,
			"minFilter":9987
		}
	],
	"buffers":[
		{
			"byteLength":11064,
			"uri":"human2c1.bin"
		}
	]
}
