{
	"asset":{
		"generator":"Khronos glTF Blender I/O v4.2.57",
		"version":"2.0"
	},
	"scene":0,
	"scenes":[
		{
			"name":"Scene",
			"nodes":[
				0
			]
		}
	],
	"nodes":[
		{
			"mesh":0,
			"name":"human1c"
		}
	],
	"materials":[
		{
			"extras":{
				"dirt":0,
				"tag":"suit"
			},
			"name":"Material 1 (human).003",
			"pbrMetallicRoughness":{
				"baseColorTexture":{
					"index":0
				},
				"metallicFactor":0
			}
		},
		{
			"extras":{
				"dirt":1,
				"recolor":"team",
				"recolor_ref":[
					0.039,
					0.651,
					0.996
				]
			},
			"name":"Material 2 (bag).002",
			"pbrMetallicRoughness":{
				"baseColorTexture":{
					"index":1
				},
				"metallicFactor":0
			}
		},
		{
			"doubleSided":true,
			"extras":{
				"dirt":0
			},
			"name":"Material_NoDirtNoRecolor",
			"pbrMetallicRoughness":{
				"baseColorTexture":{
					"index":2
				},
				"metallicFactor":0
			}
		}
	],
	"meshes":[
		{
			"name":"human1c.003",
			"primitives":[
				{
					"attributes":{
						"POSITION":0,
						"NORMAL":1,
						"TEXCOORD_0":2,
						"TEXCOORD_1":3
					},
					"indices":4,
					"material":0
				},
				{
					"attributes":{
						"POSITION":5,
						"NORMAL":6,
						"TEXCOORD_0":7,
						"TEXCOORD_1":8
					},
					"indices":9,
					"material":1
				},
				{
					"attributes":{
						"POSITION":10,
						"NORMAL":11,
						"TEXCOORD_0":12,
						"TEXCOORD_1":13
					},
					"indices":14,
					"material":2
				}
			]
		}
	],
	"textures":[
		{
			"sampler":0,
			"source":0
		},
		{
			"sampler":0,
			"source":0
		},
		{
			"sampler":0,
			"source":0
		}
	],
	"images":[
		{
			"mimeType":"image/png",
			"name":"objects",
			"uri":"objects.png"
		}
	],
	"accessors":[
		{
			"bufferView":0,
			"componentType":5126,
			"count":83,
			"max":[
				0.9835879802703857,
				2.847939968109131,
				1.4496819972991943
			],
			"min":[
				-1.0164120197296143,
				-0.5426449775695801,
				-1.4903299808502197
			],
			"type":"VEC3"
		},
		{
			"bufferView":1,
			"componentType":5126,
			"count":83,
			"type":"VEC3"
		},
		{
			"bufferView":2,
			"componentType":5126,
			"count":83,
			"type":"VEC2"
		},
		{
			"bufferView":3,
			"componentType":5126,
			"count":83,
			"type":"VEC2"
		},
		{
			"bufferView":4,
			"componentType":5123,
			"count":240,
			"type":"SCALAR"
		},
		{
			"bufferView":5,
			"componentType":5126,
			"count":117,
			"max":[
				-0.952243983745575,
				3.9948179721832275,
				1.2160040140151978
			],
			"min":[
				-2.1833419799804688,
				-0.7367029786109924,
				-1.2637399435043335
			],
			"type":"VEC3"
		},
		{
			"bufferView":6,
			"componentType":5126,
			"count":117,
			"type":"VEC3"
		},
		{
			"bufferView":7,
			"componentType":5126,
			"count":117,
			"type":"VEC2"
		},
		{
			"bufferView":8,
			"componentType":5126,
			"count":117,
			"type":"VEC2"
		},
		{
			"bufferView":9,
			"componentType":5123,
			"count":210,
			"type":"SCALAR"
		},
		{
			"bufferView":10,
			"componentType":5126,
			"count":60,
			"max":[
				-1.2260710000991821,
				2.6767499446868896,
				1.3030040264129639
			],
			"min":[
				-2.268527030944824,
				0.2966510057449341,
				-1.338763952255249
			],
			"type":"VEC3"
		},
		{
			"bufferView":11,
			"componentType":5126,
			"count":60,
			"type":"VEC3"
		},
		{
			"bufferView":12,
			"componentType":5126,
			"count":60,
			"type":"VEC2"
		},
		{
			"bufferView":13,
			"componentType":5126,
			"count":60,
			"type":"VEC2"
		},
		{
			"bufferView":14,
			"componentType":5123,
			"count":144,
			"type":"SCALAR"
		}
	],
	"bufferViews":[
		{
			"buffer":0,
			"byteLength":996,
			"byteOffset":0,
			"target":34962
		},
		{
			"buffer":0,
			"byteLength":996,
			"byteOffset":996,
			"target":34962
		},
		{
			"buffer":0,
			"byteLength":664,
			"byteOffset":1992,
			"target":34962
		},
		{
			"buffer":0,
			"byteLength":664,
			"byteOffset":2656,
			"target":34962
		},
		{
			"buffer":0,
			"byteLength":480,
			"byteOffset":3320,
			"target":34963
		},
		{
			"buffer":0,
			"byteLength":1404,
			"byteOffset":3800,
			"target":34962
		},
		{
			"buffer":0,
			"byteLength":1404,
			"byteOffset":5204,
			"target":34962
		},
		{
			"buffer":0,
			"byteLength":936,
			"byteOffset":6608,
			"target":34962
		},
		{
			"buffer":0,
			"byteLength":936,
			"byteOffset":7544,
			"target":34962
		},
		{
			"buffer":0,
			"byteLength":420,
			"byteOffset":8480,
			"target":34963
		},
		{
			"buffer":0,
			"byteLength":720,
			"byteOffset":8900,
			"target":34962
		},
		{
			"buffer":0,
			"byteLength":720,
			"byteOffset":9620,
			"target":34962
		},
		{
			"buffer":0,
			"byteLength":480,
			"byteOffset":10340,
			"target":34962
		},
		{
			"buffer":0,
			"byteLength":480,
			"byteOffset":10820,
			"target":34962
		},
		{
			"buffer":0,
			"byteLength":288,
			"byteOffset":11300,
			"target":34963
		}
	],
	"samplers":[
		{
			"magFilter":9729,
			"minFilter":9987
		}
	],
	"buffers":[
		{
			"byteLength":11588,
			"uri":"human1c.bin"
		}
	]
}
