{
	"asset":{
		"generator":"Khronos glTF Blender I/O v3.6.28",
		"version":"2.0"
	},
	"scene":0,
	"scenes":[
		{
			"name":"Scene",
			"nodes":[
				0
			]
		}
	],
	"nodes":[
		{
			"mesh":0,
			"name":"human2t"
		}
	],
	"materials":[
		{
			"extras":{
				"dirt":0,
				"recolor":"team",
				"recolor_ref":[
					0.039,
					0.651,
					0.996
				]
			},
			"name":"Material 1 (convert.png)",
			"pbrMetallicRoughness":{
				"baseColorTexture":{
					"index":0
				},
				"metallicFactor":0
			}
		},
		{
			"doubleSided":true,
			"extras":{
				"dirt":0,
				"recolor":"team",
				"recolor_ref":[
					0.039,
					0.651,
					0.996
				]
			},
			"name":"Material 2 (convert.png)",
			"pbrMetallicRoughness":{
				"baseColorTexture":{
					"index":1
				},
				"metallicFactor":0
			}
		}
	],
	"meshes":[
		{
			"name":"human2t",
			"primitives":[
				{
					"attributes":{
						"POSITION":0,
						"NORMAL":1,
						"TEXCOORD_0":2,
						"TEXCOORD_1":3
					},
					"indices":4,
					"material":0
				},
				{
					"attributes":{
						"POSITION":5,
						"NORMAL":6,
						"TEXCOORD_0":7,
						"TEXCOORD_1":8
					},
					"indices":9,
					"material":1
				}
			]
		}
	],
	"textures":[
		{
			"sampler":0,
			"source":0
		},
		{
			"sampler":0,
			"source":0
		}
	],
	"images":[
		{
			"mimeType":"image/png",
			"name":"convert",
			"uri":"convert.png"
		}
	],
	"accessors":[
		{
			"bufferView":0,
			"componentType":5126,
			"count":99,
			"max":[
				0.6777660250663757,
				1.6487820148468018,
				0.5208849906921387
			],
			"min":[
				-0.6224650144577026,
				-0.2004150003194809,
				-0.5233680009841919
			],
			"type":"VEC3"
		},
		{
			"bufferView":1,
			"componentType":5126,
			"count":99,
			"type":"VEC3"
		},
		{
			"bufferView":2,
			"componentType":5126,
			"count":99,
			"type":"VEC2"
		},
		{
			"bufferView":3,
			"componentType":5126,
			"count":99,
			"type":"VEC2"
		},
		{
			"bufferView":4,
			"componentType":5123,
			"count":456,
			"type":"SCALAR"
		},
		{
			"bufferView":5,
			"componentType":5126,
			"count":10,
			"max":[
				0.8419749736785889,
				1.1747599840164185,
				0.49810999631881714
			],
			"min":[
				0.22862300276756287,
				1.0829139947891235,
				-0.5005930066108704
			],
			"type":"VEC3"
		},
		{
			"bufferView":6,
			"componentType":5126,
			"count":10,
			"type":"VEC3"
		},
		{
			"bufferView":7,
			"componentType":5126,
			"count":10,
			"type":"VEC2"
		},
		{
			"bufferView":8,
			"componentType":5126,
			"count":10,
			"type":"VEC2"
		},
		{
			"bufferView":9,
			"componentType":5123,
			"count":24,
			"type":"SCALAR"
		}
	],
	"bufferViews":[
		{
			"buffer":0,
			"byteLength":1188,
			"byteOffset":0,
			"target":34962
		},
		{
			"buffer":0,
			"byteLength":1188,
			"byteOffset":1188,
			"target":34962
		},
		{
			"buffer":0,
			"byteLength":792,
			"byteOffset":2376,
			"target":34962
		},
		{
			"buffer":0,
			"byteLength":792,
			"byteOffset":3168,
			"target":34962
		},
		{
			"buffer":0,
			"byteLength":912,
			"byteOffset":3960,
			"target":34963
		},
		{
			"buffer":0,
			"byteLength":120,
			"byteOffset":4872,
			"target":34962
		},
		{
			"buffer":0,
			"byteLength":120,
			"byteOffset":4992,
			"target":34962
		},
		{
			"buffer":0,
			"byteLength":80,
			"byteOffset":5112,
			"target":34962
		},
		{
			"buffer":0,
			"byteLength":80,
			"byteOffset":5192,
			"target":34962
		},
		{
			"buffer":0,
			"byteLength":48,
			"byteOffset":5272,
			"target":34963
		}
	],
	"samplers":[
		{
			"magFilter":9729,
			"minFilter":9987
		}
	],
	"buffers":[
		{
			"byteLength":5320,
			"uri":"human2t.bin"
		}
	]
}
