{
	"asset":{
		"generator":"Khronos glTF Blender I/O v3.6.28",
		"version":"2.0"
	},
	"scene":0,
	"scenes":[
		{
			"name":"Scene",
			"nodes":[
				0
			]
		}
	],
	"nodes":[
		{
			"mesh":0,
			"name":"human2c1"
		}
	],
	"materials":[
		{
			"alphaMode":"BLEND",
			"doubleSided":true,
			"extras":{
				"dirt":0
			},
			"name":"Material 1 (human.png).011",
			"pbrMetallicRoughness":{
				"baseColorTexture":{
					"index":0
				},
				"metallicFactor":0
			}
		},
		{
			"alphaMode":"BLEND",
			"extras":{
				"dirt":0
			},
			"name":"Material 2 (human.png).001",
			"pbrMetallicRoughness":{
				"baseColorTexture":{
					"index":1
				},
				"metallicFactor":0
			}
		}
	],
	"meshes":[
		{
			"name":"human2c1.001",
			"primitives":[
				{
					"attributes":{
						"POSITION":0,
						"NORMAL":1,
						"TEXCOORD_0":2,
						"TEXCOORD_1":3
					},
					"indices":4,
					"material":0
				},
				{
					"attributes":{
						"POSITION":5,
						"NORMAL":6,
						"TEXCOORD_0":7,
						"TEXCOORD_1":8
					},
					"indices":9,
					"material":1
				}
			]
		}
	],
	"textures":[
		{
			"sampler":0,
			"source":0
		},
		{
			"sampler":0,
			"source":0
		}
	],
	"images":[
		{
			"mimeType":"image/png",
			"name":"objects",
			"uri":"objects.png"
		}
	],
	"accessors":[
		{
			"bufferView":0,
			"componentType":5126,
			"count":201,
			"max":[
				0.8049479722976685,
				1.7791279554367065,
				1
			],
			"min":[
				-0.978875994682312,
				-0.2011280059814453,
				-1
			],
			"type":"VEC3"
		},
		{
			"bufferView":1,
			"componentType":5126,
			"count":201,
			"type":"VEC3"
		},
		{
			"bufferView":2,
			"componentType":5126,
			"count":201,
			"type":"VEC2"
		},
		{
			"bufferView":3,
			"componentType":5126,
			"count":201,
			"type":"VEC2"
		},
		{
			"bufferView":4,
			"componentType":5123,
			"count":546,
			"type":"SCALAR"
		},
		{
			"bufferView":5,
			"componentType":5126,
			"count":12,
			"max":[
				0.9510570168495178,
				1.2622029781341553,
				0.80901700258255
			],
			"min":[
				0.47259199619293213,
				0.14436300098896027,
				-0.80901700258255
			],
			"type":"VEC3"
		},
		{
			"bufferView":6,
			"componentType":5126,
			"count":12,
			"type":"VEC3"
		},
		{
			"bufferView":7,
			"componentType":5126,
			"count":12,
			"type":"VEC2"
		},
		{
			"bufferView":8,
			"componentType":5126,
			"count":12,
			"type":"VEC2"
		},
		{
			"bufferView":9,
			"componentType":5123,
			"count":36,
			"type":"SCALAR"
		}
	],
	"bufferViews":[
		{
			"buffer":0,
			"byteLength":2412,
			"byteOffset":0,
			"target":34962
		},
		{
			"buffer":0,
			"byteLength":2412,
			"byteOffset":2412,
			"target":34962
		},
		{
			"buffer":0,
			"byteLength":1608,
			"byteOffset":4824,
			"target":34962
		},
		{
			"buffer":0,
			"byteLength":1608,
			"byteOffset":6432,
			"target":34962
		},
		{
			"buffer":0,
			"byteLength":1092,
			"byteOffset":8040,
			"target":34963
		},
		{
			"buffer":0,
			"byteLength":144,
			"byteOffset":9132,
			"target":34962
		},
		{
			"buffer":0,
			"byteLength":144,
			"byteOffset":9276,
			"target":34962
		},
		{
			"buffer":0,
			"byteLength":96,
			"byteOffset":9420,
			"target":34962
		},
		{
			"buffer":0,
			"byteLength":96,
			"byteOffset":9516,
			"target":34962
		},
		{
			"buffer":0,
			"byteLength":72,
			"byteOffset":9612,
			"target":34963
		}
	],
	"samplers":[
		{
			"magFilter":9729,
			"minFilter":9987
		}
	],
	"buffers":[
		{
			"byteLength":9684,
			"uri":"human2c1.bin"
		}
	]
}
