{
	"asset":{
		"generator":"Khronos glTF Blender I/O v4.2.57",
		"version":"2.0"
	},
	"scene":0,
	"scenes":[
		{
			"name":"Scene",
			"nodes":[
				0
			]
		}
	],
	"nodes":[
		{
			"mesh":0,
			"name":"human2c2"
		}
	],
	"materials":[
		{
			"alphaMode":"BLEND",
			"doubleSided":true,
			"extras":{
				"dirt":0
			},
			"name":"Material_NoDirt_Transparent.003",
			"pbrMetallicRoughness":{
				"baseColorTexture":{
					"index":0
				},
				"metallicFactor":0
			}
		},
		{
			"doubleSided":true,
			"extras":{
				"dirt":0,
				"tag":"suit"
			},
			"name":"Material_NoDirtSuit.003",
			"pbrMetallicRoughness":{
				"baseColorTexture":{
					"index":1
				},
				"metallicFactor":0
			}
		},
		{
			"extras":{
				"dirt":0
			},
			"name":"Material_NoDirtNoRecolor.010",
			"pbrMetallicRoughness":{
				"baseColorTexture":{
					"index":2
				},
				"metallicFactor":0
			}
		},
		{
			"doubleSided":true,
			"extras":{
				"dirt":0,
				"tag":"band"
			},
			"name":"Material_NoDirtBand.002",
			"pbrMetallicRoughness":{
				"baseColorTexture":{
					"index":3
				},
				"metallicFactor":0
			}
		}
	],
	"meshes":[
		{
			"name":"human2c2.002",
			"primitives":[
				{
					"attributes":{
						"POSITION":0,
						"NORMAL":1,
						"TEXCOORD_0":2,
						"TEXCOORD_1":3
					},
					"indices":4,
					"material":0
				},
				{
					"attributes":{
						"POSITION":5,
						"NORMAL":6,
						"TEXCOORD_0":7,
						"TEXCOORD_1":8
					},
					"indices":9,
					"material":1
				},
				{
					"attributes":{
						"POSITION":10,
						"NORMAL":11,
						"TEXCOORD_0":12,
						"TEXCOORD_1":13
					},
					"indices":14,
					"material":2
				},
				{
					"attributes":{
						"POSITION":15,
						"NORMAL":16,
						"TEXCOORD_0":17,
						"TEXCOORD_1":18
					},
					"indices":19,
					"material":3
				}
			]
		}
	],
	"textures":[
		{
			"sampler":0,
			"source":0
		},
		{
			"sampler":0,
			"source":0
		},
		{
			"sampler":0,
			"source":0
		},
		{
			"sampler":0,
			"source":0
		}
	],
	"images":[
		{
			"mimeType":"image/png",
			"name":"objects",
			"uri":"objects.png"
		}
	],
	"accessors":[
		{
			"bufferView":0,
			"componentType":5126,
			"count":14,
			"max":[
				0.9510570168495178,
				1.2622029781341553,
				0.80901700258255
			],
			"min":[
				0.47259199619293213,
				0.14436300098896027,
				-0.80901700258255
			],
			"type":"VEC3"
		},
		{
			"bufferView":1,
			"componentType":5126,
			"count":14,
			"type":"VEC3"
		},
		{
			"bufferView":2,
			"componentType":5126,
			"count":14,
			"type":"VEC2"
		},
		{
			"bufferView":3,
			"componentType":5126,
			"count":14,
			"type":"VEC2"
		},
		{
			"bufferView":4,
			"componentType":5123,
			"count":42,
			"type":"SCALAR"
		},
		{
			"bufferView":5,
			"componentType":5126,
			"count":157,
			"max":[
				0.8049479722976685,
				1.7791279554367065,
				1
			],
			"min":[
				-0.978875994682312,
				-0.2011280059814453,
				-1
			],
			"type":"VEC3"
		},
		{
			"bufferView":6,
			"componentType":5126,
			"count":157,
			"type":"VEC3"
		},
		{
			"bufferView":7,
			"componentType":5126,
			"count":157,
			"type":"VEC2"
		},
		{
			"bufferView":8,
			"componentType":5126,
			"count":157,
			"type":"VEC2"
		},
		{
			"bufferView":9,
			"componentType":5123,
			"count":300,
			"type":"SCALAR"
		},
		{
			"bufferView":10,
			"componentType":5126,
			"count":60,
			"max":[
				0.6777660250663757,
				1.5591349601745605,
				0.5208849906921387
			],
			"min":[
				-0.2230609953403473,
				-0.2004150003194809,
				-0.5233680009841919
			],
			"type":"VEC3"
		},
		{
			"bufferView":11,
			"componentType":5126,
			"count":60,
			"type":"VEC3"
		},
		{
			"bufferView":12,
			"componentType":5126,
			"count":60,
			"type":"VEC2"
		},
		{
			"bufferView":13,
			"componentType":5126,
			"count":60,
			"type":"VEC2"
		},
		{
			"bufferView":14,
			"componentType":5123,
			"count":288,
			"type":"SCALAR"
		},
		{
			"bufferView":15,
			"componentType":5126,
			"count":16,
			"max":[
				0.8045647144317627,
				1.7791279554367065,
				0.14378421008586884
			],
			"min":[
				-0.978875994682312,
				-0.2011280059814453,
				-0.14359045028686523
			],
			"type":"VEC3"
		},
		{
			"bufferView":16,
			"componentType":5126,
			"count":16,
			"type":"VEC3"
		},
		{
			"bufferView":17,
			"componentType":5126,
			"count":16,
			"type":"VEC2"
		},
		{
			"bufferView":18,
			"componentType":5126,
			"count":16,
			"type":"VEC2"
		},
		{
			"bufferView":19,
			"componentType":5123,
			"count":42,
			"type":"SCALAR"
		}
	],
	"bufferViews":[
		{
			"buffer":0,
			"byteLength":168,
			"byteOffset":0,
			"target":34962
		},
		{
			"buffer":0,
			"byteLength":168,
			"byteOffset":168,
			"target":34962
		},
		{
			"buffer":0,
			"byteLength":112,
			"byteOffset":336,
			"target":34962
		},
		{
			"buffer":0,
			"byteLength":112,
			"byteOffset":448,
			"target":34962
		},
		{
			"buffer":0,
			"byteLength":84,
			"byteOffset":560,
			"target":34963
		},
		{
			"buffer":0,
			"byteLength":1884,
			"byteOffset":644,
			"target":34962
		},
		{
			"buffer":0,
			"byteLength":1884,
			"byteOffset":2528,
			"target":34962
		},
		{
			"buffer":0,
			"byteLength":1256,
			"byteOffset":4412,
			"target":34962
		},
		{
			"buffer":0,
			"byteLength":1256,
			"byteOffset":5668,
			"target":34962
		},
		{
			"buffer":0,
			"byteLength":600,
			"byteOffset":6924,
			"target":34963
		},
		{
			"buffer":0,
			"byteLength":720,
			"byteOffset":7524,
			"target":34962
		},
		{
			"buffer":0,
			"byteLength":720,
			"byteOffset":8244,
			"target":34962
		},
		{
			"buffer":0,
			"byteLength":480,
			"byteOffset":8964,
			"target":34962
		},
		{
			"buffer":0,
			"byteLength":480,
			"byteOffset":9444,
			"target":34962
		},
		{
			"buffer":0,
			"byteLength":576,
			"byteOffset":9924,
			"target":34963
		},
		{
			"buffer":0,
			"byteLength":192,
			"byteOffset":10500,
			"target":34962
		},
		{
			"buffer":0,
			"byteLength":192,
			"byteOffset":10692,
			"target":34962
		},
		{
			"buffer":0,
			"byteLength":128,
			"byteOffset":10884,
			"target":34962
		},
		{
			"buffer":0,
			"byteLength":128,
			"byteOffset":11012,
			"target":34962
		},
		{
			"buffer":0,
			"byteLength":84,
			"byteOffset":11140,
			"target":34963
		}
	],
	"samplers":[
		{
			"magFilter":9729,
			"minFilter":9987
		}
	],
	"buffers":[
		{
			"byteLength":11224,
			"uri":"human2c2.bin"
		}
	]
}
