{
	"asset":{
		"generator":"Khronos glTF Blender I/O v4.2.57",
		"version":"2.0"
	},
	"scene":0,
	"scenes":[
		{
			"name":"Scene",
			"nodes":[
				0
			]
		}
	],
	"nodes":[
		{
			"mesh":0,
			"name":"human4l"
		}
	],
	"materials":[
		{
			"doubleSided":true,
			"extras":{
				"dirt":0,
				"tag":"suit"
			},
			"name":"Material_NoDirtSuit",
			"pbrMetallicRoughness":{
				"baseColorTexture":{
					"index":0
				},
				"metallicFactor":0
			}
		},
		{
			"alphaMode":"BLEND",
			"extras":{
				"dirt":1
			},
			"name":"Material_NoRecolor",
			"pbrMetallicRoughness":{
				"baseColorTexture":{
					"index":1
				},
				"metallicFactor":0
			}
		},
		{
			"extras":{
				"dirt":0,
				"recolor":"team",
				"recolor_ref":[
					0.039000000804662704,
					0.6510000228881836,
					0.9959999918937683
				]
			},
			"name":"Material_NoDirt",
			"pbrMetallicRoughness":{
				"baseColorTexture":{
					"index":2
				},
				"metallicFactor":0
			}
		},
		{
			"doubleSided":true,
			"extras":{
				"dirt":0,
				"tag":"band"
			},
			"name":"Material_NoDirtBand",
			"pbrMetallicRoughness":{
				"baseColorTexture":{
					"index":3
				},
				"metallicFactor":0
			}
		}
	],
	"meshes":[
		{
			"name":"human4l.001",
			"primitives":[
				{
					"attributes":{
						"POSITION":0,
						"NORMAL":1,
						"TEXCOORD_0":2,
						"TEXCOORD_1":3
					},
					"indices":4,
					"material":0
				},
				{
					"attributes":{
						"POSITION":5,
						"NORMAL":6,
						"TEXCOORD_0":7,
						"TEXCOORD_1":8
					},
					"indices":9,
					"material":1
				},
				{
					"attributes":{
						"POSITION":10,
						"NORMAL":11,
						"TEXCOORD_0":12,
						"TEXCOORD_1":13
					},
					"indices":14,
					"material":2
				},
				{
					"attributes":{
						"POSITION":15,
						"NORMAL":16,
						"TEXCOORD_0":17,
						"TEXCOORD_1":18
					},
					"indices":19,
					"material":3
				}
			]
		}
	],
	"textures":[
		{
			"sampler":0,
			"source":0
		},
		{
			"sampler":0,
			"source":0
		},
		{
			"sampler":0,
			"source":0
		},
		{
			"sampler":0,
			"source":0
		}
	],
	"images":[
		{
			"mimeType":"image/png",
			"name":"objects",
			"uri":"objects.png"
		}
	],
	"accessors":[
		{
			"bufferView":0,
			"componentType":5126,
			"count":122,
			"max":[
				1.4377269744873047,
				0.41927701234817505,
				0.3930149972438812
			],
			"min":[
				-0.185357004404068,
				-0.400395005941391,
				-0.4266569912433624
			],
			"type":"VEC3"
		},
		{
			"bufferView":1,
			"componentType":5126,
			"count":122,
			"type":"VEC3"
		},
		{
			"bufferView":2,
			"componentType":5126,
			"count":122,
			"type":"VEC2"
		},
		{
			"bufferView":3,
			"componentType":5126,
			"count":122,
			"type":"VEC2"
		},
		{
			"bufferView":4,
			"componentType":5123,
			"count":240,
			"type":"SCALAR"
		},
		{
			"bufferView":5,
			"componentType":5126,
			"count":4,
			"max":[
				1.2333450317382812,
				0.20924699306488037,
				0.38001999258995056
			],
			"min":[
				0.6339160203933716,
				-0.1907529979944229,
				0.35384801030158997
			],
			"type":"VEC3"
		},
		{
			"bufferView":6,
			"componentType":5126,
			"count":4,
			"type":"VEC3"
		},
		{
			"bufferView":7,
			"componentType":5126,
			"count":4,
			"type":"VEC2"
		},
		{
			"bufferView":8,
			"componentType":5126,
			"count":4,
			"type":"VEC2"
		},
		{
			"bufferView":9,
			"componentType":5123,
			"count":6,
			"type":"SCALAR"
		},
		{
			"bufferView":10,
			"componentType":5126,
			"count":16,
			"max":[
				1.2333450317382812,
				0.269089013338089,
				0.38001999258995056
			],
			"min":[
				0.6251140236854553,
				-0.25063401460647583,
				0.15226399898529053
			],
			"type":"VEC3"
		},
		{
			"bufferView":11,
			"componentType":5126,
			"count":16,
			"type":"VEC3"
		},
		{
			"bufferView":12,
			"componentType":5126,
			"count":16,
			"type":"VEC2"
		},
		{
			"bufferView":13,
			"componentType":5126,
			"count":16,
			"type":"VEC2"
		},
		{
			"bufferView":14,
			"componentType":5123,
			"count":24,
			"type":"SCALAR"
		},
		{
			"bufferView":15,
			"componentType":5126,
			"count":20,
			"max":[
				0.25290507078170776,
				0.41403499245643616,
				0.38777288794517517
			],
			"min":[
				0.12322685122489929,
				-0.3951529860496521,
				-0.42141497135162354
			],
			"type":"VEC3"
		},
		{
			"bufferView":16,
			"componentType":5126,
			"count":20,
			"type":"VEC3"
		},
		{
			"bufferView":17,
			"componentType":5126,
			"count":20,
			"type":"VEC2"
		},
		{
			"bufferView":18,
			"componentType":5126,
			"count":20,
			"type":"VEC2"
		},
		{
			"bufferView":19,
			"componentType":5123,
			"count":48,
			"type":"SCALAR"
		}
	],
	"bufferViews":[
		{
			"buffer":0,
			"byteLength":1464,
			"byteOffset":0,
			"target":34962
		},
		{
			"buffer":0,
			"byteLength":1464,
			"byteOffset":1464,
			"target":34962
		},
		{
			"buffer":0,
			"byteLength":976,
			"byteOffset":2928,
			"target":34962
		},
		{
			"buffer":0,
			"byteLength":976,
			"byteOffset":3904,
			"target":34962
		},
		{
			"buffer":0,
			"byteLength":480,
			"byteOffset":4880,
			"target":34963
		},
		{
			"buffer":0,
			"byteLength":48,
			"byteOffset":5360,
			"target":34962
		},
		{
			"buffer":0,
			"byteLength":48,
			"byteOffset":5408,
			"target":34962
		},
		{
			"buffer":0,
			"byteLength":32,
			"byteOffset":5456,
			"target":34962
		},
		{
			"buffer":0,
			"byteLength":32,
			"byteOffset":5488,
			"target":34962
		},
		{
			"buffer":0,
			"byteLength":12,
			"byteOffset":5520,
			"target":34963
		},
		{
			"buffer":0,
			"byteLength":192,
			"byteOffset":5532,
			"target":34962
		},
		{
			"buffer":0,
			"byteLength":192,
			"byteOffset":5724,
			"target":34962
		},
		{
			"buffer":0,
			"byteLength":128,
			"byteOffset":5916,
			"target":34962
		},
		{
			"buffer":0,
			"byteLength":128,
			"byteOffset":6044,
			"target":34962
		},
		{
			"buffer":0,
			"byteLength":48,
			"byteOffset":6172,
			"target":34963
		},
		{
			"buffer":0,
			"byteLength":240,
			"byteOffset":6220,
			"target":34962
		},
		{
			"buffer":0,
			"byteLength":240,
			"byteOffset":6460,
			"target":34962
		},
		{
			"buffer":0,
			"byteLength":160,
			"byteOffset":6700,
			"target":34962
		},
		{
			"buffer":0,
			"byteLength":160,
			"byteOffset":6860,
			"target":34962
		},
		{
			"buffer":0,
			"byteLength":96,
			"byteOffset":7020,
			"target":34963
		}
	],
	"samplers":[
		{
			"magFilter":9729,
			"minFilter":9987
		}
	],
	"buffers":[
		{
			"byteLength":7116,
			"uri":"human4l.bin"
		}
	]
}
