{
	"asset":{
		"generator":"Khronos glTF Blender I/O v3.6.27",
		"version":"2.0"
	},
	"scene":0,
	"scenes":[
		{
			"name":"Scene",
			"nodes":[
				0
			]
		}
	],
	"nodes":[
		{
			"mesh":0,
			"name":"human1c"
		}
	],
	"materials":[
		{
			"extras":{
				"dirt":0
			},
			"name":"Material 1 (human)",
			"pbrMetallicRoughness":{
				"baseColorTexture":{
					"index":0
				},
				"metallicFactor":0
			}
		},
		{
			"extras":{
				"dirt":1,
				"recolor":"team",
				"recolor_ref":[
					0.039,
					0.651,
					0.996
				]
			},
			"name":"Material 2 (bag)",
			"pbrMetallicRoughness":{
				"baseColorTexture":{
					"index":1
				},
				"metallicFactor":0
			}
		}
	],
	"meshes":[
		{
			"name":"human1c",
			"primitives":[
				{
					"attributes":{
						"POSITION":0,
						"NORMAL":1,
						"TEXCOORD_0":2,
						"TEXCOORD_1":3
					},
					"indices":4,
					"material":0
				},
				{
					"attributes":{
						"POSITION":5,
						"NORMAL":6,
						"TEXCOORD_0":7,
						"TEXCOORD_1":8
					},
					"indices":9,
					"material":1
				}
			]
		}
	],
	"textures":[
		{
			"sampler":0,
			"source":0
		},
		{
			"sampler":0,
			"source":0
		}
	],
	"images":[
		{
			"mimeType":"image/png",
			"name":"objects",
			"uri":"objects.png"
		}
	],
	"accessors":[
		{
			"bufferView":0,
			"componentType":5126,
			"count":145,
			"max":[
				0.9835879802703857,
				2.847939968109131,
				1.4496819972991943
			],
			"min":[
				-2.268527030944824,
				-0.5426449775695801,
				-1.4903299808502197
			],
			"type":"VEC3"
		},
		{
			"bufferView":1,
			"componentType":5126,
			"count":145,
			"type":"VEC3"
		},
		{
			"bufferView":2,
			"componentType":5126,
			"count":145,
			"type":"VEC2"
		},
		{
			"bufferView":3,
			"componentType":5126,
			"count":145,
			"type":"VEC2"
		},
		{
			"bufferView":4,
			"componentType":5123,
			"count":384,
			"type":"SCALAR"
		},
		{
			"bufferView":5,
			"componentType":5126,
			"count":117,
			"max":[
				-0.952243983745575,
				3.9948179721832275,
				1.2160040140151978
			],
			"min":[
				-2.1833419799804688,
				-0.7367029786109924,
				-1.2637399435043335
			],
			"type":"VEC3"
		},
		{
			"bufferView":6,
			"componentType":5126,
			"count":117,
			"type":"VEC3"
		},
		{
			"bufferView":7,
			"componentType":5126,
			"count":117,
			"type":"VEC2"
		},
		{
			"bufferView":8,
			"componentType":5126,
			"count":117,
			"type":"VEC2"
		},
		{
			"bufferView":9,
			"componentType":5123,
			"count":210,
			"type":"SCALAR"
		}
	],
	"bufferViews":[
		{
			"buffer":0,
			"byteLength":1740,
			"byteOffset":0,
			"target":34962
		},
		{
			"buffer":0,
			"byteLength":1740,
			"byteOffset":1740,
			"target":34962
		},
		{
			"buffer":0,
			"byteLength":1160,
			"byteOffset":3480,
			"target":34962
		},
		{
			"buffer":0,
			"byteLength":1160,
			"byteOffset":4640,
			"target":34962
		},
		{
			"buffer":0,
			"byteLength":768,
			"byteOffset":5800,
			"target":34963
		},
		{
			"buffer":0,
			"byteLength":1404,
			"byteOffset":6568,
			"target":34962
		},
		{
			"buffer":0,
			"byteLength":1404,
			"byteOffset":7972,
			"target":34962
		},
		{
			"buffer":0,
			"byteLength":936,
			"byteOffset":9376,
			"target":34962
		},
		{
			"buffer":0,
			"byteLength":936,
			"byteOffset":10312,
			"target":34962
		},
		{
			"buffer":0,
			"byteLength":420,
			"byteOffset":11248,
			"target":34963
		}
	],
	"samplers":[
		{
			"magFilter":9729,
			"minFilter":9987
		}
	],
	"buffers":[
		{
			"byteLength":11668,
			"uri":"human1c.bin"
		}
	]
}
