{
	"asset":{
		"generator":"Khronos glTF Blender I/O v3.6.28",
		"version":"2.0"
	},
	"scene":0,
	"scenes":[
		{
			"name":"Scene",
			"nodes":[
				0
			]
		}
	],
	"nodes":[
		{
			"mesh":0,
			"name":"huston1"
		}
	],
	"materials":[
		{
			"alphaMode":"BLEND",
			"extras":{
				"dirt":1,
				"recolor_ref":[
					0.039000000804662704,
					0.6510000228881836,
					0.9959999918937683
				],
				"recolor":"team"
			},
			"name":"Material",
			"pbrMetallicRoughness":{
				"baseColorTexture":{
					"index":0
				},
				"metallicFactor":0
			}
		},
		{
			"doubleSided":true,
			"extras":{
				"dirt":1,
				"recolor":"team",
				"recolor_ref":[
					0.039000000804662704,
					0.6510000228881836,
					0.9959999918937683
				]
			},
			"name":"Material_DoubleSide",
			"pbrMetallicRoughness":{
				"baseColorTexture":{
					"index":1
				},
				"metallicFactor":0
			}
		},
		{
			"extras":{
				"dirt":0,
				"recolor":"team",
				"recolor_ref":[
					0.039000000804662704,
					0.6510000228881836,
					0.9959999918937683
				]
			},
			"name":"Material_NoDirt",
			"pbrMetallicRoughness":{
				"baseColorTexture":{
					"index":2
				},
				"metallicFactor":0
			}
		}
	],
	"meshes":[
		{
			"name":"huston1.005",
			"primitives":[
				{
					"attributes":{
						"POSITION":0,
						"NORMAL":1,
						"TEXCOORD_0":2,
						"TEXCOORD_1":3
					},
					"indices":4,
					"material":0
				},
				{
					"attributes":{
						"POSITION":5,
						"NORMAL":6,
						"TEXCOORD_0":7,
						"TEXCOORD_1":8
					},
					"indices":9,
					"material":1
				},
				{
					"attributes":{
						"POSITION":10,
						"NORMAL":11,
						"TEXCOORD_0":12,
						"TEXCOORD_1":13
					},
					"indices":14,
					"material":2
				}
			]
		}
	],
	"textures":[
		{
			"sampler":0,
			"source":0
		},
		{
			"sampler":0,
			"source":0
		},
		{
			"sampler":0,
			"source":0
		}
	],
	"images":[
		{
			"mimeType":"image/png",
			"name":"objects",
			"uri":"objects.png"
		}
	],
	"accessors":[
		{
			"bufferView":0,
			"componentType":5126,
			"count":295,
			"max":[
				30.0000057220459,
				39,
				65.00000762939453
			],
			"min":[
				-30.0000057220459,
				-1.9999990463256836,
				-65.00000762939453
			],
			"type":"VEC3"
		},
		{
			"bufferView":1,
			"componentType":5126,
			"count":295,
			"type":"VEC3"
		},
		{
			"bufferView":2,
			"componentType":5126,
			"count":295,
			"type":"VEC2"
		},
		{
			"bufferView":3,
			"componentType":5126,
			"count":295,
			"type":"VEC2"
		},
		{
			"bufferView":4,
			"componentType":5123,
			"count":486,
			"type":"SCALAR"
		},
		{
			"bufferView":5,
			"componentType":5126,
			"count":24,
			"max":[
				20.0000057220459,
				18.000001907348633,
				54.99999237060547
			],
			"min":[
				-20.000001907348633,
				17.999998092651367,
				-55
			],
			"type":"VEC3"
		},
		{
			"bufferView":6,
			"componentType":5126,
			"count":24,
			"type":"VEC3"
		},
		{
			"bufferView":7,
			"componentType":5126,
			"count":24,
			"type":"VEC2"
		},
		{
			"bufferView":8,
			"componentType":5126,
			"count":24,
			"type":"VEC2"
		},
		{
			"bufferView":9,
			"componentType":5123,
			"count":60,
			"type":"SCALAR"
		},
		{
			"bufferView":10,
			"componentType":5126,
			"count":328,
			"max":[
				25,
				18,
				55
			],
			"min":[
				-10,
				-2,
				-55.77777862548828
			],
			"type":"VEC3"
		},
		{
			"bufferView":11,
			"componentType":5126,
			"count":328,
			"type":"VEC3"
		},
		{
			"bufferView":12,
			"componentType":5126,
			"count":328,
			"type":"VEC2"
		},
		{
			"bufferView":13,
			"componentType":5126,
			"count":328,
			"type":"VEC2"
		},
		{
			"bufferView":14,
			"componentType":5123,
			"count":552,
			"type":"SCALAR"
		}
	],
	"bufferViews":[
		{
			"buffer":0,
			"byteLength":3540,
			"byteOffset":0,
			"target":34962
		},
		{
			"buffer":0,
			"byteLength":3540,
			"byteOffset":3540,
			"target":34962
		},
		{
			"buffer":0,
			"byteLength":2360,
			"byteOffset":7080,
			"target":34962
		},
		{
			"buffer":0,
			"byteLength":2360,
			"byteOffset":9440,
			"target":34962
		},
		{
			"buffer":0,
			"byteLength":972,
			"byteOffset":11800,
			"target":34963
		},
		{
			"buffer":0,
			"byteLength":288,
			"byteOffset":12772,
			"target":34962
		},
		{
			"buffer":0,
			"byteLength":288,
			"byteOffset":13060,
			"target":34962
		},
		{
			"buffer":0,
			"byteLength":192,
			"byteOffset":13348,
			"target":34962
		},
		{
			"buffer":0,
			"byteLength":192,
			"byteOffset":13540,
			"target":34962
		},
		{
			"buffer":0,
			"byteLength":120,
			"byteOffset":13732,
			"target":34963
		},
		{
			"buffer":0,
			"byteLength":3936,
			"byteOffset":13852,
			"target":34962
		},
		{
			"buffer":0,
			"byteLength":3936,
			"byteOffset":17788,
			"target":34962
		},
		{
			"buffer":0,
			"byteLength":2624,
			"byteOffset":21724,
			"target":34962
		},
		{
			"buffer":0,
			"byteLength":2624,
			"byteOffset":24348,
			"target":34962
		},
		{
			"buffer":0,
			"byteLength":1104,
			"byteOffset":26972,
			"target":34963
		}
	],
	"samplers":[
		{
			"magFilter":9729,
			"minFilter":9987
		}
	],
	"buffers":[
		{
			"byteLength":28076,
			"uri":"huston1.bin"
		}
	]
}
