{
	"asset":{
		"generator":"Khronos glTF Blender I/O v4.2.57",
		"version":"2.0"
	},
	"scene":0,
	"scenes":[
		{
			"name":"Scene",
			"nodes":[
				0
			]
		}
	],
	"nodes":[
		{
			"mesh":0,
			"name":"huston1"
		}
	],
	"materials":[
		{
			"extras":{
				"dirt":1,
				"recolor_ref":[
					0.039000000804662704,
					0.6510000228881836,
					0.9959999918937683
				],
				"recolor":"team"
			},
			"name":"Material",
			"pbrMetallicRoughness":{
				"baseColorTexture":{
					"index":0
				},
				"metallicFactor":0
			}
		},
		{
			"doubleSided":true,
			"extras":{
				"dirt":1,
				"recolor":"team",
				"recolor_ref":[
					0.039000000804662704,
					0.6510000228881836,
					0.9959999918937683
				]
			},
			"name":"Material_DoubleSide.001",
			"pbrMetallicRoughness":{
				"baseColorTexture":{
					"index":1
				},
				"metallicFactor":0
			}
		},
		{
			"extras":{
				"dirt":0,
				"recolor":"team",
				"recolor_ref":[
					0.039000000804662704,
					0.6510000228881836,
					0.9959999918937683
				]
			},
			"name":"Material_NoDirt.001",
			"pbrMetallicRoughness":{
				"baseColorTexture":{
					"index":2
				},
				"metallicFactor":0
			}
		},
		{
			"alphaMode":"BLEND",
			"extras":{
				"dirt":0
			},
			"name":"Material_NoDirt_Transparent",
			"pbrMetallicRoughness":{
				"baseColorTexture":{
					"index":3
				},
				"metallicFactor":0
			}
		}
	],
	"meshes":[
		{
			"name":"huston1.005",
			"primitives":[
				{
					"attributes":{
						"POSITION":0,
						"NORMAL":1,
						"TEXCOORD_0":2,
						"TEXCOORD_1":3
					},
					"indices":4,
					"material":0
				},
				{
					"attributes":{
						"POSITION":5,
						"NORMAL":6,
						"TEXCOORD_0":7,
						"TEXCOORD_1":8
					},
					"indices":9,
					"material":1
				},
				{
					"attributes":{
						"POSITION":10,
						"NORMAL":11,
						"TEXCOORD_0":12,
						"TEXCOORD_1":13
					},
					"indices":14,
					"material":2
				},
				{
					"attributes":{
						"POSITION":15,
						"NORMAL":16,
						"TEXCOORD_0":17,
						"TEXCOORD_1":18
					},
					"indices":19,
					"material":3
				}
			]
		}
	],
	"textures":[
		{
			"sampler":0,
			"source":0
		},
		{
			"sampler":0,
			"source":0
		},
		{
			"sampler":0,
			"source":0
		},
		{
			"sampler":0,
			"source":0
		}
	],
	"images":[
		{
			"mimeType":"image/png",
			"name":"objects",
			"uri":"objects.png"
		}
	],
	"accessors":[
		{
			"bufferView":0,
			"componentType":5126,
			"count":263,
			"max":[
				30.0000057220459,
				39,
				65.00000762939453
			],
			"min":[
				-30.0000057220459,
				-1.9999990463256836,
				-65.00000762939453
			],
			"type":"VEC3"
		},
		{
			"bufferView":1,
			"componentType":5126,
			"count":263,
			"type":"VEC3"
		},
		{
			"bufferView":2,
			"componentType":5126,
			"count":263,
			"type":"VEC2"
		},
		{
			"bufferView":3,
			"componentType":5126,
			"count":263,
			"type":"VEC2"
		},
		{
			"bufferView":4,
			"componentType":5123,
			"count":438,
			"type":"SCALAR"
		},
		{
			"bufferView":5,
			"componentType":5126,
			"count":24,
			"max":[
				20.0000057220459,
				18.000001907348633,
				54.99999237060547
			],
			"min":[
				-20.000001907348633,
				17.999998092651367,
				-55
			],
			"type":"VEC3"
		},
		{
			"bufferView":6,
			"componentType":5126,
			"count":24,
			"type":"VEC3"
		},
		{
			"bufferView":7,
			"componentType":5126,
			"count":24,
			"type":"VEC2"
		},
		{
			"bufferView":8,
			"componentType":5126,
			"count":24,
			"type":"VEC2"
		},
		{
			"bufferView":9,
			"componentType":5123,
			"count":60,
			"type":"SCALAR"
		},
		{
			"bufferView":10,
			"componentType":5126,
			"count":328,
			"max":[
				25,
				18,
				55
			],
			"min":[
				-10,
				-2,
				-55.77777862548828
			],
			"type":"VEC3"
		},
		{
			"bufferView":11,
			"componentType":5126,
			"count":328,
			"type":"VEC3"
		},
		{
			"bufferView":12,
			"componentType":5126,
			"count":328,
			"type":"VEC2"
		},
		{
			"bufferView":13,
			"componentType":5126,
			"count":328,
			"type":"VEC2"
		},
		{
			"bufferView":14,
			"componentType":5123,
			"count":552,
			"type":"SCALAR"
		},
		{
			"bufferView":15,
			"componentType":5126,
			"count":32,
			"max":[
				24.500003814697266,
				16,
				52
			],
			"min":[
				14.999999046325684,
				5,
				-49.999996185302734
			],
			"type":"VEC3"
		},
		{
			"bufferView":16,
			"componentType":5126,
			"count":32,
			"type":"VEC3"
		},
		{
			"bufferView":17,
			"componentType":5126,
			"count":32,
			"type":"VEC2"
		},
		{
			"bufferView":18,
			"componentType":5126,
			"count":32,
			"type":"VEC2"
		},
		{
			"bufferView":19,
			"componentType":5123,
			"count":48,
			"type":"SCALAR"
		}
	],
	"bufferViews":[
		{
			"buffer":0,
			"byteLength":3156,
			"byteOffset":0,
			"target":34962
		},
		{
			"buffer":0,
			"byteLength":3156,
			"byteOffset":3156,
			"target":34962
		},
		{
			"buffer":0,
			"byteLength":2104,
			"byteOffset":6312,
			"target":34962
		},
		{
			"buffer":0,
			"byteLength":2104,
			"byteOffset":8416,
			"target":34962
		},
		{
			"buffer":0,
			"byteLength":876,
			"byteOffset":10520,
			"target":34963
		},
		{
			"buffer":0,
			"byteLength":288,
			"byteOffset":11396,
			"target":34962
		},
		{
			"buffer":0,
			"byteLength":288,
			"byteOffset":11684,
			"target":34962
		},
		{
			"buffer":0,
			"byteLength":192,
			"byteOffset":11972,
			"target":34962
		},
		{
			"buffer":0,
			"byteLength":192,
			"byteOffset":12164,
			"target":34962
		},
		{
			"buffer":0,
			"byteLength":120,
			"byteOffset":12356,
			"target":34963
		},
		{
			"buffer":0,
			"byteLength":3936,
			"byteOffset":12476,
			"target":34962
		},
		{
			"buffer":0,
			"byteLength":3936,
			"byteOffset":16412,
			"target":34962
		},
		{
			"buffer":0,
			"byteLength":2624,
			"byteOffset":20348,
			"target":34962
		},
		{
			"buffer":0,
			"byteLength":2624,
			"byteOffset":22972,
			"target":34962
		},
		{
			"buffer":0,
			"byteLength":1104,
			"byteOffset":25596,
			"target":34963
		},
		{
			"buffer":0,
			"byteLength":384,
			"byteOffset":26700,
			"target":34962
		},
		{
			"buffer":0,
			"byteLength":384,
			"byteOffset":27084,
			"target":34962
		},
		{
			"buffer":0,
			"byteLength":256,
			"byteOffset":27468,
			"target":34962
		},
		{
			"buffer":0,
			"byteLength":256,
			"byteOffset":27724,
			"target":34962
		},
		{
			"buffer":0,
			"byteLength":96,
			"byteOffset":27980,
			"target":34963
		}
	],
	"samplers":[
		{
			"magFilter":9729,
			"minFilter":9987
		}
	],
	"buffers":[
		{
			"byteLength":28076,
			"uri":"huston1.bin"
		}
	]
}
