{
	"asset":{
		"generator":"Khronos glTF Blender I/O v3.6.28",
		"version":"2.0"
	},
	"scene":0,
	"scenes":[
		{
			"name":"Scene",
			"nodes":[
				0
			]
		}
	],
	"nodes":[
		{
			"mesh":0,
			"name":"keyd"
		}
	],
	"materials":[
		{
			"alphaMode":"BLEND",
			"extras":{
				"dirt":1
			},
			"name":"Material_NoRecolor",
			"pbrMetallicRoughness":{
				"baseColorTexture":{
					"index":0
				},
				"metallicFactor":0
			}
		}
	],
	"meshes":[
		{
			"name":"keyd",
			"primitives":[
				{
					"attributes":{
						"POSITION":0,
						"NORMAL":1,
						"TEXCOORD_0":2,
						"TEXCOORD_1":3
					},
					"indices":4,
					"material":0
				}
			]
		}
	],
	"textures":[
		{
			"sampler":0,
			"source":0
		}
	],
	"images":[
		{
			"mimeType":"image/png",
			"name":"objects",
			"uri":"objects.png"
		}
	],
	"accessors":[
		{
			"bufferView":0,
			"componentType":5126,
			"count":62,
			"max":[
				1,
				2,
				0.9510570168495178
			],
			"min":[
				-1,
				0,
				-0.9510570168495178
			],
			"type":"VEC3"
		},
		{
			"bufferView":1,
			"componentType":5126,
			"count":62,
			"type":"VEC3"
		},
		{
			"bufferView":2,
			"componentType":5126,
			"count":62,
			"type":"VEC2"
		},
		{
			"bufferView":3,
			"componentType":5126,
			"count":62,
			"type":"VEC2"
		},
		{
			"bufferView":4,
			"componentType":5123,
			"count":120,
			"type":"SCALAR"
		}
	],
	"bufferViews":[
		{
			"buffer":0,
			"byteLength":744,
			"byteOffset":0,
			"target":34962
		},
		{
			"buffer":0,
			"byteLength":744,
			"byteOffset":744,
			"target":34962
		},
		{
			"buffer":0,
			"byteLength":496,
			"byteOffset":1488,
			"target":34962
		},
		{
			"buffer":0,
			"byteLength":496,
			"byteOffset":1984,
			"target":34962
		},
		{
			"buffer":0,
			"byteLength":240,
			"byteOffset":2480,
			"target":34963
		}
	],
	"samplers":[
		{
			"magFilter":9729,
			"minFilter":9987
		}
	],
	"buffers":[
		{
			"byteLength":2720,
			"uri":"keyd.bin"
		}
	]
}
