{
	"asset":{
		"generator":"Khronos glTF Blender I/O v3.6.28",
		"version":"2.0"
	},
	"scene":0,
	"scenes":[
		{
			"name":"Scene",
			"nodes":[
				0
			]
		}
	],
	"nodes":[
		{
			"mesh":0,
			"name":"lem1t"
		}
	],
	"materials":[
		{
			"extras":{
				"dirt":1,
				"recolor":"team",
				"recolor_ref":[
					0.039,
					0.651,
					0.996
				]
			},
			"name":"Material_Darken",
			"pbrMetallicRoughness":{
				"baseColorFactor":[
					0,
					0,
					0,
					1
				],
				"baseColorTexture":{
					"index":0
				},
				"metallicFactor":0
			}
		},
		{
			"extras":{
				"dirt":1,
				"recolor":"team",
				"recolor_ref":[
					0.039,
					0.651,
					0.996
				]
			},
			"name":"Material_Shaded",
			"pbrMetallicRoughness":{
				"baseColorFactor":[
					0.30000001192092896,
					0.30000001192092896,
					0.30000001192092896,
					1
				],
				"baseColorTexture":{
					"index":1
				},
				"metallicFactor":0
			}
		},
		{
			"extras":{
				"dirt":1,
				"recolor":"team",
				"recolor_ref":[
					0.039,
					0.651,
					0.996
				]
			},
			"name":"Material 3",
			"pbrMetallicRoughness":{
				"baseColorFactor":[
					0,
					0,
					0,
					1
				],
				"metallicFactor":0
			}
		},
		{
			"alphaMode":"BLEND",
			"extras":{
				"dirt":1,
				"recolor_ref":[
					0.039000000804662704,
					0.6510000228881836,
					0.9959999918937683
				],
				"recolor":"team"
			},
			"name":"Material",
			"pbrMetallicRoughness":{
				"baseColorTexture":{
					"index":2
				},
				"metallicFactor":0
			}
		}
	],
	"meshes":[
		{
			"name":"lem1t.001",
			"primitives":[
				{
					"attributes":{
						"POSITION":0,
						"NORMAL":1,
						"TEXCOORD_0":2,
						"TEXCOORD_1":3
					},
					"indices":4,
					"material":0
				},
				{
					"attributes":{
						"POSITION":5,
						"NORMAL":6,
						"TEXCOORD_0":7,
						"TEXCOORD_1":8
					},
					"indices":9,
					"material":1
				},
				{
					"attributes":{
						"POSITION":10,
						"NORMAL":11,
						"TEXCOORD_0":12,
						"TEXCOORD_1":13
					},
					"indices":14,
					"material":2
				},
				{
					"attributes":{
						"POSITION":15,
						"NORMAL":16,
						"TEXCOORD_0":17,
						"TEXCOORD_1":18
					},
					"indices":19,
					"material":3
				}
			]
		}
	],
	"textures":[
		{
			"sampler":0,
			"source":0
		},
		{
			"sampler":0,
			"source":0
		},
		{
			"sampler":0,
			"source":0
		}
	],
	"images":[
		{
			"mimeType":"image/png",
			"name":"objects",
			"uri":"objects.png"
		}
	],
	"accessors":[
		{
			"bufferView":0,
			"componentType":5126,
			"count":50,
			"max":[
				3.463913917541504,
				2.5048201084136963,
				2.294426918029785
			],
			"min":[
				-3.3695340156555176,
				0.4940190017223358,
				-2.2880780696868896
			],
			"type":"VEC3"
		},
		{
			"bufferView":1,
			"componentType":5126,
			"count":50,
			"type":"VEC3"
		},
		{
			"bufferView":2,
			"componentType":5126,
			"count":50,
			"type":"VEC2"
		},
		{
			"bufferView":3,
			"componentType":5126,
			"count":50,
			"type":"VEC2"
		},
		{
			"bufferView":4,
			"componentType":5123,
			"count":60,
			"type":"SCALAR"
		},
		{
			"bufferView":5,
			"componentType":5126,
			"count":24,
			"max":[
				3.3507330417633057,
				4.997941017150879,
				2.2886829376220703
			],
			"min":[
				-4.0064592361450195,
				1.5311349630355835,
				-2.2880780696868896
			],
			"type":"VEC3"
		},
		{
			"bufferView":6,
			"componentType":5126,
			"count":24,
			"type":"VEC3"
		},
		{
			"bufferView":7,
			"componentType":5126,
			"count":24,
			"type":"VEC2"
		},
		{
			"bufferView":8,
			"componentType":5126,
			"count":24,
			"type":"VEC2"
		},
		{
			"bufferView":9,
			"componentType":5123,
			"count":30,
			"type":"SCALAR"
		},
		{
			"bufferView":10,
			"componentType":5126,
			"count":24,
			"max":[
				1.7132869958877563,
				4.255521774291992,
				4.001669883728027
			],
			"min":[
				-3.276689052581787,
				2.918428897857666,
				-4.010402202606201
			],
			"type":"VEC3"
		},
		{
			"bufferView":11,
			"componentType":5126,
			"count":24,
			"type":"VEC3"
		},
		{
			"bufferView":12,
			"componentType":5126,
			"count":24,
			"type":"VEC2"
		},
		{
			"bufferView":13,
			"componentType":5126,
			"count":24,
			"type":"VEC2"
		},
		{
			"bufferView":14,
			"componentType":5123,
			"count":36,
			"type":"SCALAR"
		},
		{
			"bufferView":15,
			"componentType":5126,
			"count":178,
			"max":[
				4.009492874145508,
				6,
				4.001669883728027
			],
			"min":[
				-4.131326198577881,
				1.5452760457992554,
				-4.010402202606201
			],
			"type":"VEC3"
		},
		{
			"bufferView":16,
			"componentType":5126,
			"count":178,
			"type":"VEC3"
		},
		{
			"bufferView":17,
			"componentType":5126,
			"count":178,
			"type":"VEC2"
		},
		{
			"bufferView":18,
			"componentType":5126,
			"count":178,
			"type":"VEC2"
		},
		{
			"bufferView":19,
			"componentType":5123,
			"count":318,
			"type":"SCALAR"
		}
	],
	"bufferViews":[
		{
			"buffer":0,
			"byteLength":600,
			"byteOffset":0,
			"target":34962
		},
		{
			"buffer":0,
			"byteLength":600,
			"byteOffset":600,
			"target":34962
		},
		{
			"buffer":0,
			"byteLength":400,
			"byteOffset":1200,
			"target":34962
		},
		{
			"buffer":0,
			"byteLength":400,
			"byteOffset":1600,
			"target":34962
		},
		{
			"buffer":0,
			"byteLength":120,
			"byteOffset":2000,
			"target":34963
		},
		{
			"buffer":0,
			"byteLength":288,
			"byteOffset":2120,
			"target":34962
		},
		{
			"buffer":0,
			"byteLength":288,
			"byteOffset":2408,
			"target":34962
		},
		{
			"buffer":0,
			"byteLength":192,
			"byteOffset":2696,
			"target":34962
		},
		{
			"buffer":0,
			"byteLength":192,
			"byteOffset":2888,
			"target":34962
		},
		{
			"buffer":0,
			"byteLength":60,
			"byteOffset":3080,
			"target":34963
		},
		{
			"buffer":0,
			"byteLength":288,
			"byteOffset":3140,
			"target":34962
		},
		{
			"buffer":0,
			"byteLength":288,
			"byteOffset":3428,
			"target":34962
		},
		{
			"buffer":0,
			"byteLength":192,
			"byteOffset":3716,
			"target":34962
		},
		{
			"buffer":0,
			"byteLength":192,
			"byteOffset":3908,
			"target":34962
		},
		{
			"buffer":0,
			"byteLength":72,
			"byteOffset":4100,
			"target":34963
		},
		{
			"buffer":0,
			"byteLength":2136,
			"byteOffset":4172,
			"target":34962
		},
		{
			"buffer":0,
			"byteLength":2136,
			"byteOffset":6308,
			"target":34962
		},
		{
			"buffer":0,
			"byteLength":1424,
			"byteOffset":8444,
			"target":34962
		},
		{
			"buffer":0,
			"byteLength":1424,
			"byteOffset":9868,
			"target":34962
		},
		{
			"buffer":0,
			"byteLength":636,
			"byteOffset":11292,
			"target":34963
		}
	],
	"samplers":[
		{
			"magFilter":9729,
			"minFilter":9987
		}
	],
	"buffers":[
		{
			"byteLength":11928,
			"uri":"lem1t.bin"
		}
	]
}
