{
	"asset":{
		"generator":"Khronos glTF Blender I/O v3.6.28",
		"version":"2.0"
	},
	"scene":0,
	"scenes":[
		{
			"name":"Scene",
			"nodes":[
				0
			]
		}
	],
	"nodes":[
		{
			"mesh":0,
			"name":"lem1i"
		}
	],
	"materials":[
		{
			"alphaMode":"BLEND",
			"extras":{
				"dirt":1,
				"recolor_ref":[
					0.039000000804662704,
					0.6510000228881836,
					0.9959999918937683
				],
				"recolor":"team"
			},
			"name":"Material",
			"pbrMetallicRoughness":{
				"baseColorTexture":{
					"index":0
				},
				"metallicFactor":0
			}
		},
		{
			"extras":{
				"dirt":1,
				"recolor":"team",
				"recolor_ref":[
					0.039,
					0.651,
					0.996
				]
			},
			"name":"Material_Shaded",
			"pbrMetallicRoughness":{
				"baseColorFactor":[
					0.30000001192092896,
					0.30000001192092896,
					0.30000001192092896,
					1
				],
				"baseColorTexture":{
					"index":1
				},
				"metallicFactor":0
			}
		}
	],
	"meshes":[
		{
			"name":"lem1i",
			"primitives":[
				{
					"attributes":{
						"POSITION":0,
						"NORMAL":1,
						"TEXCOORD_0":2,
						"TEXCOORD_1":3
					},
					"indices":4,
					"material":0
				},
				{
					"attributes":{
						"POSITION":5,
						"NORMAL":6,
						"TEXCOORD_0":7,
						"TEXCOORD_1":8
					},
					"indices":9,
					"material":1
				}
			]
		}
	],
	"textures":[
		{
			"sampler":0,
			"source":0
		},
		{
			"sampler":0,
			"source":0
		}
	],
	"images":[
		{
			"mimeType":"image/png",
			"name":"objects",
			"uri":"objects.png"
		}
	],
	"accessors":[
		{
			"bufferView":0,
			"componentType":5126,
			"count":318,
			"max":[
				4.009492874145508,
				6,
				3.501671075820923
			],
			"min":[
				-4.446938991546631,
				0.7043370008468628,
				-3.5110950469970703
			],
			"type":"VEC3"
		},
		{
			"bufferView":1,
			"componentType":5126,
			"count":318,
			"type":"VEC3"
		},
		{
			"bufferView":2,
			"componentType":5126,
			"count":318,
			"type":"VEC2"
		},
		{
			"bufferView":3,
			"componentType":5126,
			"count":318,
			"type":"VEC2"
		},
		{
			"bufferView":4,
			"componentType":5123,
			"count":564,
			"type":"SCALAR"
		},
		{
			"bufferView":5,
			"componentType":5126,
			"count":12,
			"max":[
				-2,
				4.997941017150879,
				1.4972100257873535
			],
			"min":[
				-4.0064592361450195,
				3,
				-1.50278902053833
			],
			"type":"VEC3"
		},
		{
			"bufferView":6,
			"componentType":5126,
			"count":12,
			"type":"VEC3"
		},
		{
			"bufferView":7,
			"componentType":5126,
			"count":12,
			"type":"VEC2"
		},
		{
			"bufferView":8,
			"componentType":5126,
			"count":12,
			"type":"VEC2"
		},
		{
			"bufferView":9,
			"componentType":5123,
			"count":18,
			"type":"SCALAR"
		}
	],
	"bufferViews":[
		{
			"buffer":0,
			"byteLength":3816,
			"byteOffset":0,
			"target":34962
		},
		{
			"buffer":0,
			"byteLength":3816,
			"byteOffset":3816,
			"target":34962
		},
		{
			"buffer":0,
			"byteLength":2544,
			"byteOffset":7632,
			"target":34962
		},
		{
			"buffer":0,
			"byteLength":2544,
			"byteOffset":10176,
			"target":34962
		},
		{
			"buffer":0,
			"byteLength":1128,
			"byteOffset":12720,
			"target":34963
		},
		{
			"buffer":0,
			"byteLength":144,
			"byteOffset":13848,
			"target":34962
		},
		{
			"buffer":0,
			"byteLength":144,
			"byteOffset":13992,
			"target":34962
		},
		{
			"buffer":0,
			"byteLength":96,
			"byteOffset":14136,
			"target":34962
		},
		{
			"buffer":0,
			"byteLength":96,
			"byteOffset":14232,
			"target":34962
		},
		{
			"buffer":0,
			"byteLength":36,
			"byteOffset":14328,
			"target":34963
		}
	],
	"samplers":[
		{
			"magFilter":9729,
			"minFilter":9987
		}
	],
	"buffers":[
		{
			"byteLength":14364,
			"uri":"lem1i.bin"
		}
	]
}
