{
	"asset":{
		"generator":"Khronos glTF Blender I/O v4.2.57",
		"version":"2.0"
	},
	"scene":0,
	"scenes":[
		{
			"name":"Scene",
			"nodes":[
				0
			]
		}
	],
	"nodes":[
		{
			"mesh":0,
			"name":"mother6"
		}
	],
	"materials":[
		{
			"alphaMode":"BLEND",
			"extras":{
				"dirt":1
			},
			"name":"Material_NoRecolor",
			"pbrMetallicRoughness":{
				"baseColorTexture":{
					"index":0
				},
				"metallicFactor":0
			}
		}
	],
	"meshes":[
		{
			"name":"mother6",
			"primitives":[
				{
					"attributes":{
						"POSITION":0,
						"NORMAL":1,
						"TEXCOORD_0":2,
						"TEXCOORD_1":3
					},
					"indices":4,
					"material":0
				}
			]
		}
	],
	"textures":[
		{
			"sampler":0,
			"source":0
		}
	],
	"images":[
		{
			"mimeType":"image/png",
			"name":"objects",
			"uri":"objects.png"
		}
	],
	"accessors":[
		{
			"bufferView":0,
			"componentType":5126,
			"count":21,
			"max":[
				5.991919040679932,
				0.6878910064697266,
				0.7772629857063293
			],
			"min":[
				-0.008081000298261642,
				-0.6890900135040283,
				-0.4152370095252991
			],
			"type":"VEC3"
		},
		{
			"bufferView":1,
			"componentType":5126,
			"count":21,
			"type":"VEC3"
		},
		{
			"bufferView":2,
			"componentType":5126,
			"count":21,
			"type":"VEC2"
		},
		{
			"bufferView":3,
			"componentType":5126,
			"count":21,
			"type":"VEC2"
		},
		{
			"bufferView":4,
			"componentType":5123,
			"count":54,
			"type":"SCALAR"
		}
	],
	"bufferViews":[
		{
			"buffer":0,
			"byteLength":252,
			"byteOffset":0,
			"target":34962
		},
		{
			"buffer":0,
			"byteLength":252,
			"byteOffset":252,
			"target":34962
		},
		{
			"buffer":0,
			"byteLength":168,
			"byteOffset":504,
			"target":34962
		},
		{
			"buffer":0,
			"byteLength":168,
			"byteOffset":672,
			"target":34962
		},
		{
			"buffer":0,
			"byteLength":108,
			"byteOffset":840,
			"target":34963
		}
	],
	"samplers":[
		{
			"magFilter":9729,
			"minFilter":9987
		}
	],
	"buffers":[
		{
			"byteLength":948,
			"uri":"mother6.bin"
		}
	]
}
