{
	"asset":{
		"generator":"Khronos glTF Blender I/O v4.2.57",
		"version":"2.0"
	},
	"scene":0,
	"scenes":[
		{
			"name":"Scene",
			"nodes":[
				0
			]
		}
	],
	"nodes":[
		{
			"mesh":0,
			"name":"mother7"
		}
	],
	"materials":[
		{
			"alphaMode":"BLEND",
			"extras":{
				"dirt":1
			},
			"name":"Material_NoRecolor",
			"pbrMetallicRoughness":{
				"baseColorTexture":{
					"index":0
				},
				"metallicFactor":0
			}
		}
	],
	"meshes":[
		{
			"name":"mother7",
			"primitives":[
				{
					"attributes":{
						"POSITION":0,
						"NORMAL":1,
						"TEXCOORD_0":2,
						"TEXCOORD_1":3
					},
					"indices":4,
					"material":0
				}
			]
		}
	],
	"textures":[
		{
			"sampler":0,
			"source":0
		}
	],
	"images":[
		{
			"mimeType":"image/png",
			"name":"objects",
			"uri":"objects.png"
		}
	],
	"accessors":[
		{
			"bufferView":0,
			"componentType":5126,
			"count":17,
			"max":[
				12.862339973449707,
				2.55102801322937,
				4.92667818069458
			],
			"min":[
				-1.000372052192688,
				-2.243741035461426,
				-3.158940076828003
			],
			"type":"VEC3"
		},
		{
			"bufferView":1,
			"componentType":5126,
			"count":17,
			"type":"VEC3"
		},
		{
			"bufferView":2,
			"componentType":5126,
			"count":17,
			"type":"VEC2"
		},
		{
			"bufferView":3,
			"componentType":5126,
			"count":17,
			"type":"VEC2"
		},
		{
			"bufferView":4,
			"componentType":5123,
			"count":45,
			"type":"SCALAR"
		}
	],
	"bufferViews":[
		{
			"buffer":0,
			"byteLength":204,
			"byteOffset":0,
			"target":34962
		},
		{
			"buffer":0,
			"byteLength":204,
			"byteOffset":204,
			"target":34962
		},
		{
			"buffer":0,
			"byteLength":136,
			"byteOffset":408,
			"target":34962
		},
		{
			"buffer":0,
			"byteLength":136,
			"byteOffset":544,
			"target":34962
		},
		{
			"buffer":0,
			"byteLength":90,
			"byteOffset":680,
			"target":34963
		}
	],
	"samplers":[
		{
			"magFilter":9729,
			"minFilter":9987
		}
	],
	"buffers":[
		{
			"byteLength":772,
			"uri":"mother7.bin"
		}
	]
}
