{
	"asset":{
		"generator":"Khronos glTF Blender I/O v3.6.28",
		"version":"2.0"
	},
	"scene":0,
	"scenes":[
		{
			"name":"Scene",
			"nodes":[
				0
			]
		}
	],
	"nodes":[
		{
			"mesh":0,
			"name":"nuclear2"
		}
	],
	"materials":[
		{
			"extras":{
				"dirt":1,
				"recolor":"team",
				"recolor_ref":[
					0.039,
					0.651,
					0.996
				]
			},
			"name":"Material 1 (factory.png)",
			"pbrMetallicRoughness":{
				"baseColorTexture":{
					"index":0
				},
				"metallicFactor":0
			}
		},
		{
			"extras":{
				"dirt":1,
				"recolor":"team",
				"recolor_ref":[
					0.039,
					0.651,
					0.996
				]
			},
			"name":"Material 2 (lemt.png)",
			"pbrMetallicRoughness":{
				"baseColorTexture":{
					"index":1
				},
				"metallicFactor":0
			}
		},
		{
			"extras":{
				"dirt":1,
				"recolor":"team",
				"recolor_ref":[
					0.039,
					0.651,
					0.996
				]
			},
			"name":"Material 3 (derrick.png)",
			"pbrMetallicRoughness":{
				"baseColorTexture":{
					"index":2
				},
				"metallicFactor":0
			}
		}
	],
	"meshes":[
		{
			"name":"nuclear2",
			"primitives":[
				{
					"attributes":{
						"POSITION":0,
						"NORMAL":1,
						"TEXCOORD_0":2,
						"TEXCOORD_1":3
					},
					"indices":4,
					"material":0
				},
				{
					"attributes":{
						"POSITION":5,
						"NORMAL":6,
						"TEXCOORD_0":7,
						"TEXCOORD_1":8
					},
					"indices":9,
					"material":1
				},
				{
					"attributes":{
						"POSITION":10,
						"NORMAL":11,
						"TEXCOORD_0":12,
						"TEXCOORD_1":13
					},
					"indices":14,
					"material":2
				}
			]
		}
	],
	"textures":[
		{
			"sampler":0,
			"source":0
		},
		{
			"sampler":0,
			"source":1
		},
		{
			"sampler":0,
			"source":2
		}
	],
	"images":[
		{
			"mimeType":"image/png",
			"name":"factory",
			"uri":"factory.png"
		},
		{
			"mimeType":"image/png",
			"name":"lemt",
			"uri":"lemt.png"
		},
		{
			"mimeType":"image/png",
			"name":"derrick",
			"uri":"derrick.png"
		}
	],
	"accessors":[
		{
			"bufferView":0,
			"componentType":5126,
			"count":16,
			"max":[
				5.985344886779785,
				0.003961999900639057,
				4
			],
			"min":[
				-0.014655999839305878,
				-9.996039390563965,
				-4
			],
			"type":"VEC3"
		},
		{
			"bufferView":1,
			"componentType":5126,
			"count":16,
			"type":"VEC3"
		},
		{
			"bufferView":2,
			"componentType":5126,
			"count":16,
			"type":"VEC2"
		},
		{
			"bufferView":3,
			"componentType":5126,
			"count":16,
			"type":"VEC2"
		},
		{
			"bufferView":4,
			"componentType":5123,
			"count":30,
			"type":"SCALAR"
		},
		{
			"bufferView":5,
			"componentType":5126,
			"count":30,
			"max":[
				5.985344886779785,
				0.0039610001258552074,
				4
			],
			"min":[
				-0.014655999839305878,
				-9.996039390563965,
				-4
			],
			"type":"VEC3"
		},
		{
			"bufferView":6,
			"componentType":5126,
			"count":30,
			"type":"VEC3"
		},
		{
			"bufferView":7,
			"componentType":5126,
			"count":30,
			"type":"VEC2"
		},
		{
			"bufferView":8,
			"componentType":5126,
			"count":30,
			"type":"VEC2"
		},
		{
			"bufferView":9,
			"componentType":5123,
			"count":42,
			"type":"SCALAR"
		},
		{
			"bufferView":10,
			"componentType":5126,
			"count":4,
			"max":[
				5.985343933105469,
				0.003961999900639057,
				4
			],
			"min":[
				-0.014655999839305878,
				0.00395999988541007,
				-4
			],
			"type":"VEC3"
		},
		{
			"bufferView":11,
			"componentType":5126,
			"count":4,
			"type":"VEC3"
		},
		{
			"bufferView":12,
			"componentType":5126,
			"count":4,
			"type":"VEC2"
		},
		{
			"bufferView":13,
			"componentType":5126,
			"count":4,
			"type":"VEC2"
		},
		{
			"bufferView":14,
			"componentType":5123,
			"count":6,
			"type":"SCALAR"
		}
	],
	"bufferViews":[
		{
			"buffer":0,
			"byteLength":192,
			"byteOffset":0,
			"target":34962
		},
		{
			"buffer":0,
			"byteLength":192,
			"byteOffset":192,
			"target":34962
		},
		{
			"buffer":0,
			"byteLength":128,
			"byteOffset":384,
			"target":34962
		},
		{
			"buffer":0,
			"byteLength":128,
			"byteOffset":512,
			"target":34962
		},
		{
			"buffer":0,
			"byteLength":60,
			"byteOffset":640,
			"target":34963
		},
		{
			"buffer":0,
			"byteLength":360,
			"byteOffset":700,
			"target":34962
		},
		{
			"buffer":0,
			"byteLength":360,
			"byteOffset":1060,
			"target":34962
		},
		{
			"buffer":0,
			"byteLength":240,
			"byteOffset":1420,
			"target":34962
		},
		{
			"buffer":0,
			"byteLength":240,
			"byteOffset":1660,
			"target":34962
		},
		{
			"buffer":0,
			"byteLength":84,
			"byteOffset":1900,
			"target":34963
		},
		{
			"buffer":0,
			"byteLength":48,
			"byteOffset":1984,
			"target":34962
		},
		{
			"buffer":0,
			"byteLength":48,
			"byteOffset":2032,
			"target":34962
		},
		{
			"buffer":0,
			"byteLength":32,
			"byteOffset":2080,
			"target":34962
		},
		{
			"buffer":0,
			"byteLength":32,
			"byteOffset":2112,
			"target":34962
		},
		{
			"buffer":0,
			"byteLength":12,
			"byteOffset":2144,
			"target":34963
		}
	],
	"samplers":[
		{
			"magFilter":9729,
			"minFilter":9987
		}
	],
	"buffers":[
		{
			"byteLength":2156,
			"uri":"nuclear2.bin"
		}
	]
}
