{
	"asset":{
		"generator":"Khronos glTF Blender I/O v3.6.28",
		"version":"2.0"
	},
	"scene":0,
	"scenes":[
		{
			"name":"Scene",
			"nodes":[
				0
			]
		}
	],
	"nodes":[
		{
			"mesh":0,
			"name":"para"
		}
	],
	"materials":[
		{
			"extras":{
				"dirt":1,
				"recolor":"team",
				"recolor_ref":[
					0.039,
					0.651,
					0.996
				]
			},
			"name":"Material 1 (derrick.png)",
			"pbrMetallicRoughness":{
				"baseColorTexture":{
					"index":0
				},
				"metallicFactor":0
			}
		},
		{
			"extras":{
				"dirt":1,
				"recolor":"team",
				"recolor_ref":[
					0.039,
					0.651,
					0.996
				]
			},
			"name":"Material 2 (factory.png)",
			"pbrMetallicRoughness":{
				"baseColorTexture":{
					"index":1
				},
				"metallicFactor":0
			}
		},
		{
			"extras":{
				"dirt":1,
				"recolor":"team",
				"recolor_ref":[
					0.039,
					0.651,
					0.996
				]
			},
			"name":"Material 3 (lemt.png)",
			"pbrMetallicRoughness":{
				"baseColorTexture":{
					"index":2
				},
				"metallicFactor":0
			}
		},
		{
			"doubleSided":true,
			"extras":{
				"dirt":1,
				"recolor":"team",
				"recolor_ref":[
					0.039,
					0.651,
					0.996
				]
			},
			"name":"Material 4 (derrick.png)",
			"pbrMetallicRoughness":{
				"baseColorTexture":{
					"index":3
				},
				"metallicFactor":0
			}
		},
		{
			"extras":{
				"dirt":0,
				"recolor":"team",
				"recolor_ref":[
					0.039,
					0.651,
					0.996
				]
			},
			"name":"Material 5 (lemt.png)",
			"pbrMetallicRoughness":{
				"baseColorTexture":{
					"index":4
				},
				"metallicFactor":0
			}
		}
	],
	"meshes":[
		{
			"name":"para",
			"primitives":[
				{
					"attributes":{
						"POSITION":0,
						"NORMAL":1,
						"TEXCOORD_0":2,
						"TEXCOORD_1":3
					},
					"indices":4,
					"material":0
				},
				{
					"attributes":{
						"POSITION":5,
						"NORMAL":6,
						"TEXCOORD_0":7,
						"TEXCOORD_1":8
					},
					"indices":9,
					"material":1
				},
				{
					"attributes":{
						"POSITION":10,
						"NORMAL":11,
						"TEXCOORD_0":12,
						"TEXCOORD_1":13
					},
					"indices":14,
					"material":2
				},
				{
					"attributes":{
						"POSITION":15,
						"NORMAL":16,
						"TEXCOORD_0":17,
						"TEXCOORD_1":18
					},
					"indices":19,
					"material":3
				},
				{
					"attributes":{
						"POSITION":20,
						"NORMAL":21,
						"TEXCOORD_0":22,
						"TEXCOORD_1":23
					},
					"indices":24,
					"material":4
				}
			]
		}
	],
	"textures":[
		{
			"sampler":0,
			"source":0
		},
		{
			"sampler":0,
			"source":1
		},
		{
			"sampler":0,
			"source":2
		},
		{
			"sampler":0,
			"source":0
		},
		{
			"sampler":0,
			"source":2
		}
	],
	"images":[
		{
			"mimeType":"image/png",
			"name":"derrick",
			"uri":"derrick.png"
		},
		{
			"mimeType":"image/png",
			"name":"factory",
			"uri":"factory.png"
		},
		{
			"mimeType":"image/png",
			"name":"lemt",
			"uri":"lemt.png"
		}
	],
	"accessors":[
		{
			"bufferView":0,
			"componentType":5126,
			"count":131,
			"max":[
				17.09561538696289,
				47,
				17.084232330322266
			],
			"min":[
				-17,
				-1,
				-17.011383056640625
			],
			"type":"VEC3"
		},
		{
			"bufferView":1,
			"componentType":5126,
			"count":131,
			"type":"VEC3"
		},
		{
			"bufferView":2,
			"componentType":5126,
			"count":131,
			"type":"VEC2"
		},
		{
			"bufferView":3,
			"componentType":5126,
			"count":131,
			"type":"VEC2"
		},
		{
			"bufferView":4,
			"componentType":5123,
			"count":204,
			"type":"SCALAR"
		},
		{
			"bufferView":5,
			"componentType":5126,
			"count":32,
			"max":[
				18.23712921142578,
				1,
				18.248424530029297
			],
			"min":[
				-18.240461349487305,
				-1,
				-18.229167938232422
			],
			"type":"VEC3"
		},
		{
			"bufferView":6,
			"componentType":5126,
			"count":32,
			"type":"VEC3"
		},
		{
			"bufferView":7,
			"componentType":5126,
			"count":32,
			"type":"VEC2"
		},
		{
			"bufferView":8,
			"componentType":5126,
			"count":32,
			"type":"VEC2"
		},
		{
			"bufferView":9,
			"componentType":5123,
			"count":48,
			"type":"SCALAR"
		},
		{
			"bufferView":10,
			"componentType":5126,
			"count":20,
			"max":[
				13.09561538696289,
				23,
				13.084232330322266
			],
			"min":[
				-13,
				14.5,
				-13.011383056640625
			],
			"type":"VEC3"
		},
		{
			"bufferView":11,
			"componentType":5126,
			"count":20,
			"type":"VEC3"
		},
		{
			"bufferView":12,
			"componentType":5126,
			"count":20,
			"type":"VEC2"
		},
		{
			"bufferView":13,
			"componentType":5126,
			"count":20,
			"type":"VEC2"
		},
		{
			"bufferView":14,
			"componentType":5123,
			"count":24,
			"type":"SCALAR"
		},
		{
			"bufferView":15,
			"componentType":5126,
			"count":46,
			"max":[
				14.781834602355957,
				57.65884780883789,
				14.745354652404785
			],
			"min":[
				-14.470784187316895,
				45,
				-14.745348930358887
			],
			"type":"VEC3"
		},
		{
			"bufferView":16,
			"componentType":5126,
			"count":46,
			"type":"VEC3"
		},
		{
			"bufferView":17,
			"componentType":5126,
			"count":46,
			"type":"VEC2"
		},
		{
			"bufferView":18,
			"componentType":5126,
			"count":46,
			"type":"VEC2"
		},
		{
			"bufferView":19,
			"componentType":5123,
			"count":225,
			"type":"SCALAR"
		},
		{
			"bufferView":20,
			"componentType":5126,
			"count":24,
			"max":[
				2,
				67,
				2.000001907348633
			],
			"min":[
				-2,
				15,
				-1.9999990463256836
			],
			"type":"VEC3"
		},
		{
			"bufferView":21,
			"componentType":5126,
			"count":24,
			"type":"VEC3"
		},
		{
			"bufferView":22,
			"componentType":5126,
			"count":24,
			"type":"VEC2"
		},
		{
			"bufferView":23,
			"componentType":5126,
			"count":24,
			"type":"VEC2"
		},
		{
			"bufferView":24,
			"componentType":5123,
			"count":24,
			"type":"SCALAR"
		}
	],
	"bufferViews":[
		{
			"buffer":0,
			"byteLength":1572,
			"byteOffset":0,
			"target":34962
		},
		{
			"buffer":0,
			"byteLength":1572,
			"byteOffset":1572,
			"target":34962
		},
		{
			"buffer":0,
			"byteLength":1048,
			"byteOffset":3144,
			"target":34962
		},
		{
			"buffer":0,
			"byteLength":1048,
			"byteOffset":4192,
			"target":34962
		},
		{
			"buffer":0,
			"byteLength":408,
			"byteOffset":5240,
			"target":34963
		},
		{
			"buffer":0,
			"byteLength":384,
			"byteOffset":5648,
			"target":34962
		},
		{
			"buffer":0,
			"byteLength":384,
			"byteOffset":6032,
			"target":34962
		},
		{
			"buffer":0,
			"byteLength":256,
			"byteOffset":6416,
			"target":34962
		},
		{
			"buffer":0,
			"byteLength":256,
			"byteOffset":6672,
			"target":34962
		},
		{
			"buffer":0,
			"byteLength":96,
			"byteOffset":6928,
			"target":34963
		},
		{
			"buffer":0,
			"byteLength":240,
			"byteOffset":7024,
			"target":34962
		},
		{
			"buffer":0,
			"byteLength":240,
			"byteOffset":7264,
			"target":34962
		},
		{
			"buffer":0,
			"byteLength":160,
			"byteOffset":7504,
			"target":34962
		},
		{
			"buffer":0,
			"byteLength":160,
			"byteOffset":7664,
			"target":34962
		},
		{
			"buffer":0,
			"byteLength":48,
			"byteOffset":7824,
			"target":34963
		},
		{
			"buffer":0,
			"byteLength":552,
			"byteOffset":7872,
			"target":34962
		},
		{
			"buffer":0,
			"byteLength":552,
			"byteOffset":8424,
			"target":34962
		},
		{
			"buffer":0,
			"byteLength":368,
			"byteOffset":8976,
			"target":34962
		},
		{
			"buffer":0,
			"byteLength":368,
			"byteOffset":9344,
			"target":34962
		},
		{
			"buffer":0,
			"byteLength":450,
			"byteOffset":9712,
			"target":34963
		},
		{
			"buffer":0,
			"byteLength":288,
			"byteOffset":10164,
			"target":34962
		},
		{
			"buffer":0,
			"byteLength":288,
			"byteOffset":10452,
			"target":34962
		},
		{
			"buffer":0,
			"byteLength":192,
			"byteOffset":10740,
			"target":34962
		},
		{
			"buffer":0,
			"byteLength":192,
			"byteOffset":10932,
			"target":34962
		},
		{
			"buffer":0,
			"byteLength":48,
			"byteOffset":11124,
			"target":34963
		}
	],
	"samplers":[
		{
			"magFilter":9729,
			"minFilter":9987
		}
	],
	"buffers":[
		{
			"byteLength":11172,
			"uri":"para.bin"
		}
	]
}
