{
	"asset":{
		"generator":"Khronos glTF Blender I/O v4.2.57",
		"version":"2.0"
	},
	"scene":0,
	"scenes":[
		{
			"name":"Scene",
			"nodes":[
				0
			]
		}
	],
	"nodes":[
		{
			"mesh":0,
			"name":"para"
		}
	],
	"materials":[
		{
			"alphaMode":"BLEND",
			"extras":{
				"dirt":1,
				"recolor_ref":[
					0.039000000804662704,
					0.6510000228881836,
					0.9959999918937683
				],
				"recolor":"team"
			},
			"name":"Material",
			"pbrMetallicRoughness":{
				"baseColorTexture":{
					"index":0
				},
				"metallicFactor":0
			}
		},
		{
			"extras":{
				"dirt":0
			},
			"name":"Material_NoDirtNoRecolor",
			"pbrMetallicRoughness":{
				"baseColorTexture":{
					"index":1
				},
				"metallicFactor":0
			}
		},
		{
			"doubleSided":true,
			"extras":{
				"dirt":0
			},
			"name":"Material_DoubleSideNoRecolor",
			"pbrMetallicRoughness":{
				"baseColorTexture":{
					"index":2
				},
				"metallicFactor":0
			}
		}
	],
	"meshes":[
		{
			"name":"para",
			"primitives":[
				{
					"attributes":{
						"POSITION":0,
						"NORMAL":1,
						"TEXCOORD_0":2,
						"TEXCOORD_1":3
					},
					"indices":4,
					"material":0
				},
				{
					"attributes":{
						"POSITION":5,
						"NORMAL":6,
						"TEXCOORD_0":7,
						"TEXCOORD_1":8
					},
					"indices":9,
					"material":1
				},
				{
					"attributes":{
						"POSITION":10,
						"NORMAL":11,
						"TEXCOORD_0":12,
						"TEXCOORD_1":13
					},
					"indices":14,
					"material":2
				}
			]
		}
	],
	"textures":[
		{
			"sampler":0,
			"source":0
		},
		{
			"sampler":0,
			"source":0
		},
		{
			"sampler":0,
			"source":0
		}
	],
	"images":[
		{
			"mimeType":"image/png",
			"name":"objects",
			"uri":"objects.png"
		}
	],
	"accessors":[
		{
			"bufferView":0,
			"componentType":5126,
			"count":183,
			"max":[
				18.23712921142578,
				47,
				18.248424530029297
			],
			"min":[
				-18.240461349487305,
				-1,
				-18.229167938232422
			],
			"type":"VEC3"
		},
		{
			"bufferView":1,
			"componentType":5126,
			"count":183,
			"type":"VEC3"
		},
		{
			"bufferView":2,
			"componentType":5126,
			"count":183,
			"type":"VEC2"
		},
		{
			"bufferView":3,
			"componentType":5126,
			"count":183,
			"type":"VEC2"
		},
		{
			"bufferView":4,
			"componentType":5123,
			"count":276,
			"type":"SCALAR"
		},
		{
			"bufferView":5,
			"componentType":5126,
			"count":24,
			"max":[
				2,
				67,
				2.000001907348633
			],
			"min":[
				-2,
				15,
				-1.9999990463256836
			],
			"type":"VEC3"
		},
		{
			"bufferView":6,
			"componentType":5126,
			"count":24,
			"type":"VEC3"
		},
		{
			"bufferView":7,
			"componentType":5126,
			"count":24,
			"type":"VEC2"
		},
		{
			"bufferView":8,
			"componentType":5126,
			"count":24,
			"type":"VEC2"
		},
		{
			"bufferView":9,
			"componentType":5123,
			"count":24,
			"type":"SCALAR"
		},
		{
			"bufferView":10,
			"componentType":5126,
			"count":46,
			"max":[
				14.781834602355957,
				57.65884780883789,
				14.745354652404785
			],
			"min":[
				-14.470784187316895,
				45,
				-14.745348930358887
			],
			"type":"VEC3"
		},
		{
			"bufferView":11,
			"componentType":5126,
			"count":46,
			"type":"VEC3"
		},
		{
			"bufferView":12,
			"componentType":5126,
			"count":46,
			"type":"VEC2"
		},
		{
			"bufferView":13,
			"componentType":5126,
			"count":46,
			"type":"VEC2"
		},
		{
			"bufferView":14,
			"componentType":5123,
			"count":225,
			"type":"SCALAR"
		}
	],
	"bufferViews":[
		{
			"buffer":0,
			"byteLength":2196,
			"byteOffset":0,
			"target":34962
		},
		{
			"buffer":0,
			"byteLength":2196,
			"byteOffset":2196,
			"target":34962
		},
		{
			"buffer":0,
			"byteLength":1464,
			"byteOffset":4392,
			"target":34962
		},
		{
			"buffer":0,
			"byteLength":1464,
			"byteOffset":5856,
			"target":34962
		},
		{
			"buffer":0,
			"byteLength":552,
			"byteOffset":7320,
			"target":34963
		},
		{
			"buffer":0,
			"byteLength":288,
			"byteOffset":7872,
			"target":34962
		},
		{
			"buffer":0,
			"byteLength":288,
			"byteOffset":8160,
			"target":34962
		},
		{
			"buffer":0,
			"byteLength":192,
			"byteOffset":8448,
			"target":34962
		},
		{
			"buffer":0,
			"byteLength":192,
			"byteOffset":8640,
			"target":34962
		},
		{
			"buffer":0,
			"byteLength":48,
			"byteOffset":8832,
			"target":34963
		},
		{
			"buffer":0,
			"byteLength":552,
			"byteOffset":8880,
			"target":34962
		},
		{
			"buffer":0,
			"byteLength":552,
			"byteOffset":9432,
			"target":34962
		},
		{
			"buffer":0,
			"byteLength":368,
			"byteOffset":9984,
			"target":34962
		},
		{
			"buffer":0,
			"byteLength":368,
			"byteOffset":10352,
			"target":34962
		},
		{
			"buffer":0,
			"byteLength":450,
			"byteOffset":10720,
			"target":34963
		}
	],
	"samplers":[
		{
			"magFilter":9729,
			"minFilter":9987
		}
	],
	"buffers":[
		{
			"byteLength":11172,
			"uri":"para.bin"
		}
	]
}
