{
	"asset":{
		"generator":"Khronos glTF Blender I/O v3.6.28",
		"version":"2.0"
	},
	"scene":0,
	"scenes":[
		{
			"name":"Scene",
			"nodes":[
				0
			]
		}
	],
	"nodes":[
		{
			"mesh":0,
			"name":"plant9"
		}
	],
	"materials":[
		{
			"extras":{
				"dirt":0,
				"transparency":1,
				"recolor":"team",
				"recolor_ref":[
					0.039,
					0.651,
					0.996
				]
			},
			"name":"Material 1 (plant.png)",
			"pbrMetallicRoughness":{
				"baseColorTexture":{
					"index":0
				},
				"metallicFactor":0
			}
		}
	],
	"meshes":[
		{
			"name":"plant9",
			"primitives":[
				{
					"attributes":{
						"POSITION":0,
						"NORMAL":1,
						"TEXCOORD_0":2,
						"TEXCOORD_1":3
					},
					"indices":4,
					"material":0
				}
			]
		}
	],
	"textures":[
		{
			"sampler":0,
			"source":0
		}
	],
	"images":[
		{
			"mimeType":"image/png",
			"name":"plant",
			"uri":"plant.png"
		}
	],
	"accessors":[
		{
			"bufferView":0,
			"componentType":5126,
			"count":70,
			"max":[
				5.7431206703186035,
				16.03444480895996,
				4.0748162269592285
			],
			"min":[
				-4.51344108581543,
				-2.646444320678711,
				-3.2524302005767822
			],
			"type":"VEC3"
		},
		{
			"bufferView":1,
			"componentType":5126,
			"count":70,
			"type":"VEC3"
		},
		{
			"bufferView":2,
			"componentType":5126,
			"count":70,
			"type":"VEC2"
		},
		{
			"bufferView":3,
			"componentType":5126,
			"count":70,
			"type":"VEC2"
		},
		{
			"bufferView":4,
			"componentType":5123,
			"count":150,
			"type":"SCALAR"
		}
	],
	"bufferViews":[
		{
			"buffer":0,
			"byteLength":840,
			"byteOffset":0,
			"target":34962
		},
		{
			"buffer":0,
			"byteLength":840,
			"byteOffset":840,
			"target":34962
		},
		{
			"buffer":0,
			"byteLength":560,
			"byteOffset":1680,
			"target":34962
		},
		{
			"buffer":0,
			"byteLength":560,
			"byteOffset":2240,
			"target":34962
		},
		{
			"buffer":0,
			"byteLength":300,
			"byteOffset":2800,
			"target":34963
		}
	],
	"samplers":[
		{
			"magFilter":9729,
			"minFilter":9987
		}
	],
	"buffers":[
		{
			"byteLength":3100,
			"uri":"plant9.bin"
		}
	]
}
