{
	"asset":{
		"generator":"Khronos glTF Blender I/O v4.2.57",
		"version":"2.0"
	},
	"scene":0,
	"scenes":[
		{
			"name":"Scene",
			"nodes":[
				0
			]
		}
	],
	"nodes":[
		{
			"mesh":0,
			"name":"plant8"
		}
	],
	"materials":[
		{
			"alphaMode":"BLEND",
			"extras":{
				"dirt":0
			},
			"name":"Material_NoDirtNoRecolor",
			"pbrMetallicRoughness":{
				"baseColorTexture":{
					"index":0
				},
				"metallicFactor":0
			}
		}
	],
	"meshes":[
		{
			"name":"plant8",
			"primitives":[
				{
					"attributes":{
						"POSITION":0,
						"NORMAL":1,
						"TEXCOORD_0":2,
						"TEXCOORD_1":3
					},
					"indices":4,
					"material":0
				}
			]
		}
	],
	"textures":[
		{
			"sampler":0,
			"source":0
		}
	],
	"images":[
		{
			"mimeType":"image/png",
			"name":"objects",
			"uri":"objects.png"
		}
	],
	"accessors":[
		{
			"bufferView":0,
			"componentType":5126,
			"count":103,
			"max":[
				5.357710361480713,
				17.957067489624023,
				6.7623090744018555
			],
			"min":[
				-6.70587158203125,
				-2.6834254264831543,
				-6.305241584777832
			],
			"type":"VEC3"
		},
		{
			"bufferView":1,
			"componentType":5126,
			"count":103,
			"type":"VEC3"
		},
		{
			"bufferView":2,
			"componentType":5126,
			"count":103,
			"type":"VEC2"
		},
		{
			"bufferView":3,
			"componentType":5126,
			"count":103,
			"type":"VEC2"
		},
		{
			"bufferView":4,
			"componentType":5123,
			"count":225,
			"type":"SCALAR"
		}
	],
	"bufferViews":[
		{
			"buffer":0,
			"byteLength":1236,
			"byteOffset":0,
			"target":34962
		},
		{
			"buffer":0,
			"byteLength":1236,
			"byteOffset":1236,
			"target":34962
		},
		{
			"buffer":0,
			"byteLength":824,
			"byteOffset":2472,
			"target":34962
		},
		{
			"buffer":0,
			"byteLength":824,
			"byteOffset":3296,
			"target":34962
		},
		{
			"buffer":0,
			"byteLength":450,
			"byteOffset":4120,
			"target":34963
		}
	],
	"samplers":[
		{
			"magFilter":9729,
			"minFilter":9987
		}
	],
	"buffers":[
		{
			"byteLength":4572,
			"uri":"plant8.bin"
		}
	]
}
