{
	"asset":{
		"generator":"Khronos glTF Blender I/O v4.2.57",
		"version":"2.0"
	},
	"scene":0,
	"scenes":[
		{
			"name":"Scene",
			"nodes":[
				0
			]
		}
	],
	"nodes":[
		{
			"mesh":0,
			"name":"plant19"
		}
	],
	"materials":[
		{
			"alphaMode":"BLEND",
			"doubleSided":true,
			"extras":{
				"dirt":0
			},
			"name":"Material_DoubleSideNoRecolor",
			"pbrMetallicRoughness":{
				"baseColorTexture":{
					"index":0
				},
				"metallicFactor":0
			}
		}
	],
	"meshes":[
		{
			"name":"plant19",
			"primitives":[
				{
					"attributes":{
						"POSITION":0,
						"NORMAL":1,
						"TEXCOORD_0":2,
						"TEXCOORD_1":3
					},
					"indices":4,
					"material":0
				}
			]
		}
	],
	"textures":[
		{
			"sampler":0,
			"source":0
		}
	],
	"images":[
		{
			"mimeType":"image/png",
			"name":"objects",
			"uri":"objects.png"
		}
	],
	"accessors":[
		{
			"bufferView":0,
			"componentType":5126,
			"count":27,
			"max":[
				18.06884765625,
				12.70887279510498,
				8.765493392944336
			],
			"min":[
				-14.635346412658691,
				-2.570188522338867,
				-18.84282112121582
			],
			"type":"VEC3"
		},
		{
			"bufferView":1,
			"componentType":5126,
			"count":27,
			"type":"VEC3"
		},
		{
			"bufferView":2,
			"componentType":5126,
			"count":27,
			"type":"VEC2"
		},
		{
			"bufferView":3,
			"componentType":5126,
			"count":27,
			"type":"VEC2"
		},
		{
			"bufferView":4,
			"componentType":5123,
			"count":78,
			"type":"SCALAR"
		}
	],
	"bufferViews":[
		{
			"buffer":0,
			"byteLength":324,
			"byteOffset":0,
			"target":34962
		},
		{
			"buffer":0,
			"byteLength":324,
			"byteOffset":324,
			"target":34962
		},
		{
			"buffer":0,
			"byteLength":216,
			"byteOffset":648,
			"target":34962
		},
		{
			"buffer":0,
			"byteLength":216,
			"byteOffset":864,
			"target":34962
		},
		{
			"buffer":0,
			"byteLength":156,
			"byteOffset":1080,
			"target":34963
		}
	],
	"samplers":[
		{
			"magFilter":9729,
			"minFilter":9987
		}
	],
	"buffers":[
		{
			"byteLength":1236,
			"uri":"plant19.bin"
		}
	]
}
