{
	"asset":{
		"generator":"Khronos glTF Blender I/O v3.6.28",
		"version":"2.0"
	},
	"scene":0,
	"scenes":[
		{
			"name":"Scene",
			"nodes":[
				0
			]
		}
	],
	"nodes":[
		{
			"mesh":0,
			"name":"portico1"
		}
	],
	"materials":[
		{
			"extras":{
				"dirt":0,
				"tag":"tracker_left"
			},
			"name":"Material 1 (lemt.png).022",
			"pbrMetallicRoughness":{
				"baseColorTexture":{
					"index":0
				},
				"metallicFactor":0
			}
		},
		{
			"extras":{
				"dirt":1,
				"recolor":"team",
				"recolor_ref":[
					0.039,
					0.651,
					0.996
				]
			},
			"name":"Material 2 (subm.png).002",
			"pbrMetallicRoughness":{
				"baseColorTexture":{
					"index":1
				},
				"metallicFactor":0
			}
		},
		{
			"extras":{
				"dirt":0,
				"tag":"tracker_right"
			},
			"name":"Material 3 (lemt.png).004",
			"pbrMetallicRoughness":{
				"baseColorTexture":{
					"index":2
				},
				"metallicFactor":0
			}
		},
		{
			"extras":{
				"dirt":1,
				"recolor":"team",
				"recolor_ref":[
					0.039,
					0.651,
					0.996
				]
			},
			"name":"Material 4 (lemt.png).003",
			"pbrMetallicRoughness":{
				"baseColorTexture":{
					"index":3
				},
				"metallicFactor":0
			}
		},
		{
			"extras":{
				"dirt":1,
				"recolor":"team",
				"recolor_ref":[
					0.039,
					0.651,
					0.996
				]
			},
			"name":"Material 5 (factory.png).008",
			"pbrMetallicRoughness":{
				"baseColorTexture":{
					"index":4
				},
				"metallicFactor":0
			}
		},
		{
			"extras":{
				"dirt":1,
				"recolor":"team",
				"recolor_ref":[
					0.039,
					0.651,
					0.996
				]
			},
			"name":"Material 6 (roller.png)",
			"pbrMetallicRoughness":{
				"baseColorTexture":{
					"index":5
				},
				"metallicFactor":0
			}
		},
		{
			"extras":{
				"dirt":1,
				"recolor":"team",
				"recolor_ref":[
					0.039,
					0.651,
					0.996
				]
			},
			"name":"Material 7 (lemt.png).006",
			"pbrMetallicRoughness":{
				"baseColorFactor":[
					0.30000001192092896,
					0.30000001192092896,
					0.30000001192092896,
					1
				],
				"baseColorTexture":{
					"index":6
				},
				"metallicFactor":0
			}
		}
	],
	"meshes":[
		{
			"name":"portico1",
			"primitives":[
				{
					"attributes":{
						"POSITION":0,
						"NORMAL":1,
						"TEXCOORD_0":2,
						"TEXCOORD_1":3
					},
					"indices":4,
					"material":0
				},
				{
					"attributes":{
						"POSITION":5,
						"NORMAL":6,
						"TEXCOORD_0":7,
						"TEXCOORD_1":8
					},
					"indices":9,
					"material":1
				},
				{
					"attributes":{
						"POSITION":10,
						"NORMAL":11,
						"TEXCOORD_0":12,
						"TEXCOORD_1":13
					},
					"indices":4,
					"material":2
				},
				{
					"attributes":{
						"POSITION":14,
						"NORMAL":15,
						"TEXCOORD_0":16,
						"TEXCOORD_1":17
					},
					"indices":18,
					"material":3
				},
				{
					"attributes":{
						"POSITION":19,
						"NORMAL":20,
						"TEXCOORD_0":21,
						"TEXCOORD_1":22
					},
					"indices":23,
					"material":4
				},
				{
					"attributes":{
						"POSITION":24,
						"NORMAL":25,
						"TEXCOORD_0":26,
						"TEXCOORD_1":27
					},
					"indices":28,
					"material":5
				},
				{
					"attributes":{
						"POSITION":29,
						"NORMAL":30,
						"TEXCOORD_0":31,
						"TEXCOORD_1":32
					},
					"indices":33,
					"material":6
				}
			]
		}
	],
	"textures":[
		{
			"sampler":0,
			"source":0
		},
		{
			"sampler":0,
			"source":1
		},
		{
			"sampler":0,
			"source":0
		},
		{
			"sampler":0,
			"source":0
		},
		{
			"sampler":0,
			"source":2
		},
		{
			"sampler":0,
			"source":3
		},
		{
			"sampler":0,
			"source":0
		}
	],
	"images":[
		{
			"mimeType":"image/png",
			"name":"lemt",
			"uri":"lemt.png"
		},
		{
			"mimeType":"image/png",
			"name":"subm",
			"uri":"subm.png"
		},
		{
			"mimeType":"image/png",
			"name":"factory",
			"uri":"factory.png"
		},
		{
			"mimeType":"image/png",
			"name":"roller",
			"uri":"roller.png"
		}
	],
	"accessors":[
		{
			"bufferView":0,
			"componentType":5126,
			"count":46,
			"max":[
				40.09443664550781,
				19.99382972717285,
				53.84192657470703
			],
			"min":[
				-39.8634033203125,
				-0.024406999349594116,
				29.8419246673584
			],
			"type":"VEC3"
		},
		{
			"bufferView":1,
			"componentType":5126,
			"count":46,
			"type":"VEC3"
		},
		{
			"bufferView":2,
			"componentType":5126,
			"count":46,
			"type":"VEC2"
		},
		{
			"bufferView":3,
			"componentType":5126,
			"count":46,
			"type":"VEC2"
		},
		{
			"bufferView":4,
			"componentType":5123,
			"count":72,
			"type":"SCALAR"
		},
		{
			"bufferView":5,
			"componentType":5126,
			"count":48,
			"max":[
				40.09443664550781,
				19.99382972717285,
				53.84192657470703
			],
			"min":[
				-39.8634033203125,
				-0.024406999349594116,
				-54.017822265625
			],
			"type":"VEC3"
		},
		{
			"bufferView":6,
			"componentType":5126,
			"count":48,
			"type":"VEC3"
		},
		{
			"bufferView":7,
			"componentType":5126,
			"count":48,
			"type":"VEC2"
		},
		{
			"bufferView":8,
			"componentType":5126,
			"count":48,
			"type":"VEC2"
		},
		{
			"bufferView":9,
			"componentType":5123,
			"count":120,
			"type":"SCALAR"
		},
		{
			"bufferView":10,
			"componentType":5126,
			"count":46,
			"max":[
				40.09443664550781,
				19.99382972717285,
				-30.017820358276367
			],
			"min":[
				-39.8634033203125,
				-0.024406999349594116,
				-54.017822265625
			],
			"type":"VEC3"
		},
		{
			"bufferView":11,
			"componentType":5126,
			"count":46,
			"type":"VEC3"
		},
		{
			"bufferView":12,
			"componentType":5126,
			"count":46,
			"type":"VEC2"
		},
		{
			"bufferView":13,
			"componentType":5126,
			"count":46,
			"type":"VEC2"
		},
		{
			"bufferView":14,
			"componentType":5126,
			"count":16,
			"max":[
				40,
				70,
				40
			],
			"min":[
				-40,
				25.01751708984375,
				-40
			],
			"type":"VEC3"
		},
		{
			"bufferView":15,
			"componentType":5126,
			"count":16,
			"type":"VEC3"
		},
		{
			"bufferView":16,
			"componentType":5126,
			"count":16,
			"type":"VEC2"
		},
		{
			"bufferView":17,
			"componentType":5126,
			"count":16,
			"type":"VEC2"
		},
		{
			"bufferView":18,
			"componentType":5123,
			"count":24,
			"type":"SCALAR"
		},
		{
			"bufferView":19,
			"componentType":5126,
			"count":48,
			"max":[
				35,
				70,
				35
			],
			"min":[
				-35,
				25.01751708984375,
				-35
			],
			"type":"VEC3"
		},
		{
			"bufferView":20,
			"componentType":5126,
			"count":48,
			"type":"VEC3"
		},
		{
			"bufferView":21,
			"componentType":5126,
			"count":48,
			"type":"VEC2"
		},
		{
			"bufferView":22,
			"componentType":5126,
			"count":48,
			"type":"VEC2"
		},
		{
			"bufferView":23,
			"componentType":5123,
			"count":72,
			"type":"SCALAR"
		},
		{
			"bufferView":24,
			"componentType":5126,
			"count":20,
			"max":[
				40,
				50,
				40
			],
			"min":[
				-40,
				40,
				-40
			],
			"type":"VEC3"
		},
		{
			"bufferView":25,
			"componentType":5126,
			"count":20,
			"type":"VEC3"
		},
		{
			"bufferView":26,
			"componentType":5126,
			"count":20,
			"type":"VEC2"
		},
		{
			"bufferView":27,
			"componentType":5126,
			"count":20,
			"type":"VEC2"
		},
		{
			"bufferView":28,
			"componentType":5123,
			"count":30,
			"type":"SCALAR"
		},
		{
			"bufferView":29,
			"componentType":5126,
			"count":36,
			"max":[
				35.35053634643555,
				24.892608642578125,
				30
			],
			"min":[
				-34.84400939941406,
				4.892609119415283,
				-30
			],
			"type":"VEC3"
		},
		{
			"bufferView":30,
			"componentType":5126,
			"count":36,
			"type":"VEC3"
		},
		{
			"bufferView":31,
			"componentType":5126,
			"count":36,
			"type":"VEC2"
		},
		{
			"bufferView":32,
			"componentType":5126,
			"count":36,
			"type":"VEC2"
		},
		{
			"bufferView":33,
			"componentType":5123,
			"count":66,
			"type":"SCALAR"
		}
	],
	"bufferViews":[
		{
			"buffer":0,
			"byteLength":552,
			"byteOffset":0,
			"target":34962
		},
		{
			"buffer":0,
			"byteLength":552,
			"byteOffset":552,
			"target":34962
		},
		{
			"buffer":0,
			"byteLength":368,
			"byteOffset":1104,
			"target":34962
		},
		{
			"buffer":0,
			"byteLength":368,
			"byteOffset":1472,
			"target":34962
		},
		{
			"buffer":0,
			"byteLength":144,
			"byteOffset":1840,
			"target":34963
		},
		{
			"buffer":0,
			"byteLength":576,
			"byteOffset":1984,
			"target":34962
		},
		{
			"buffer":0,
			"byteLength":576,
			"byteOffset":2560,
			"target":34962
		},
		{
			"buffer":0,
			"byteLength":384,
			"byteOffset":3136,
			"target":34962
		},
		{
			"buffer":0,
			"byteLength":384,
			"byteOffset":3520,
			"target":34962
		},
		{
			"buffer":0,
			"byteLength":240,
			"byteOffset":3904,
			"target":34963
		},
		{
			"buffer":0,
			"byteLength":552,
			"byteOffset":4144,
			"target":34962
		},
		{
			"buffer":0,
			"byteLength":552,
			"byteOffset":4696,
			"target":34962
		},
		{
			"buffer":0,
			"byteLength":368,
			"byteOffset":5248,
			"target":34962
		},
		{
			"buffer":0,
			"byteLength":368,
			"byteOffset":5616,
			"target":34962
		},
		{
			"buffer":0,
			"byteLength":192,
			"byteOffset":5984,
			"target":34962
		},
		{
			"buffer":0,
			"byteLength":192,
			"byteOffset":6176,
			"target":34962
		},
		{
			"buffer":0,
			"byteLength":128,
			"byteOffset":6368,
			"target":34962
		},
		{
			"buffer":0,
			"byteLength":128,
			"byteOffset":6496,
			"target":34962
		},
		{
			"buffer":0,
			"byteLength":48,
			"byteOffset":6624,
			"target":34963
		},
		{
			"buffer":0,
			"byteLength":576,
			"byteOffset":6672,
			"target":34962
		},
		{
			"buffer":0,
			"byteLength":576,
			"byteOffset":7248,
			"target":34962
		},
		{
			"buffer":0,
			"byteLength":384,
			"byteOffset":7824,
			"target":34962
		},
		{
			"buffer":0,
			"byteLength":384,
			"byteOffset":8208,
			"target":34962
		},
		{
			"buffer":0,
			"byteLength":144,
			"byteOffset":8592,
			"target":34963
		},
		{
			"buffer":0,
			"byteLength":240,
			"byteOffset":8736,
			"target":34962
		},
		{
			"buffer":0,
			"byteLength":240,
			"byteOffset":8976,
			"target":34962
		},
		{
			"buffer":0,
			"byteLength":160,
			"byteOffset":9216,
			"target":34962
		},
		{
			"buffer":0,
			"byteLength":160,
			"byteOffset":9376,
			"target":34962
		},
		{
			"buffer":0,
			"byteLength":60,
			"byteOffset":9536,
			"target":34963
		},
		{
			"buffer":0,
			"byteLength":432,
			"byteOffset":9596,
			"target":34962
		},
		{
			"buffer":0,
			"byteLength":432,
			"byteOffset":10028,
			"target":34962
		},
		{
			"buffer":0,
			"byteLength":288,
			"byteOffset":10460,
			"target":34962
		},
		{
			"buffer":0,
			"byteLength":288,
			"byteOffset":10748,
			"target":34962
		},
		{
			"buffer":0,
			"byteLength":132,
			"byteOffset":11036,
			"target":34963
		}
	],
	"samplers":[
		{
			"magFilter":9729,
			"minFilter":9987
		}
	],
	"buffers":[
		{
			"byteLength":11168,
			"uri":"portico1.bin"
		}
	]
}
