{
	"asset":{
		"generator":"Khronos glTF Blender I/O v4.2.57",
		"version":"2.0"
	},
	"scene":0,
	"scenes":[
		{
			"name":"Scene",
			"nodes":[
				0
			]
		}
	],
	"nodes":[
		{
			"mesh":0,
			"name":"portico1"
		}
	],
	"materials":[
		{
			"extras":{
				"dirt":0,
				"tag":"tracker_left"
			},
			"name":"Material 1 (lemt.png).022",
			"pbrMetallicRoughness":{
				"baseColorTexture":{
					"index":0
				},
				"metallicFactor":0
			}
		},
		{
			"alphaMode":"BLEND",
			"extras":{
				"dirt":1,
				"recolor_ref":[
					0.039000000804662704,
					0.6510000228881836,
					0.9959999918937683
				],
				"recolor":"team"
			},
			"name":"Material",
			"pbrMetallicRoughness":{
				"baseColorTexture":{
					"index":1
				},
				"metallicFactor":0
			}
		},
		{
			"extras":{
				"dirt":0,
				"tag":"tracker_right"
			},
			"name":"Material 3 (lemt.png).004",
			"pbrMetallicRoughness":{
				"baseColorTexture":{
					"index":2
				},
				"metallicFactor":0
			}
		},
		{
			"extras":{
				"dirt":1,
				"recolor":"team",
				"recolor_ref":[
					0.039,
					0.651,
					0.996
				]
			},
			"name":"Material_Shaded",
			"pbrMetallicRoughness":{
				"baseColorFactor":[
					0.30000001192092896,
					0.30000001192092896,
					0.30000001192092896,
					1
				],
				"baseColorTexture":{
					"index":3
				},
				"metallicFactor":0
			}
		}
	],
	"meshes":[
		{
			"name":"portico1",
			"primitives":[
				{
					"attributes":{
						"POSITION":0,
						"NORMAL":1,
						"TEXCOORD_0":2,
						"TEXCOORD_1":3
					},
					"indices":4,
					"material":0
				},
				{
					"attributes":{
						"POSITION":5,
						"NORMAL":6,
						"TEXCOORD_0":7,
						"TEXCOORD_1":8
					},
					"indices":9,
					"material":1
				},
				{
					"attributes":{
						"POSITION":10,
						"NORMAL":11,
						"TEXCOORD_0":12,
						"TEXCOORD_1":13
					},
					"indices":4,
					"material":2
				},
				{
					"attributes":{
						"POSITION":14,
						"NORMAL":15,
						"TEXCOORD_0":16,
						"TEXCOORD_1":17
					},
					"indices":18,
					"material":3
				}
			]
		}
	],
	"textures":[
		{
			"sampler":0,
			"source":0
		},
		{
			"sampler":0,
			"source":1
		},
		{
			"sampler":0,
			"source":0
		},
		{
			"sampler":0,
			"source":1
		}
	],
	"images":[
		{
			"mimeType":"image/png",
			"name":"animated",
			"uri":"animated.png"
		},
		{
			"mimeType":"image/png",
			"name":"objects",
			"uri":"objects.png"
		}
	],
	"accessors":[
		{
			"bufferView":0,
			"componentType":5126,
			"count":46,
			"max":[
				40.09443664550781,
				19.99382972717285,
				53.84192657470703
			],
			"min":[
				-39.8634033203125,
				-0.024406999349594116,
				29.8419246673584
			],
			"type":"VEC3"
		},
		{
			"bufferView":1,
			"componentType":5126,
			"count":46,
			"type":"VEC3"
		},
		{
			"bufferView":2,
			"componentType":5126,
			"count":46,
			"type":"VEC2"
		},
		{
			"bufferView":3,
			"componentType":5126,
			"count":46,
			"type":"VEC2"
		},
		{
			"bufferView":4,
			"componentType":5123,
			"count":72,
			"type":"SCALAR"
		},
		{
			"bufferView":5,
			"componentType":5126,
			"count":132,
			"max":[
				40.09443664550781,
				70,
				53.84192657470703
			],
			"min":[
				-40,
				-0.024406999349594116,
				-54.017822265625
			],
			"type":"VEC3"
		},
		{
			"bufferView":6,
			"componentType":5126,
			"count":132,
			"type":"VEC3"
		},
		{
			"bufferView":7,
			"componentType":5126,
			"count":132,
			"type":"VEC2"
		},
		{
			"bufferView":8,
			"componentType":5126,
			"count":132,
			"type":"VEC2"
		},
		{
			"bufferView":9,
			"componentType":5123,
			"count":246,
			"type":"SCALAR"
		},
		{
			"bufferView":10,
			"componentType":5126,
			"count":46,
			"max":[
				40.09443664550781,
				19.99382972717285,
				-30.017820358276367
			],
			"min":[
				-39.8634033203125,
				-0.024406999349594116,
				-54.017822265625
			],
			"type":"VEC3"
		},
		{
			"bufferView":11,
			"componentType":5126,
			"count":46,
			"type":"VEC3"
		},
		{
			"bufferView":12,
			"componentType":5126,
			"count":46,
			"type":"VEC2"
		},
		{
			"bufferView":13,
			"componentType":5126,
			"count":46,
			"type":"VEC2"
		},
		{
			"bufferView":14,
			"componentType":5126,
			"count":36,
			"max":[
				35.35053634643555,
				24.892608642578125,
				30
			],
			"min":[
				-34.84400939941406,
				4.892609119415283,
				-30
			],
			"type":"VEC3"
		},
		{
			"bufferView":15,
			"componentType":5126,
			"count":36,
			"type":"VEC3"
		},
		{
			"bufferView":16,
			"componentType":5126,
			"count":36,
			"type":"VEC2"
		},
		{
			"bufferView":17,
			"componentType":5126,
			"count":36,
			"type":"VEC2"
		},
		{
			"bufferView":18,
			"componentType":5123,
			"count":66,
			"type":"SCALAR"
		}
	],
	"bufferViews":[
		{
			"buffer":0,
			"byteLength":552,
			"byteOffset":0,
			"target":34962
		},
		{
			"buffer":0,
			"byteLength":552,
			"byteOffset":552,
			"target":34962
		},
		{
			"buffer":0,
			"byteLength":368,
			"byteOffset":1104,
			"target":34962
		},
		{
			"buffer":0,
			"byteLength":368,
			"byteOffset":1472,
			"target":34962
		},
		{
			"buffer":0,
			"byteLength":144,
			"byteOffset":1840,
			"target":34963
		},
		{
			"buffer":0,
			"byteLength":1584,
			"byteOffset":1984,
			"target":34962
		},
		{
			"buffer":0,
			"byteLength":1584,
			"byteOffset":3568,
			"target":34962
		},
		{
			"buffer":0,
			"byteLength":1056,
			"byteOffset":5152,
			"target":34962
		},
		{
			"buffer":0,
			"byteLength":1056,
			"byteOffset":6208,
			"target":34962
		},
		{
			"buffer":0,
			"byteLength":492,
			"byteOffset":7264,
			"target":34963
		},
		{
			"buffer":0,
			"byteLength":552,
			"byteOffset":7756,
			"target":34962
		},
		{
			"buffer":0,
			"byteLength":552,
			"byteOffset":8308,
			"target":34962
		},
		{
			"buffer":0,
			"byteLength":368,
			"byteOffset":8860,
			"target":34962
		},
		{
			"buffer":0,
			"byteLength":368,
			"byteOffset":9228,
			"target":34962
		},
		{
			"buffer":0,
			"byteLength":432,
			"byteOffset":9596,
			"target":34962
		},
		{
			"buffer":0,
			"byteLength":432,
			"byteOffset":10028,
			"target":34962
		},
		{
			"buffer":0,
			"byteLength":288,
			"byteOffset":10460,
			"target":34962
		},
		{
			"buffer":0,
			"byteLength":288,
			"byteOffset":10748,
			"target":34962
		},
		{
			"buffer":0,
			"byteLength":132,
			"byteOffset":11036,
			"target":34963
		}
	],
	"samplers":[
		{
			"magFilter":9729,
			"minFilter":9987
		}
	],
	"buffers":[
		{
			"byteLength":11168,
			"uri":"portico1.bin"
		}
	]
}
