{
	"asset":{
		"generator":"Khronos glTF Blender I/O v3.6.28",
		"version":"2.0"
	},
	"scene":0,
	"scenes":[
		{
			"name":"Scene",
			"nodes":[
				0
			]
		}
	],
	"nodes":[
		{
			"mesh":0,
			"name":"portico7"
		}
	],
	"materials":[
		{
			"extras":{
				"dirt":1,
				"recolor":"team",
				"recolor_ref":[
					0.039,
					0.651,
					0.996
				]
			},
			"name":"Material 1 (lemt.png)",
			"pbrMetallicRoughness":{
				"baseColorTexture":{
					"index":0
				},
				"metallicFactor":0
			}
		},
		{
			"extras":{
				"dirt":1,
				"recolor":"team",
				"recolor_ref":[
					0.039,
					0.651,
					0.996
				]
			},
			"name":"Material 2 (convert.png)",
			"pbrMetallicRoughness":{
				"baseColorTexture":{
					"index":1
				},
				"metallicFactor":0
			}
		},
		{
			"extras":{
				"dirt":1,
				"recolor":"team",
				"recolor_ref":[
					0.039,
					0.651,
					0.996
				]
			},
			"name":"Material 3",
			"pbrMetallicRoughness":{
				"baseColorFactor":[
					0.30000001192092896,
					0.30000001192092896,
					0.30000001192092896,
					1
				],
				"metallicFactor":0
			}
		}
	],
	"meshes":[
		{
			"name":"portico7",
			"primitives":[
				{
					"attributes":{
						"POSITION":0,
						"NORMAL":1,
						"TEXCOORD_0":2,
						"TEXCOORD_1":3
					},
					"indices":4,
					"material":0
				},
				{
					"attributes":{
						"POSITION":5,
						"NORMAL":6,
						"TEXCOORD_0":7,
						"TEXCOORD_1":8
					},
					"indices":9,
					"material":1
				},
				{
					"attributes":{
						"POSITION":10,
						"NORMAL":11,
						"TEXCOORD_0":12,
						"TEXCOORD_1":13
					},
					"indices":14,
					"material":2
				}
			]
		}
	],
	"textures":[
		{
			"sampler":0,
			"source":0
		},
		{
			"sampler":0,
			"source":1
		}
	],
	"images":[
		{
			"mimeType":"image/png",
			"name":"lemt",
			"uri":"lemt.png"
		},
		{
			"mimeType":"image/png",
			"name":"convert",
			"uri":"convert.png"
		}
	],
	"accessors":[
		{
			"bufferView":0,
			"componentType":5126,
			"count":20,
			"max":[
				4.28352689743042,
				2.0109128952026367,
				1.4880160093307495
			],
			"min":[
				-4.283098220825195,
				-1.9826560020446777,
				-0.3225489854812622
			],
			"type":"VEC3"
		},
		{
			"bufferView":1,
			"componentType":5126,
			"count":20,
			"type":"VEC3"
		},
		{
			"bufferView":2,
			"componentType":5126,
			"count":20,
			"type":"VEC2"
		},
		{
			"bufferView":3,
			"componentType":5126,
			"count":20,
			"type":"VEC2"
		},
		{
			"bufferView":4,
			"componentType":5123,
			"count":72,
			"type":"SCALAR"
		},
		{
			"bufferView":5,
			"componentType":5126,
			"count":20,
			"max":[
				4,
				2.0109119415283203,
				1.8692580461502075
			],
			"min":[
				-4,
				-1.9826560020446777,
				0.1774509996175766
			],
			"type":"VEC3"
		},
		{
			"bufferView":6,
			"componentType":5126,
			"count":20,
			"type":"VEC3"
		},
		{
			"bufferView":7,
			"componentType":5126,
			"count":20,
			"type":"VEC2"
		},
		{
			"bufferView":8,
			"componentType":5126,
			"count":20,
			"type":"VEC2"
		},
		{
			"bufferView":9,
			"componentType":5123,
			"count":72,
			"type":"SCALAR"
		},
		{
			"bufferView":10,
			"componentType":5126,
			"count":72,
			"max":[
				4.28352689743042,
				2.0109128952026367,
				1.8692580461502075
			],
			"min":[
				-4.283098220825195,
				-1.9826560020446777,
				-0.06696700304746628
			],
			"type":"VEC3"
		},
		{
			"bufferView":11,
			"componentType":5126,
			"count":72,
			"type":"VEC3"
		},
		{
			"bufferView":12,
			"componentType":5126,
			"count":72,
			"type":"VEC2"
		},
		{
			"bufferView":13,
			"componentType":5126,
			"count":72,
			"type":"VEC2"
		},
		{
			"bufferView":14,
			"componentType":5123,
			"count":84,
			"type":"SCALAR"
		}
	],
	"bufferViews":[
		{
			"buffer":0,
			"byteLength":240,
			"byteOffset":0,
			"target":34962
		},
		{
			"buffer":0,
			"byteLength":240,
			"byteOffset":240,
			"target":34962
		},
		{
			"buffer":0,
			"byteLength":160,
			"byteOffset":480,
			"target":34962
		},
		{
			"buffer":0,
			"byteLength":160,
			"byteOffset":640,
			"target":34962
		},
		{
			"buffer":0,
			"byteLength":144,
			"byteOffset":800,
			"target":34963
		},
		{
			"buffer":0,
			"byteLength":240,
			"byteOffset":944,
			"target":34962
		},
		{
			"buffer":0,
			"byteLength":240,
			"byteOffset":1184,
			"target":34962
		},
		{
			"buffer":0,
			"byteLength":160,
			"byteOffset":1424,
			"target":34962
		},
		{
			"buffer":0,
			"byteLength":160,
			"byteOffset":1584,
			"target":34962
		},
		{
			"buffer":0,
			"byteLength":144,
			"byteOffset":1744,
			"target":34963
		},
		{
			"buffer":0,
			"byteLength":864,
			"byteOffset":1888,
			"target":34962
		},
		{
			"buffer":0,
			"byteLength":864,
			"byteOffset":2752,
			"target":34962
		},
		{
			"buffer":0,
			"byteLength":576,
			"byteOffset":3616,
			"target":34962
		},
		{
			"buffer":0,
			"byteLength":576,
			"byteOffset":4192,
			"target":34962
		},
		{
			"buffer":0,
			"byteLength":168,
			"byteOffset":4768,
			"target":34963
		}
	],
	"samplers":[
		{
			"magFilter":9729,
			"minFilter":9987
		}
	],
	"buffers":[
		{
			"byteLength":4936,
			"uri":"portico7.bin"
		}
	]
}
