{
	"asset":{
		"generator":"Khronos glTF Blender I/O v3.6.28",
		"version":"2.0"
	},
	"scene":0,
	"scenes":[
		{
			"name":"Scene",
			"nodes":[
				0
			]
		}
	],
	"nodes":[
		{
			"mesh":0,
			"name":"radar2"
		}
	],
	"materials":[
		{
			"extras":{
				"dirt":1,
				"recolor":"team",
				"recolor_ref":[
					0.039,
					0.651,
					0.996
				]
			},
			"name":"Material 1 (derrick.png)",
			"pbrMetallicRoughness":{
				"baseColorTexture":{
					"index":0
				},
				"metallicFactor":0
			}
		},
		{
			"extras":{
				"dirt":1,
				"recolor":"team",
				"recolor_ref":[
					0.039,
					0.651,
					0.996
				]
			},
			"name":"Material 2 (lemt.png)",
			"pbrMetallicRoughness":{
				"baseColorTexture":{
					"index":1
				},
				"metallicFactor":0
			}
		}
	],
	"meshes":[
		{
			"name":"radar2",
			"primitives":[
				{
					"attributes":{
						"POSITION":0,
						"NORMAL":1,
						"TEXCOORD_0":2,
						"TEXCOORD_1":3
					},
					"indices":4,
					"material":0
				},
				{
					"attributes":{
						"POSITION":5,
						"NORMAL":6,
						"TEXCOORD_0":7,
						"TEXCOORD_1":8
					},
					"indices":9,
					"material":1
				}
			]
		}
	],
	"textures":[
		{
			"sampler":0,
			"source":0
		},
		{
			"sampler":0,
			"source":1
		}
	],
	"images":[
		{
			"mimeType":"image/png",
			"name":"derrick",
			"uri":"derrick.png"
		},
		{
			"mimeType":"image/png",
			"name":"lemt",
			"uri":"lemt.png"
		}
	],
	"accessors":[
		{
			"bufferView":0,
			"componentType":5126,
			"count":28,
			"max":[
				1.5,
				6,
				1.5
			],
			"min":[
				-1.5,
				0,
				-1.5
			],
			"type":"VEC3"
		},
		{
			"bufferView":1,
			"componentType":5126,
			"count":28,
			"type":"VEC3"
		},
		{
			"bufferView":2,
			"componentType":5126,
			"count":28,
			"type":"VEC2"
		},
		{
			"bufferView":3,
			"componentType":5126,
			"count":28,
			"type":"VEC2"
		},
		{
			"bufferView":4,
			"componentType":5123,
			"count":48,
			"type":"SCALAR"
		},
		{
			"bufferView":5,
			"componentType":5126,
			"count":125,
			"max":[
				5.011812210083008,
				6,
				3
			],
			"min":[
				-4.682599067687988,
				0.44658800959587097,
				-3
			],
			"type":"VEC3"
		},
		{
			"bufferView":6,
			"componentType":5126,
			"count":125,
			"type":"VEC3"
		},
		{
			"bufferView":7,
			"componentType":5126,
			"count":125,
			"type":"VEC2"
		},
		{
			"bufferView":8,
			"componentType":5126,
			"count":125,
			"type":"VEC2"
		},
		{
			"bufferView":9,
			"componentType":5123,
			"count":192,
			"type":"SCALAR"
		}
	],
	"bufferViews":[
		{
			"buffer":0,
			"byteLength":336,
			"byteOffset":0,
			"target":34962
		},
		{
			"buffer":0,
			"byteLength":336,
			"byteOffset":336,
			"target":34962
		},
		{
			"buffer":0,
			"byteLength":224,
			"byteOffset":672,
			"target":34962
		},
		{
			"buffer":0,
			"byteLength":224,
			"byteOffset":896,
			"target":34962
		},
		{
			"buffer":0,
			"byteLength":96,
			"byteOffset":1120,
			"target":34963
		},
		{
			"buffer":0,
			"byteLength":1500,
			"byteOffset":1216,
			"target":34962
		},
		{
			"buffer":0,
			"byteLength":1500,
			"byteOffset":2716,
			"target":34962
		},
		{
			"buffer":0,
			"byteLength":1000,
			"byteOffset":4216,
			"target":34962
		},
		{
			"buffer":0,
			"byteLength":1000,
			"byteOffset":5216,
			"target":34962
		},
		{
			"buffer":0,
			"byteLength":384,
			"byteOffset":6216,
			"target":34963
		}
	],
	"samplers":[
		{
			"magFilter":9729,
			"minFilter":9987
		}
	],
	"buffers":[
		{
			"byteLength":6600,
			"uri":"radar2.bin"
		}
	]
}
