{
	"asset":{
		"generator":"Khronos glTF Blender I/O v4.2.57",
		"version":"2.0"
	},
	"scene":0,
	"scenes":[
		{
			"name":"Scene",
			"nodes":[
				0
			]
		}
	],
	"nodes":[
		{
			"mesh":0,
			"name":"repair1"
		}
	],
	"materials":[
		{
			"alphaMode":"BLEND",
			"extras":{
				"dirt":1,
				"recolor_ref":[
					0.039000000804662704,
					0.6510000228881836,
					0.9959999918937683
				],
				"recolor":"team"
			},
			"name":"Material",
			"pbrMetallicRoughness":{
				"baseColorTexture":{
					"index":0
				},
				"metallicFactor":0
			}
		}
	],
	"meshes":[
		{
			"name":"repair1",
			"primitives":[
				{
					"attributes":{
						"POSITION":0,
						"NORMAL":1,
						"TEXCOORD_0":2,
						"TEXCOORD_1":3
					},
					"indices":4,
					"material":0
				}
			]
		}
	],
	"textures":[
		{
			"sampler":0,
			"source":0
		}
	],
	"images":[
		{
			"mimeType":"image/png",
			"name":"objects",
			"uri":"objects.png"
		}
	],
	"accessors":[
		{
			"bufferView":0,
			"componentType":5126,
			"count":141,
			"max":[
				9.248729705810547,
				14.486799240112305,
				10
			],
			"min":[
				-18.009387969970703,
				-1.0041999816894531,
				-10
			],
			"type":"VEC3"
		},
		{
			"bufferView":1,
			"componentType":5126,
			"count":141,
			"type":"VEC3"
		},
		{
			"bufferView":2,
			"componentType":5126,
			"count":141,
			"type":"VEC2"
		},
		{
			"bufferView":3,
			"componentType":5126,
			"count":141,
			"type":"VEC2"
		},
		{
			"bufferView":4,
			"componentType":5123,
			"count":210,
			"type":"SCALAR"
		}
	],
	"bufferViews":[
		{
			"buffer":0,
			"byteLength":1692,
			"byteOffset":0,
			"target":34962
		},
		{
			"buffer":0,
			"byteLength":1692,
			"byteOffset":1692,
			"target":34962
		},
		{
			"buffer":0,
			"byteLength":1128,
			"byteOffset":3384,
			"target":34962
		},
		{
			"buffer":0,
			"byteLength":1128,
			"byteOffset":4512,
			"target":34962
		},
		{
			"buffer":0,
			"byteLength":420,
			"byteOffset":5640,
			"target":34963
		}
	],
	"samplers":[
		{
			"magFilter":9729,
			"minFilter":9987
		}
	],
	"buffers":[
		{
			"byteLength":6060,
			"uri":"repair1.bin"
		}
	]
}
