{
	"asset":{
		"generator":"Khronos glTF Blender I/O v3.6.28",
		"version":"2.0"
	},
	"scene":0,
	"scenes":[
		{
			"name":"Scene",
			"nodes":[
				0
			]
		}
	],
	"nodes":[
		{
			"mesh":0,
			"name":"roller3p"
		}
	],
	"materials":[
		{
			"extras":{
				"dirt":1,
				"recolor":"team",
				"recolor_ref":[
					0.039,
					0.651,
					0.996
				]
			},
			"name":"Material 1 (lemt.png)",
			"pbrMetallicRoughness":{
				"baseColorTexture":{
					"index":0
				},
				"metallicFactor":0
			}
		},
		{
			"extras":{
				"dirt":1,
				"recolor":"team",
				"recolor_ref":[
					0.039,
					0.651,
					0.996
				]
			},
			"name":"Material 2 (roller.png)",
			"pbrMetallicRoughness":{
				"baseColorTexture":{
					"index":1
				},
				"metallicFactor":0
			}
		},
		{
			"extras":{
				"dirt":1,
				"recolor":"team",
				"recolor_ref":[
					0.039,
					0.651,
					0.996
				]
			},
			"name":"Material 3 (factory.png)",
			"pbrMetallicRoughness":{
				"baseColorTexture":{
					"index":2
				},
				"metallicFactor":0
			}
		}
	],
	"meshes":[
		{
			"name":"roller3p",
			"primitives":[
				{
					"attributes":{
						"POSITION":0,
						"NORMAL":1,
						"TEXCOORD_0":2,
						"TEXCOORD_1":3
					},
					"indices":4,
					"material":0
				},
				{
					"attributes":{
						"POSITION":5,
						"NORMAL":6,
						"TEXCOORD_0":7,
						"TEXCOORD_1":8
					},
					"indices":9,
					"material":1
				},
				{
					"attributes":{
						"POSITION":10,
						"NORMAL":11,
						"TEXCOORD_0":12,
						"TEXCOORD_1":13
					},
					"indices":14,
					"material":2
				}
			]
		}
	],
	"textures":[
		{
			"sampler":0,
			"source":0
		},
		{
			"sampler":0,
			"source":1
		},
		{
			"sampler":0,
			"source":2
		}
	],
	"images":[
		{
			"mimeType":"image/png",
			"name":"lemt",
			"uri":"lemt.png"
		},
		{
			"mimeType":"image/png",
			"name":"roller",
			"uri":"roller.png"
		},
		{
			"mimeType":"image/png",
			"name":"factory",
			"uri":"factory.png"
		}
	],
	"accessors":[
		{
			"bufferView":0,
			"componentType":5126,
			"count":58,
			"max":[
				4,
				1.9237020015716553,
				3
			],
			"min":[
				-2,
				-3,
				-3
			],
			"type":"VEC3"
		},
		{
			"bufferView":1,
			"componentType":5126,
			"count":58,
			"type":"VEC3"
		},
		{
			"bufferView":2,
			"componentType":5126,
			"count":58,
			"type":"VEC2"
		},
		{
			"bufferView":3,
			"componentType":5126,
			"count":58,
			"type":"VEC2"
		},
		{
			"bufferView":4,
			"componentType":5123,
			"count":114,
			"type":"SCALAR"
		},
		{
			"bufferView":5,
			"componentType":5126,
			"count":224,
			"max":[
				4,
				3,
				3
			],
			"min":[
				-2,
				-3,
				-3
			],
			"type":"VEC3"
		},
		{
			"bufferView":6,
			"componentType":5126,
			"count":224,
			"type":"VEC3"
		},
		{
			"bufferView":7,
			"componentType":5126,
			"count":224,
			"type":"VEC2"
		},
		{
			"bufferView":8,
			"componentType":5126,
			"count":224,
			"type":"VEC2"
		},
		{
			"bufferView":9,
			"componentType":5123,
			"count":336,
			"type":"SCALAR"
		},
		{
			"bufferView":10,
			"componentType":5126,
			"count":12,
			"max":[
				1,
				3,
				3
			],
			"min":[
				-2,
				-3,
				-3
			],
			"type":"VEC3"
		},
		{
			"bufferView":11,
			"componentType":5126,
			"count":12,
			"type":"VEC3"
		},
		{
			"bufferView":12,
			"componentType":5126,
			"count":12,
			"type":"VEC2"
		},
		{
			"bufferView":13,
			"componentType":5126,
			"count":12,
			"type":"VEC2"
		},
		{
			"bufferView":14,
			"componentType":5123,
			"count":18,
			"type":"SCALAR"
		}
	],
	"bufferViews":[
		{
			"buffer":0,
			"byteLength":696,
			"byteOffset":0,
			"target":34962
		},
		{
			"buffer":0,
			"byteLength":696,
			"byteOffset":696,
			"target":34962
		},
		{
			"buffer":0,
			"byteLength":464,
			"byteOffset":1392,
			"target":34962
		},
		{
			"buffer":0,
			"byteLength":464,
			"byteOffset":1856,
			"target":34962
		},
		{
			"buffer":0,
			"byteLength":228,
			"byteOffset":2320,
			"target":34963
		},
		{
			"buffer":0,
			"byteLength":2688,
			"byteOffset":2548,
			"target":34962
		},
		{
			"buffer":0,
			"byteLength":2688,
			"byteOffset":5236,
			"target":34962
		},
		{
			"buffer":0,
			"byteLength":1792,
			"byteOffset":7924,
			"target":34962
		},
		{
			"buffer":0,
			"byteLength":1792,
			"byteOffset":9716,
			"target":34962
		},
		{
			"buffer":0,
			"byteLength":672,
			"byteOffset":11508,
			"target":34963
		},
		{
			"buffer":0,
			"byteLength":144,
			"byteOffset":12180,
			"target":34962
		},
		{
			"buffer":0,
			"byteLength":144,
			"byteOffset":12324,
			"target":34962
		},
		{
			"buffer":0,
			"byteLength":96,
			"byteOffset":12468,
			"target":34962
		},
		{
			"buffer":0,
			"byteLength":96,
			"byteOffset":12564,
			"target":34962
		},
		{
			"buffer":0,
			"byteLength":36,
			"byteOffset":12660,
			"target":34963
		}
	],
	"samplers":[
		{
			"magFilter":9729,
			"minFilter":9987
		}
	],
	"buffers":[
		{
			"byteLength":12696,
			"uri":"roller3p.bin"
		}
	]
}
