{
	"asset":{
		"generator":"Khronos glTF Blender I/O v4.2.57",
		"version":"2.0"
	},
	"scene":0,
	"scenes":[
		{
			"name":"Scene",
			"nodes":[
				0
			]
		}
	],
	"nodes":[
		{
			"mesh":0,
			"name":"roller3c"
		}
	],
	"materials":[
		{
			"alphaMode":"BLEND",
			"extras":{
				"dirt":1,
				"recolor_ref":[
					0.039000000804662704,
					0.6510000228881836,
					0.9959999918937683
				],
				"recolor":"team"
			},
			"name":"Material",
			"pbrMetallicRoughness":{
				"baseColorTexture":{
					"index":0
				},
				"metallicFactor":0
			}
		}
	],
	"meshes":[
		{
			"name":"roller3c",
			"primitives":[
				{
					"attributes":{
						"POSITION":0,
						"NORMAL":1,
						"TEXCOORD_0":2,
						"TEXCOORD_1":3
					},
					"indices":4,
					"material":0
				}
			]
		}
	],
	"textures":[
		{
			"sampler":0,
			"source":0
		}
	],
	"images":[
		{
			"mimeType":"image/png",
			"name":"objects",
			"uri":"objects.png"
		}
	],
	"accessors":[
		{
			"bufferView":0,
			"componentType":5126,
			"count":46,
			"max":[
				2.9471709728240967,
				3.0030529499053955,
				3
			],
			"min":[
				-2.0165090560913086,
				-2.9969470500946045,
				-3
			],
			"type":"VEC3"
		},
		{
			"bufferView":1,
			"componentType":5126,
			"count":46,
			"type":"VEC3"
		},
		{
			"bufferView":2,
			"componentType":5126,
			"count":46,
			"type":"VEC2"
		},
		{
			"bufferView":3,
			"componentType":5126,
			"count":46,
			"type":"VEC2"
		},
		{
			"bufferView":4,
			"componentType":5123,
			"count":96,
			"type":"SCALAR"
		}
	],
	"bufferViews":[
		{
			"buffer":0,
			"byteLength":552,
			"byteOffset":0,
			"target":34962
		},
		{
			"buffer":0,
			"byteLength":552,
			"byteOffset":552,
			"target":34962
		},
		{
			"buffer":0,
			"byteLength":368,
			"byteOffset":1104,
			"target":34962
		},
		{
			"buffer":0,
			"byteLength":368,
			"byteOffset":1472,
			"target":34962
		},
		{
			"buffer":0,
			"byteLength":192,
			"byteOffset":1840,
			"target":34963
		}
	],
	"samplers":[
		{
			"magFilter":9729,
			"minFilter":9987
		}
	],
	"buffers":[
		{
			"byteLength":2032,
			"uri":"roller3c.bin"
		}
	]
}
