{
	"asset":{
		"generator":"Khronos glTF Blender I/O v3.6.28",
		"version":"2.0"
	},
	"scene":0,
	"scenes":[
		{
			"name":"Scene",
			"nodes":[
				0
			]
		}
	],
	"nodes":[
		{
			"mesh":0,
			"name":"roller1"
		}
	],
	"materials":[
		{
			"extras":{
				"dirt":1,
				"recolor":"team",
				"recolor_ref":[
					0.039,
					0.651,
					0.996
				]
			},
			"name":"Material 1 (lemt.png)",
			"pbrMetallicRoughness":{
				"baseColorFactor":[
					0,
					0,
					0,
					1
				],
				"baseColorTexture":{
					"index":0
				},
				"metallicFactor":0
			}
		},
		{
			"extras":{
				"dirt":1,
				"recolor":"team",
				"recolor_ref":[
					0.039,
					0.651,
					0.996
				]
			},
			"name":"Material 2 (lemt.png)",
			"pbrMetallicRoughness":{
				"baseColorTexture":{
					"index":1
				},
				"metallicFactor":0
			}
		},
		{
			"extras":{
				"dirt":1,
				"recolor":"team",
				"recolor_ref":[
					0.039,
					0.651,
					0.996
				]
			},
			"name":"Material 3 (roller.png)",
			"pbrMetallicRoughness":{
				"baseColorTexture":{
					"index":2
				},
				"metallicFactor":0
			}
		},
		{
			"extras":{
				"dirt":1,
				"recolor":"team",
				"recolor_ref":[
					0.039,
					0.651,
					0.996
				]
			},
			"name":"Material 4 (lemt.png)",
			"pbrMetallicRoughness":{
				"baseColorFactor":[
					0.30000001192092896,
					0.30000001192092896,
					0.30000001192092896,
					1
				],
				"baseColorTexture":{
					"index":3
				},
				"metallicFactor":0
			}
		}
	],
	"meshes":[
		{
			"name":"roller1",
			"primitives":[
				{
					"attributes":{
						"POSITION":0,
						"NORMAL":1,
						"TEXCOORD_0":2,
						"TEXCOORD_1":3
					},
					"indices":4,
					"material":0
				},
				{
					"attributes":{
						"POSITION":5,
						"NORMAL":6,
						"TEXCOORD_0":7,
						"TEXCOORD_1":8
					},
					"indices":9,
					"material":1
				},
				{
					"attributes":{
						"POSITION":10,
						"NORMAL":11,
						"TEXCOORD_0":12,
						"TEXCOORD_1":13
					},
					"indices":14,
					"material":2
				},
				{
					"attributes":{
						"POSITION":15,
						"NORMAL":16,
						"TEXCOORD_0":17,
						"TEXCOORD_1":18
					},
					"indices":19,
					"material":3
				}
			]
		}
	],
	"textures":[
		{
			"sampler":0,
			"source":0
		},
		{
			"sampler":0,
			"source":0
		},
		{
			"sampler":0,
			"source":1
		},
		{
			"sampler":0,
			"source":0
		}
	],
	"images":[
		{
			"mimeType":"image/png",
			"name":"lemt",
			"uri":"lemt.png"
		},
		{
			"mimeType":"image/png",
			"name":"roller",
			"uri":"roller.png"
		}
	],
	"accessors":[
		{
			"bufferView":0,
			"componentType":5126,
			"count":12,
			"max":[
				0,
				4.314004898071289,
				5.089219093322754
			],
			"min":[
				-4.605743885040283,
				4.305823802947998,
				-5.089219093322754
			],
			"type":"VEC3"
		},
		{
			"bufferView":1,
			"componentType":5126,
			"count":12,
			"type":"VEC3"
		},
		{
			"bufferView":2,
			"componentType":5126,
			"count":12,
			"type":"VEC2"
		},
		{
			"bufferView":3,
			"componentType":5126,
			"count":12,
			"type":"VEC2"
		},
		{
			"bufferView":4,
			"componentType":5123,
			"count":12,
			"type":"SCALAR"
		},
		{
			"bufferView":5,
			"componentType":5126,
			"count":60,
			"max":[
				4,
				11.260805130004883,
				4.955390930175781
			],
			"min":[
				-6.97898006439209,
				2.308551073074341,
				-4.955389976501465
			],
			"type":"VEC3"
		},
		{
			"bufferView":6,
			"componentType":5126,
			"count":60,
			"type":"VEC3"
		},
		{
			"bufferView":7,
			"componentType":5126,
			"count":60,
			"type":"VEC2"
		},
		{
			"bufferView":8,
			"componentType":5126,
			"count":60,
			"type":"VEC2"
		},
		{
			"bufferView":9,
			"componentType":5123,
			"count":84,
			"type":"SCALAR"
		},
		{
			"bufferView":10,
			"componentType":5126,
			"count":68,
			"max":[
				4,
				11.260805130004883,
				5.089219093322754
			],
			"min":[
				-5,
				2.308551073074341,
				-5.089219093322754
			],
			"type":"VEC3"
		},
		{
			"bufferView":11,
			"componentType":5126,
			"count":68,
			"type":"VEC3"
		},
		{
			"bufferView":12,
			"componentType":5126,
			"count":68,
			"type":"VEC2"
		},
		{
			"bufferView":13,
			"componentType":5126,
			"count":68,
			"type":"VEC2"
		},
		{
			"bufferView":14,
			"componentType":5123,
			"count":90,
			"type":"SCALAR"
		},
		{
			"bufferView":15,
			"componentType":5126,
			"count":58,
			"max":[
				3.880255937576294,
				3.5655601024627686,
				3.030656099319458
			],
			"min":[
				-3.8812999725341797,
				0.46164900064468384,
				-3.032219886779785
			],
			"type":"VEC3"
		},
		{
			"bufferView":16,
			"componentType":5126,
			"count":58,
			"type":"VEC3"
		},
		{
			"bufferView":17,
			"componentType":5126,
			"count":58,
			"type":"VEC2"
		},
		{
			"bufferView":18,
			"componentType":5126,
			"count":58,
			"type":"VEC2"
		},
		{
			"bufferView":19,
			"componentType":5123,
			"count":66,
			"type":"SCALAR"
		}
	],
	"bufferViews":[
		{
			"buffer":0,
			"byteLength":144,
			"byteOffset":0,
			"target":34962
		},
		{
			"buffer":0,
			"byteLength":144,
			"byteOffset":144,
			"target":34962
		},
		{
			"buffer":0,
			"byteLength":96,
			"byteOffset":288,
			"target":34962
		},
		{
			"buffer":0,
			"byteLength":96,
			"byteOffset":384,
			"target":34962
		},
		{
			"buffer":0,
			"byteLength":24,
			"byteOffset":480,
			"target":34963
		},
		{
			"buffer":0,
			"byteLength":720,
			"byteOffset":504,
			"target":34962
		},
		{
			"buffer":0,
			"byteLength":720,
			"byteOffset":1224,
			"target":34962
		},
		{
			"buffer":0,
			"byteLength":480,
			"byteOffset":1944,
			"target":34962
		},
		{
			"buffer":0,
			"byteLength":480,
			"byteOffset":2424,
			"target":34962
		},
		{
			"buffer":0,
			"byteLength":168,
			"byteOffset":2904,
			"target":34963
		},
		{
			"buffer":0,
			"byteLength":816,
			"byteOffset":3072,
			"target":34962
		},
		{
			"buffer":0,
			"byteLength":816,
			"byteOffset":3888,
			"target":34962
		},
		{
			"buffer":0,
			"byteLength":544,
			"byteOffset":4704,
			"target":34962
		},
		{
			"buffer":0,
			"byteLength":544,
			"byteOffset":5248,
			"target":34962
		},
		{
			"buffer":0,
			"byteLength":180,
			"byteOffset":5792,
			"target":34963
		},
		{
			"buffer":0,
			"byteLength":696,
			"byteOffset":5972,
			"target":34962
		},
		{
			"buffer":0,
			"byteLength":696,
			"byteOffset":6668,
			"target":34962
		},
		{
			"buffer":0,
			"byteLength":464,
			"byteOffset":7364,
			"target":34962
		},
		{
			"buffer":0,
			"byteLength":464,
			"byteOffset":7828,
			"target":34962
		},
		{
			"buffer":0,
			"byteLength":132,
			"byteOffset":8292,
			"target":34963
		}
	],
	"samplers":[
		{
			"magFilter":9729,
			"minFilter":9987
		}
	],
	"buffers":[
		{
			"byteLength":8424,
			"uri":"roller1.bin"
		}
	]
}
