{
	"asset":{
		"generator":"Khronos glTF Blender I/O v3.6.28",
		"version":"2.0"
	},
	"scene":0,
	"scenes":[
		{
			"name":"Scene",
			"nodes":[
				0
			]
		}
	],
	"nodes":[
		{
			"mesh":0,
			"name":"root0"
		}
	],
	"materials":[
		{
			"extras":{
				"dirt":0,
				"recolor":"team",
				"recolor_ref":[
					0.039,
					0.651,
					0.996
				]
			},
			"name":"Material 1 (vegetal.png)",
			"pbrMetallicRoughness":{
				"baseColorTexture":{
					"index":0
				},
				"metallicFactor":0
			}
		}
	],
	"meshes":[
		{
			"name":"root0",
			"primitives":[
				{
					"attributes":{
						"POSITION":0,
						"NORMAL":1,
						"TEXCOORD_0":2,
						"TEXCOORD_1":3
					},
					"indices":4,
					"material":0
				}
			]
		}
	],
	"textures":[
		{
			"sampler":0,
			"source":0
		}
	],
	"images":[
		{
			"mimeType":"image/png",
			"name":"vegetal",
			"uri":"vegetal.png"
		}
	],
	"accessors":[
		{
			"bufferView":0,
			"componentType":5126,
			"count":151,
			"max":[
				7.434628009796143,
				12.005243301391602,
				6.019423007965088
			],
			"min":[
				-7.448859214782715,
				-2.048938035964966,
				-4.05258321762085
			],
			"type":"VEC3"
		},
		{
			"bufferView":1,
			"componentType":5126,
			"count":151,
			"type":"VEC3"
		},
		{
			"bufferView":2,
			"componentType":5126,
			"count":151,
			"type":"VEC2"
		},
		{
			"bufferView":3,
			"componentType":5126,
			"count":151,
			"type":"VEC2"
		},
		{
			"bufferView":4,
			"componentType":5123,
			"count":225,
			"type":"SCALAR"
		}
	],
	"bufferViews":[
		{
			"buffer":0,
			"byteLength":1812,
			"byteOffset":0,
			"target":34962
		},
		{
			"buffer":0,
			"byteLength":1812,
			"byteOffset":1812,
			"target":34962
		},
		{
			"buffer":0,
			"byteLength":1208,
			"byteOffset":3624,
			"target":34962
		},
		{
			"buffer":0,
			"byteLength":1208,
			"byteOffset":4832,
			"target":34962
		},
		{
			"buffer":0,
			"byteLength":450,
			"byteOffset":6040,
			"target":34963
		}
	],
	"samplers":[
		{
			"magFilter":9729,
			"minFilter":9987
		}
	],
	"buffers":[
		{
			"byteLength":6492,
			"uri":"root0.bin"
		}
	]
}
