{
	"asset":{
		"generator":"Khronos glTF Blender I/O v4.2.57",
		"version":"2.0"
	},
	"scene":0,
	"scenes":[
		{
			"name":"Scene",
			"nodes":[
				0
			]
		}
	],
	"nodes":[
		{
			"mesh":0,
			"name":"root2"
		}
	],
	"materials":[
		{
			"alphaMode":"BLEND",
			"extras":{
				"dirt":0
			},
			"name":"Material_NoDirtNoRecolor",
			"pbrMetallicRoughness":{
				"baseColorTexture":{
					"index":0
				},
				"metallicFactor":0
			}
		}
	],
	"meshes":[
		{
			"name":"root2",
			"primitives":[
				{
					"attributes":{
						"POSITION":0,
						"NORMAL":1,
						"TEXCOORD_0":2,
						"TEXCOORD_1":3
					},
					"indices":4,
					"material":0
				}
			]
		}
	],
	"textures":[
		{
			"sampler":0,
			"source":0
		}
	],
	"images":[
		{
			"mimeType":"image/png",
			"name":"objects",
			"uri":"objects.png"
		}
	],
	"accessors":[
		{
			"bufferView":0,
			"componentType":5126,
			"count":124,
			"max":[
				5.716217041015625,
				13.511738777160645,
				2.677194118499756
			],
			"min":[
				-5.183441162109375,
				-2.048938035964966,
				-2.51282000541687
			],
			"type":"VEC3"
		},
		{
			"bufferView":1,
			"componentType":5126,
			"count":124,
			"type":"VEC3"
		},
		{
			"bufferView":2,
			"componentType":5126,
			"count":124,
			"type":"VEC2"
		},
		{
			"bufferView":3,
			"componentType":5126,
			"count":124,
			"type":"VEC2"
		},
		{
			"bufferView":4,
			"componentType":5123,
			"count":180,
			"type":"SCALAR"
		}
	],
	"bufferViews":[
		{
			"buffer":0,
			"byteLength":1488,
			"byteOffset":0,
			"target":34962
		},
		{
			"buffer":0,
			"byteLength":1488,
			"byteOffset":1488,
			"target":34962
		},
		{
			"buffer":0,
			"byteLength":992,
			"byteOffset":2976,
			"target":34962
		},
		{
			"buffer":0,
			"byteLength":992,
			"byteOffset":3968,
			"target":34962
		},
		{
			"buffer":0,
			"byteLength":360,
			"byteOffset":4960,
			"target":34963
		}
	],
	"samplers":[
		{
			"magFilter":9729,
			"minFilter":9987
		}
	],
	"buffers":[
		{
			"byteLength":5320,
			"uri":"root2.bin"
		}
	]
}
