{
	"asset":{
		"generator":"Khronos glTF Blender I/O v4.2.57",
		"version":"2.0"
	},
	"scene":0,
	"scenes":[
		{
			"name":"Scene",
			"nodes":[
				0
			]
		}
	],
	"nodes":[
		{
			"mesh":0,
			"name":"root1"
		}
	],
	"materials":[
		{
			"alphaMode":"BLEND",
			"extras":{
				"dirt":0
			},
			"name":"Material_NoDirtNoRecolor",
			"pbrMetallicRoughness":{
				"baseColorTexture":{
					"index":0
				},
				"metallicFactor":0
			}
		}
	],
	"meshes":[
		{
			"name":"root1",
			"primitives":[
				{
					"attributes":{
						"POSITION":0,
						"NORMAL":1,
						"TEXCOORD_0":2,
						"TEXCOORD_1":3
					},
					"indices":4,
					"material":0
				}
			]
		}
	],
	"textures":[
		{
			"sampler":0,
			"source":0
		}
	],
	"images":[
		{
			"mimeType":"image/png",
			"name":"objects",
			"uri":"objects.png"
		}
	],
	"accessors":[
		{
			"bufferView":0,
			"componentType":5126,
			"count":149,
			"max":[
				6.139313220977783,
				14.810226440429688,
				4.235191822052002
			],
			"min":[
				-6.608918190002441,
				-2.048938035964966,
				-3.5025880336761475
			],
			"type":"VEC3"
		},
		{
			"bufferView":1,
			"componentType":5126,
			"count":149,
			"type":"VEC3"
		},
		{
			"bufferView":2,
			"componentType":5126,
			"count":149,
			"type":"VEC2"
		},
		{
			"bufferView":3,
			"componentType":5126,
			"count":149,
			"type":"VEC2"
		},
		{
			"bufferView":4,
			"componentType":5123,
			"count":225,
			"type":"SCALAR"
		}
	],
	"bufferViews":[
		{
			"buffer":0,
			"byteLength":1788,
			"byteOffset":0,
			"target":34962
		},
		{
			"buffer":0,
			"byteLength":1788,
			"byteOffset":1788,
			"target":34962
		},
		{
			"buffer":0,
			"byteLength":1192,
			"byteOffset":3576,
			"target":34962
		},
		{
			"buffer":0,
			"byteLength":1192,
			"byteOffset":4768,
			"target":34962
		},
		{
			"buffer":0,
			"byteLength":450,
			"byteOffset":5960,
			"target":34963
		}
	],
	"samplers":[
		{
			"magFilter":9729,
			"minFilter":9987
		}
	],
	"buffers":[
		{
			"byteLength":6412,
			"uri":"root1.bin"
		}
	]
}
