{
	"asset":{
		"generator":"Khronos glTF Blender I/O v4.2.57",
		"version":"2.0"
	},
	"scene":0,
	"scenes":[
		{
			"name":"Scene",
			"nodes":[
				0
			]
		}
	],
	"nodes":[
		{
			"mesh":0,
			"name":"ruin8"
		}
	],
	"materials":[
		{
			"extras":{
				"dirt":4,
				"recolor":"team",
				"recolor_ref":[
					0.039,
					0.651,
					0.996
				]
			},
			"name":"Material 1",
			"pbrMetallicRoughness":{
				"baseColorTexture":{
					"index":0
				},
				"metallicFactor":0
			}
		},
		{
			"extras":{
				"dirt":4,
				"recolor":"team",
				"recolor_ref":[
					0.039,
					0.651,
					0.996
				]
			},
			"name":"Material 4",
			"pbrMetallicRoughness":{
				"metallicFactor":0
			}
		}
	],
	"meshes":[
		{
			"name":"ruin8",
			"primitives":[
				{
					"attributes":{
						"POSITION":0,
						"NORMAL":1,
						"TEXCOORD_0":2,
						"TEXCOORD_1":3
					},
					"indices":4,
					"material":0
				},
				{
					"attributes":{
						"POSITION":5,
						"NORMAL":6,
						"TEXCOORD_0":7,
						"TEXCOORD_1":8
					},
					"indices":9,
					"material":1
				}
			]
		}
	],
	"textures":[
		{
			"sampler":0,
			"source":0
		}
	],
	"images":[
		{
			"mimeType":"image/png",
			"name":"objects",
			"uri":"objects.png"
		}
	],
	"accessors":[
		{
			"bufferView":0,
			"componentType":5126,
			"count":238,
			"max":[
				9.237129211425781,
				4.554869174957275,
				9.248424530029297
			],
			"min":[
				-14,
				-1,
				-9.229166984558105
			],
			"type":"VEC3"
		},
		{
			"bufferView":1,
			"componentType":5126,
			"count":238,
			"type":"VEC3"
		},
		{
			"bufferView":2,
			"componentType":5126,
			"count":238,
			"type":"VEC2"
		},
		{
			"bufferView":3,
			"componentType":5126,
			"count":238,
			"type":"VEC2"
		},
		{
			"bufferView":4,
			"componentType":5123,
			"count":390,
			"type":"SCALAR"
		},
		{
			"bufferView":5,
			"componentType":5126,
			"count":3,
			"max":[
				-6,
				3.5796959400177,
				-8
			],
			"min":[
				-14,
				0.2910099923610687,
				-8
			],
			"type":"VEC3"
		},
		{
			"bufferView":6,
			"componentType":5126,
			"count":3,
			"type":"VEC3"
		},
		{
			"bufferView":7,
			"componentType":5126,
			"count":3,
			"type":"VEC2"
		},
		{
			"bufferView":8,
			"componentType":5126,
			"count":3,
			"type":"VEC2"
		},
		{
			"bufferView":9,
			"componentType":5123,
			"count":3,
			"type":"SCALAR"
		}
	],
	"bufferViews":[
		{
			"buffer":0,
			"byteLength":2856,
			"byteOffset":0,
			"target":34962
		},
		{
			"buffer":0,
			"byteLength":2856,
			"byteOffset":2856,
			"target":34962
		},
		{
			"buffer":0,
			"byteLength":1904,
			"byteOffset":5712,
			"target":34962
		},
		{
			"buffer":0,
			"byteLength":1904,
			"byteOffset":7616,
			"target":34962
		},
		{
			"buffer":0,
			"byteLength":780,
			"byteOffset":9520,
			"target":34963
		},
		{
			"buffer":0,
			"byteLength":36,
			"byteOffset":10300,
			"target":34962
		},
		{
			"buffer":0,
			"byteLength":36,
			"byteOffset":10336,
			"target":34962
		},
		{
			"buffer":0,
			"byteLength":24,
			"byteOffset":10372,
			"target":34962
		},
		{
			"buffer":0,
			"byteLength":24,
			"byteOffset":10396,
			"target":34962
		},
		{
			"buffer":0,
			"byteLength":6,
			"byteOffset":10420,
			"target":34963
		}
	],
	"samplers":[
		{
			"magFilter":9729,
			"minFilter":9987
		}
	],
	"buffers":[
		{
			"byteLength":10428,
			"uri":"ruin8.bin"
		}
	]
}
