{
	"asset":{
		"generator":"Khronos glTF Blender I/O v3.6.28",
		"version":"2.0"
	},
	"scene":0,
	"scenes":[
		{
			"name":"Scene",
			"nodes":[
				0
			]
		}
	],
	"nodes":[
		{
			"mesh":0,
			"name":"ruin6"
		}
	],
	"materials":[
		{
			"extras":{
				"dirt":4,
				"recolor":"team",
				"recolor_ref":[
					0.039,
					0.651,
					0.996
				]
			},
			"name":"Material 1 (lemt.png)",
			"pbrMetallicRoughness":{
				"baseColorTexture":{
					"index":0
				},
				"metallicFactor":0
			}
		},
		{
			"extras":{
				"dirt":4,
				"recolor":"team",
				"recolor_ref":[
					0.039,
					0.651,
					0.996
				]
			},
			"name":"Material 2 (convert.png)",
			"pbrMetallicRoughness":{
				"baseColorTexture":{
					"index":1
				},
				"metallicFactor":0
			}
		}
	],
	"meshes":[
		{
			"name":"ruin6",
			"primitives":[
				{
					"attributes":{
						"POSITION":0,
						"NORMAL":1,
						"TEXCOORD_0":2,
						"TEXCOORD_1":3
					},
					"indices":4,
					"material":0
				},
				{
					"attributes":{
						"POSITION":5,
						"NORMAL":6,
						"TEXCOORD_0":7,
						"TEXCOORD_1":8
					},
					"indices":9,
					"material":1
				}
			]
		}
	],
	"textures":[
		{
			"sampler":0,
			"source":0
		},
		{
			"sampler":0,
			"source":1
		}
	],
	"images":[
		{
			"mimeType":"image/png",
			"name":"lemt",
			"uri":"lemt.png"
		},
		{
			"mimeType":"image/png",
			"name":"convert",
			"uri":"convert.png"
		}
	],
	"accessors":[
		{
			"bufferView":0,
			"componentType":5126,
			"count":53,
			"max":[
				2.543355941772461,
				0.9690020084381104,
				2.503113031387329
			],
			"min":[
				-2.456644058227539,
				-1.0309979915618896,
				-2.981812000274658
			],
			"type":"VEC3"
		},
		{
			"bufferView":1,
			"componentType":5126,
			"count":53,
			"type":"VEC3"
		},
		{
			"bufferView":2,
			"componentType":5126,
			"count":53,
			"type":"VEC2"
		},
		{
			"bufferView":3,
			"componentType":5126,
			"count":53,
			"type":"VEC2"
		},
		{
			"bufferView":4,
			"componentType":5123,
			"count":78,
			"type":"SCALAR"
		},
		{
			"bufferView":5,
			"componentType":5126,
			"count":12,
			"max":[
				2.543355941772461,
				0.9690020084381104,
				2.503113031387329
			],
			"min":[
				-2.456644058227539,
				0.9690020084381104,
				-2.981812000274658
			],
			"type":"VEC3"
		},
		{
			"bufferView":6,
			"componentType":5126,
			"count":12,
			"type":"VEC3"
		},
		{
			"bufferView":7,
			"componentType":5126,
			"count":12,
			"type":"VEC2"
		},
		{
			"bufferView":8,
			"componentType":5126,
			"count":12,
			"type":"VEC2"
		},
		{
			"bufferView":9,
			"componentType":5123,
			"count":24,
			"type":"SCALAR"
		}
	],
	"bufferViews":[
		{
			"buffer":0,
			"byteLength":636,
			"byteOffset":0,
			"target":34962
		},
		{
			"buffer":0,
			"byteLength":636,
			"byteOffset":636,
			"target":34962
		},
		{
			"buffer":0,
			"byteLength":424,
			"byteOffset":1272,
			"target":34962
		},
		{
			"buffer":0,
			"byteLength":424,
			"byteOffset":1696,
			"target":34962
		},
		{
			"buffer":0,
			"byteLength":156,
			"byteOffset":2120,
			"target":34963
		},
		{
			"buffer":0,
			"byteLength":144,
			"byteOffset":2276,
			"target":34962
		},
		{
			"buffer":0,
			"byteLength":144,
			"byteOffset":2420,
			"target":34962
		},
		{
			"buffer":0,
			"byteLength":96,
			"byteOffset":2564,
			"target":34962
		},
		{
			"buffer":0,
			"byteLength":96,
			"byteOffset":2660,
			"target":34962
		},
		{
			"buffer":0,
			"byteLength":48,
			"byteOffset":2756,
			"target":34963
		}
	],
	"samplers":[
		{
			"magFilter":9729,
			"minFilter":9987
		}
	],
	"buffers":[
		{
			"byteLength":2804,
			"uri":"ruin6.bin"
		}
	]
}
