{
	"asset":{
		"generator":"Khronos glTF Blender I/O v3.6.28",
		"version":"2.0"
	},
	"scene":0,
	"scenes":[
		{
			"name":"Scene",
			"nodes":[
				0
			]
		}
	],
	"nodes":[
		{
			"mesh":0,
			"name":"ruin8"
		}
	],
	"materials":[
		{
			"extras":{
				"dirt":4,
				"recolor":"team",
				"recolor_ref":[
					0.039,
					0.651,
					0.996
				]
			},
			"name":"Material 1 (convert.png)",
			"pbrMetallicRoughness":{
				"baseColorTexture":{
					"index":0
				},
				"metallicFactor":0
			}
		},
		{
			"extras":{
				"dirt":4,
				"recolor":"team",
				"recolor_ref":[
					0.039,
					0.651,
					0.996
				]
			},
			"name":"Material 2 (factory.png)",
			"pbrMetallicRoughness":{
				"baseColorTexture":{
					"index":1
				},
				"metallicFactor":0
			}
		},
		{
			"extras":{
				"dirt":4,
				"recolor":"team",
				"recolor_ref":[
					0.039,
					0.651,
					0.996
				]
			},
			"name":"Material 3 (lemt.png)",
			"pbrMetallicRoughness":{
				"baseColorTexture":{
					"index":2
				},
				"metallicFactor":0
			}
		},
		{
			"extras":{
				"dirt":4,
				"recolor":"team",
				"recolor_ref":[
					0.039,
					0.651,
					0.996
				]
			},
			"name":"Material 4",
			"pbrMetallicRoughness":{
				"metallicFactor":0
			}
		},
		{
			"extras":{
				"dirt":4,
				"recolor":"team",
				"recolor_ref":[
					0.039,
					0.651,
					0.996
				]
			},
			"name":"Material 5 (derrick.png)",
			"pbrMetallicRoughness":{
				"baseColorTexture":{
					"index":3
				},
				"metallicFactor":0
			}
		}
	],
	"meshes":[
		{
			"name":"ruin8",
			"primitives":[
				{
					"attributes":{
						"POSITION":0,
						"NORMAL":1,
						"TEXCOORD_0":2,
						"TEXCOORD_1":3
					},
					"indices":4,
					"material":0
				},
				{
					"attributes":{
						"POSITION":5,
						"NORMAL":6,
						"TEXCOORD_0":7,
						"TEXCOORD_1":8
					},
					"indices":9,
					"material":1
				},
				{
					"attributes":{
						"POSITION":10,
						"NORMAL":11,
						"TEXCOORD_0":12,
						"TEXCOORD_1":13
					},
					"indices":14,
					"material":2
				},
				{
					"attributes":{
						"POSITION":15,
						"NORMAL":16,
						"TEXCOORD_0":17,
						"TEXCOORD_1":18
					},
					"indices":19,
					"material":3
				},
				{
					"attributes":{
						"POSITION":20,
						"NORMAL":21,
						"TEXCOORD_0":22,
						"TEXCOORD_1":23
					},
					"indices":24,
					"material":4
				}
			]
		}
	],
	"textures":[
		{
			"sampler":0,
			"source":0
		},
		{
			"sampler":0,
			"source":1
		},
		{
			"sampler":0,
			"source":2
		},
		{
			"sampler":0,
			"source":3
		}
	],
	"images":[
		{
			"mimeType":"image/png",
			"name":"convert",
			"uri":"convert.png"
		},
		{
			"mimeType":"image/png",
			"name":"factory",
			"uri":"factory.png"
		},
		{
			"mimeType":"image/png",
			"name":"lemt",
			"uri":"lemt.png"
		},
		{
			"mimeType":"image/png",
			"name":"derrick",
			"uri":"derrick.png"
		}
	],
	"accessors":[
		{
			"bufferView":0,
			"componentType":5126,
			"count":29,
			"max":[
				7.389369964599609,
				4.1004838943481445,
				8
			],
			"min":[
				-14,
				-1,
				-8
			],
			"type":"VEC3"
		},
		{
			"bufferView":1,
			"componentType":5126,
			"count":29,
			"type":"VEC3"
		},
		{
			"bufferView":2,
			"componentType":5126,
			"count":29,
			"type":"VEC2"
		},
		{
			"bufferView":3,
			"componentType":5126,
			"count":29,
			"type":"VEC2"
		},
		{
			"bufferView":4,
			"componentType":5123,
			"count":60,
			"type":"SCALAR"
		},
		{
			"bufferView":5,
			"componentType":5126,
			"count":32,
			"max":[
				9.237129211425781,
				1,
				9.248424530029297
			],
			"min":[
				-9.240462303161621,
				-1,
				-9.229166984558105
			],
			"type":"VEC3"
		},
		{
			"bufferView":6,
			"componentType":5126,
			"count":32,
			"type":"VEC3"
		},
		{
			"bufferView":7,
			"componentType":5126,
			"count":32,
			"type":"VEC2"
		},
		{
			"bufferView":8,
			"componentType":5126,
			"count":32,
			"type":"VEC2"
		},
		{
			"bufferView":9,
			"componentType":5123,
			"count":48,
			"type":"SCALAR"
		},
		{
			"bufferView":10,
			"componentType":5126,
			"count":161,
			"max":[
				-6,
				4.554869174957275,
				8
			],
			"min":[
				-14,
				-1,
				-8
			],
			"type":"VEC3"
		},
		{
			"bufferView":11,
			"componentType":5126,
			"count":161,
			"type":"VEC3"
		},
		{
			"bufferView":12,
			"componentType":5126,
			"count":161,
			"type":"VEC2"
		},
		{
			"bufferView":13,
			"componentType":5126,
			"count":161,
			"type":"VEC2"
		},
		{
			"bufferView":14,
			"componentType":5123,
			"count":258,
			"type":"SCALAR"
		},
		{
			"bufferView":15,
			"componentType":5126,
			"count":3,
			"max":[
				-6,
				3.5796959400177,
				-8
			],
			"min":[
				-14,
				0.2910099923610687,
				-8
			],
			"type":"VEC3"
		},
		{
			"bufferView":16,
			"componentType":5126,
			"count":3,
			"type":"VEC3"
		},
		{
			"bufferView":17,
			"componentType":5126,
			"count":3,
			"type":"VEC2"
		},
		{
			"bufferView":18,
			"componentType":5126,
			"count":3,
			"type":"VEC2"
		},
		{
			"bufferView":19,
			"componentType":5123,
			"count":3,
			"type":"SCALAR"
		},
		{
			"bufferView":20,
			"componentType":5126,
			"count":16,
			"max":[
				-8,
				3,
				6
			],
			"min":[
				-12,
				-1,
				2
			],
			"type":"VEC3"
		},
		{
			"bufferView":21,
			"componentType":5126,
			"count":16,
			"type":"VEC3"
		},
		{
			"bufferView":22,
			"componentType":5126,
			"count":16,
			"type":"VEC2"
		},
		{
			"bufferView":23,
			"componentType":5126,
			"count":16,
			"type":"VEC2"
		},
		{
			"bufferView":24,
			"componentType":5123,
			"count":24,
			"type":"SCALAR"
		}
	],
	"bufferViews":[
		{
			"buffer":0,
			"byteLength":348,
			"byteOffset":0,
			"target":34962
		},
		{
			"buffer":0,
			"byteLength":348,
			"byteOffset":348,
			"target":34962
		},
		{
			"buffer":0,
			"byteLength":232,
			"byteOffset":696,
			"target":34962
		},
		{
			"buffer":0,
			"byteLength":232,
			"byteOffset":928,
			"target":34962
		},
		{
			"buffer":0,
			"byteLength":120,
			"byteOffset":1160,
			"target":34963
		},
		{
			"buffer":0,
			"byteLength":384,
			"byteOffset":1280,
			"target":34962
		},
		{
			"buffer":0,
			"byteLength":384,
			"byteOffset":1664,
			"target":34962
		},
		{
			"buffer":0,
			"byteLength":256,
			"byteOffset":2048,
			"target":34962
		},
		{
			"buffer":0,
			"byteLength":256,
			"byteOffset":2304,
			"target":34962
		},
		{
			"buffer":0,
			"byteLength":96,
			"byteOffset":2560,
			"target":34963
		},
		{
			"buffer":0,
			"byteLength":1932,
			"byteOffset":2656,
			"target":34962
		},
		{
			"buffer":0,
			"byteLength":1932,
			"byteOffset":4588,
			"target":34962
		},
		{
			"buffer":0,
			"byteLength":1288,
			"byteOffset":6520,
			"target":34962
		},
		{
			"buffer":0,
			"byteLength":1288,
			"byteOffset":7808,
			"target":34962
		},
		{
			"buffer":0,
			"byteLength":516,
			"byteOffset":9096,
			"target":34963
		},
		{
			"buffer":0,
			"byteLength":36,
			"byteOffset":9612,
			"target":34962
		},
		{
			"buffer":0,
			"byteLength":36,
			"byteOffset":9648,
			"target":34962
		},
		{
			"buffer":0,
			"byteLength":24,
			"byteOffset":9684,
			"target":34962
		},
		{
			"buffer":0,
			"byteLength":24,
			"byteOffset":9708,
			"target":34962
		},
		{
			"buffer":0,
			"byteLength":6,
			"byteOffset":9732,
			"target":34963
		},
		{
			"buffer":0,
			"byteLength":192,
			"byteOffset":9740,
			"target":34962
		},
		{
			"buffer":0,
			"byteLength":192,
			"byteOffset":9932,
			"target":34962
		},
		{
			"buffer":0,
			"byteLength":128,
			"byteOffset":10124,
			"target":34962
		},
		{
			"buffer":0,
			"byteLength":128,
			"byteOffset":10252,
			"target":34962
		},
		{
			"buffer":0,
			"byteLength":48,
			"byteOffset":10380,
			"target":34963
		}
	],
	"samplers":[
		{
			"magFilter":9729,
			"minFilter":9987
		}
	],
	"buffers":[
		{
			"byteLength":10428,
			"uri":"ruin8.bin"
		}
	]
}
