{
	"asset":{
		"generator":"Khronos glTF Blender I/O v4.2.57",
		"version":"2.0"
	},
	"scene":0,
	"scenes":[
		{
			"name":"Scene",
			"nodes":[
				0
			]
		}
	],
	"nodes":[
		{
			"mesh":0,
			"name":"ruin10"
		}
	],
	"materials":[
		{
			"extras":{
				"dirt":4,
				"recolor":"team",
				"recolor_ref":[
					0.039,
					0.651,
					0.996
				]
			},
			"name":"Material 1 (derrick.png).001",
			"pbrMetallicRoughness":{
				"baseColorTexture":{
					"index":0
				},
				"metallicFactor":0
			}
		}
	],
	"meshes":[
		{
			"name":"ruin10",
			"primitives":[
				{
					"attributes":{
						"POSITION":0,
						"NORMAL":1,
						"TEXCOORD_0":2,
						"TEXCOORD_1":3
					},
					"indices":4,
					"material":0
				}
			]
		}
	],
	"textures":[
		{
			"sampler":0,
			"source":0
		}
	],
	"images":[
		{
			"mimeType":"image/png",
			"name":"objects",
			"uri":"objects.png"
		}
	],
	"accessors":[
		{
			"bufferView":0,
			"componentType":5126,
			"count":103,
			"max":[
				29.564146041870117,
				34.97022247314453,
				29.56414794921875
			],
			"min":[
				-29.56414794921875,
				-27.78740882873535,
				-29.564146041870117
			],
			"type":"VEC3"
		},
		{
			"bufferView":1,
			"componentType":5126,
			"count":103,
			"type":"VEC3"
		},
		{
			"bufferView":2,
			"componentType":5126,
			"count":103,
			"type":"VEC2"
		},
		{
			"bufferView":3,
			"componentType":5126,
			"count":103,
			"type":"VEC2"
		},
		{
			"bufferView":4,
			"componentType":5123,
			"count":150,
			"type":"SCALAR"
		}
	],
	"bufferViews":[
		{
			"buffer":0,
			"byteLength":1236,
			"byteOffset":0,
			"target":34962
		},
		{
			"buffer":0,
			"byteLength":1236,
			"byteOffset":1236,
			"target":34962
		},
		{
			"buffer":0,
			"byteLength":824,
			"byteOffset":2472,
			"target":34962
		},
		{
			"buffer":0,
			"byteLength":824,
			"byteOffset":3296,
			"target":34962
		},
		{
			"buffer":0,
			"byteLength":300,
			"byteOffset":4120,
			"target":34963
		}
	],
	"samplers":[
		{
			"magFilter":9729,
			"minFilter":9987
		}
	],
	"buffers":[
		{
			"byteLength":4420,
			"uri":"ruin10.bin"
		}
	]
}
