{
	"asset":{
		"generator":"Khronos glTF Blender I/O v4.2.57",
		"version":"2.0"
	},
	"scene":0,
	"scenes":[
		{
			"name":"Scene",
			"nodes":[
				0
			]
		}
	],
	"nodes":[
		{
			"mesh":0,
			"name":"ruin2"
		}
	],
	"materials":[
		{
			"extras":{
				"dirt":4,
				"tag":"tracker_left"
			},
			"name":"Material 1 (lemt.png).002",
			"pbrMetallicRoughness":{
				"baseColorTexture":{
					"index":0
				},
				"metallicFactor":0
			}
		},
		{
			"extras":{
				"dirt":4,
				"recolor":"team",
				"recolor_ref":[
					0.039,
					0.651,
					0.996
				]
			},
			"name":"Material 2 (lemt.png).001",
			"pbrMetallicRoughness":{
				"baseColorTexture":{
					"index":1
				},
				"metallicFactor":0
			}
		},
		{
			"extras":{
				"dirt":4
			},
			"name":"Material 3 (lemt.png)",
			"pbrMetallicRoughness":{
				"baseColorFactor":[
					0,
					0,
					0,
					1
				],
				"baseColorTexture":{
					"index":2
				},
				"metallicFactor":0
			}
		},
		{
			"extras":{
				"dirt":4
			},
			"name":"Material 4 (lemt.png)",
			"pbrMetallicRoughness":{
				"baseColorFactor":[
					0.30000001192092896,
					0.30000001192092896,
					0.30000001192092896,
					1
				],
				"baseColorTexture":{
					"index":3
				},
				"metallicFactor":0
			}
		},
		{
			"extras":{
				"dirt":4,
				"recolor":"team",
				"recolor_ref":[
					0.039,
					0.651,
					0.996
				]
			},
			"name":"Material 5",
			"pbrMetallicRoughness":{
				"baseColorFactor":[
					0,
					0,
					0,
					1
				],
				"metallicFactor":0
			}
		}
	],
	"meshes":[
		{
			"name":"ruin2",
			"primitives":[
				{
					"attributes":{
						"POSITION":0,
						"NORMAL":1,
						"TEXCOORD_0":2,
						"TEXCOORD_1":3
					},
					"indices":4,
					"material":0
				},
				{
					"attributes":{
						"POSITION":5,
						"NORMAL":6,
						"TEXCOORD_0":7,
						"TEXCOORD_1":8
					},
					"indices":9,
					"material":1
				},
				{
					"attributes":{
						"POSITION":10,
						"NORMAL":11,
						"TEXCOORD_0":12,
						"TEXCOORD_1":13
					},
					"indices":14,
					"material":2
				},
				{
					"attributes":{
						"POSITION":15,
						"NORMAL":16,
						"TEXCOORD_0":17,
						"TEXCOORD_1":18
					},
					"indices":19,
					"material":3
				},
				{
					"attributes":{
						"POSITION":20,
						"NORMAL":21,
						"TEXCOORD_0":22,
						"TEXCOORD_1":23
					},
					"indices":24,
					"material":4
				}
			]
		}
	],
	"textures":[
		{
			"sampler":0,
			"source":0
		},
		{
			"sampler":0,
			"source":1
		},
		{
			"sampler":0,
			"source":1
		},
		{
			"sampler":0,
			"source":1
		}
	],
	"images":[
		{
			"mimeType":"image/png",
			"name":"animated",
			"uri":"animated.png"
		},
		{
			"mimeType":"image/png",
			"name":"objects",
			"uri":"objects.png"
		}
	],
	"accessors":[
		{
			"bufferView":0,
			"componentType":5126,
			"count":66,
			"max":[
				3.992266893386841,
				4.0005340576171875,
				-2.200000047683716
			],
			"min":[
				-4.007482051849365,
				0,
				-5
			],
			"type":"VEC3"
		},
		{
			"bufferView":1,
			"componentType":5126,
			"count":66,
			"type":"VEC3"
		},
		{
			"bufferView":2,
			"componentType":5126,
			"count":66,
			"type":"VEC2"
		},
		{
			"bufferView":3,
			"componentType":5126,
			"count":66,
			"type":"VEC2"
		},
		{
			"bufferView":4,
			"componentType":5123,
			"count":108,
			"type":"SCALAR"
		},
		{
			"bufferView":5,
			"componentType":5126,
			"count":194,
			"max":[
				4.009492874145508,
				6,
				4.001669883728027
			],
			"min":[
				-4.131326198577881,
				0,
				-5
			],
			"type":"VEC3"
		},
		{
			"bufferView":6,
			"componentType":5126,
			"count":194,
			"type":"VEC3"
		},
		{
			"bufferView":7,
			"componentType":5126,
			"count":194,
			"type":"VEC2"
		},
		{
			"bufferView":8,
			"componentType":5126,
			"count":194,
			"type":"VEC2"
		},
		{
			"bufferView":9,
			"componentType":5123,
			"count":384,
			"type":"SCALAR"
		},
		{
			"bufferView":10,
			"componentType":5126,
			"count":50,
			"max":[
				3.463913917541504,
				2.5048201084136963,
				2.294426918029785
			],
			"min":[
				-3.3695340156555176,
				0.4940190017223358,
				-2.2880780696868896
			],
			"type":"VEC3"
		},
		{
			"bufferView":11,
			"componentType":5126,
			"count":50,
			"type":"VEC3"
		},
		{
			"bufferView":12,
			"componentType":5126,
			"count":50,
			"type":"VEC2"
		},
		{
			"bufferView":13,
			"componentType":5126,
			"count":50,
			"type":"VEC2"
		},
		{
			"bufferView":14,
			"componentType":5123,
			"count":60,
			"type":"SCALAR"
		},
		{
			"bufferView":15,
			"componentType":5126,
			"count":24,
			"max":[
				3.3507330417633057,
				4.997941017150879,
				2.2886829376220703
			],
			"min":[
				-4.0064592361450195,
				1.5311349630355835,
				-2.2880780696868896
			],
			"type":"VEC3"
		},
		{
			"bufferView":16,
			"componentType":5126,
			"count":24,
			"type":"VEC3"
		},
		{
			"bufferView":17,
			"componentType":5126,
			"count":24,
			"type":"VEC2"
		},
		{
			"bufferView":18,
			"componentType":5126,
			"count":24,
			"type":"VEC2"
		},
		{
			"bufferView":19,
			"componentType":5123,
			"count":30,
			"type":"SCALAR"
		},
		{
			"bufferView":20,
			"componentType":5126,
			"count":24,
			"max":[
				1.7132869958877563,
				4.255521774291992,
				4.001669883728027
			],
			"min":[
				-3.276689052581787,
				2.918428897857666,
				-4.010402202606201
			],
			"type":"VEC3"
		},
		{
			"bufferView":21,
			"componentType":5126,
			"count":24,
			"type":"VEC3"
		},
		{
			"bufferView":22,
			"componentType":5126,
			"count":24,
			"type":"VEC2"
		},
		{
			"bufferView":23,
			"componentType":5126,
			"count":24,
			"type":"VEC2"
		},
		{
			"bufferView":24,
			"componentType":5123,
			"count":36,
			"type":"SCALAR"
		}
	],
	"bufferViews":[
		{
			"buffer":0,
			"byteLength":792,
			"byteOffset":0,
			"target":34962
		},
		{
			"buffer":0,
			"byteLength":792,
			"byteOffset":792,
			"target":34962
		},
		{
			"buffer":0,
			"byteLength":528,
			"byteOffset":1584,
			"target":34962
		},
		{
			"buffer":0,
			"byteLength":528,
			"byteOffset":2112,
			"target":34962
		},
		{
			"buffer":0,
			"byteLength":216,
			"byteOffset":2640,
			"target":34963
		},
		{
			"buffer":0,
			"byteLength":2328,
			"byteOffset":2856,
			"target":34962
		},
		{
			"buffer":0,
			"byteLength":2328,
			"byteOffset":5184,
			"target":34962
		},
		{
			"buffer":0,
			"byteLength":1552,
			"byteOffset":7512,
			"target":34962
		},
		{
			"buffer":0,
			"byteLength":1552,
			"byteOffset":9064,
			"target":34962
		},
		{
			"buffer":0,
			"byteLength":768,
			"byteOffset":10616,
			"target":34963
		},
		{
			"buffer":0,
			"byteLength":600,
			"byteOffset":11384,
			"target":34962
		},
		{
			"buffer":0,
			"byteLength":600,
			"byteOffset":11984,
			"target":34962
		},
		{
			"buffer":0,
			"byteLength":400,
			"byteOffset":12584,
			"target":34962
		},
		{
			"buffer":0,
			"byteLength":400,
			"byteOffset":12984,
			"target":34962
		},
		{
			"buffer":0,
			"byteLength":120,
			"byteOffset":13384,
			"target":34963
		},
		{
			"buffer":0,
			"byteLength":288,
			"byteOffset":13504,
			"target":34962
		},
		{
			"buffer":0,
			"byteLength":288,
			"byteOffset":13792,
			"target":34962
		},
		{
			"buffer":0,
			"byteLength":192,
			"byteOffset":14080,
			"target":34962
		},
		{
			"buffer":0,
			"byteLength":192,
			"byteOffset":14272,
			"target":34962
		},
		{
			"buffer":0,
			"byteLength":60,
			"byteOffset":14464,
			"target":34963
		},
		{
			"buffer":0,
			"byteLength":288,
			"byteOffset":14524,
			"target":34962
		},
		{
			"buffer":0,
			"byteLength":288,
			"byteOffset":14812,
			"target":34962
		},
		{
			"buffer":0,
			"byteLength":192,
			"byteOffset":15100,
			"target":34962
		},
		{
			"buffer":0,
			"byteLength":192,
			"byteOffset":15292,
			"target":34962
		},
		{
			"buffer":0,
			"byteLength":72,
			"byteOffset":15484,
			"target":34963
		}
	],
	"samplers":[
		{
			"magFilter":9729,
			"minFilter":9987
		}
	],
	"buffers":[
		{
			"byteLength":15556,
			"uri":"ruin2.bin"
		}
	]
}
