{
	"asset":{
		"generator":"Khronos glTF Blender I/O v3.6.28",
		"version":"2.0"
	},
	"scene":0,
	"scenes":[
		{
			"name":"Scene",
			"nodes":[
				0
			]
		}
	],
	"nodes":[
		{
			"mesh":0,
			"name":"ruin3"
		}
	],
	"materials":[
		{
			"extras":{
				"dirt":4,
				"tracker_1":1,
				"recolor":"team",
				"recolor_ref":[
					0.039,
					0.651,
					0.996
				]
			},
			"name":"Material 1 (lemt.png)",
			"pbrMetallicRoughness":{
				"baseColorTexture":{
					"index":0
				},
				"metallicFactor":0
			}
		},
		{
			"extras":{
				"dirt":4,
				"recolor":"team",
				"recolor_ref":[
					0.039,
					0.651,
					0.996
				]
			},
			"name":"Material 2 (roller.png)",
			"pbrMetallicRoughness":{
				"baseColorTexture":{
					"index":1
				},
				"metallicFactor":0
			}
		},
		{
			"extras":{
				"dirt":4,
				"tracker_2":1,
				"recolor":"team",
				"recolor_ref":[
					0.039,
					0.651,
					0.996
				]
			},
			"name":"Material 3 (lemt.png)",
			"pbrMetallicRoughness":{
				"baseColorTexture":{
					"index":2
				},
				"metallicFactor":0
			}
		},
		{
			"extras":{
				"dirt":4,
				"recolor":"team",
				"recolor_ref":[
					0.039,
					0.651,
					0.996
				]
			},
			"name":"Material 4 (lemt.png)",
			"pbrMetallicRoughness":{
				"baseColorFactor":[
					0,
					0,
					0,
					1
				],
				"baseColorTexture":{
					"index":3
				},
				"metallicFactor":0
			}
		},
		{
			"extras":{
				"dirt":4,
				"recolor":"team",
				"recolor_ref":[
					0.039,
					0.651,
					0.996
				]
			},
			"name":"Material 5 (lemt.png)",
			"pbrMetallicRoughness":{
				"baseColorTexture":{
					"index":4
				},
				"metallicFactor":0
			}
		},
		{
			"extras":{
				"dirt":4,
				"recolor":"team",
				"recolor_ref":[
					0.039,
					0.651,
					0.996
				]
			},
			"name":"Material 6 (lemt.png)",
			"pbrMetallicRoughness":{
				"baseColorFactor":[
					0.30000001192092896,
					0.30000001192092896,
					0.30000001192092896,
					1
				],
				"baseColorTexture":{
					"index":5
				},
				"metallicFactor":0
			}
		}
	],
	"meshes":[
		{
			"name":"ruin3",
			"primitives":[
				{
					"attributes":{
						"POSITION":0,
						"NORMAL":1,
						"TEXCOORD_0":2,
						"TEXCOORD_1":3
					},
					"indices":4,
					"material":0
				},
				{
					"attributes":{
						"POSITION":5,
						"NORMAL":6,
						"TEXCOORD_0":7,
						"TEXCOORD_1":8
					},
					"indices":9,
					"material":1
				},
				{
					"attributes":{
						"POSITION":10,
						"NORMAL":11,
						"TEXCOORD_0":12,
						"TEXCOORD_1":13
					},
					"indices":4,
					"material":2
				},
				{
					"attributes":{
						"POSITION":14,
						"NORMAL":15,
						"TEXCOORD_0":16,
						"TEXCOORD_1":17
					},
					"indices":18,
					"material":3
				},
				{
					"attributes":{
						"POSITION":19,
						"NORMAL":20,
						"TEXCOORD_0":21,
						"TEXCOORD_1":22
					},
					"indices":23,
					"material":4
				},
				{
					"attributes":{
						"POSITION":24,
						"NORMAL":25,
						"TEXCOORD_0":26,
						"TEXCOORD_1":27
					},
					"indices":28,
					"material":5
				}
			]
		}
	],
	"textures":[
		{
			"sampler":0,
			"source":0
		},
		{
			"sampler":0,
			"source":1
		},
		{
			"sampler":0,
			"source":0
		},
		{
			"sampler":0,
			"source":0
		},
		{
			"sampler":0,
			"source":0
		},
		{
			"sampler":0,
			"source":0
		}
	],
	"images":[
		{
			"mimeType":"image/png",
			"name":"lemt",
			"uri":"lemt.png"
		},
		{
			"mimeType":"image/png",
			"name":"roller",
			"uri":"roller.png"
		}
	],
	"accessors":[
		{
			"bufferView":0,
			"componentType":5126,
			"count":60,
			"max":[
				4.999979019165039,
				1,
				6
			],
			"min":[
				-4.993044853210449,
				-3,
				3
			],
			"type":"VEC3"
		},
		{
			"bufferView":1,
			"componentType":5126,
			"count":60,
			"type":"VEC3"
		},
		{
			"bufferView":2,
			"componentType":5126,
			"count":60,
			"type":"VEC2"
		},
		{
			"bufferView":3,
			"componentType":5126,
			"count":60,
			"type":"VEC2"
		},
		{
			"bufferView":4,
			"componentType":5123,
			"count":96,
			"type":"SCALAR"
		},
		{
			"bufferView":5,
			"componentType":5126,
			"count":116,
			"max":[
				4.999979019165039,
				4.3140058517456055,
				6
			],
			"min":[
				-5,
				-3,
				-6
			],
			"type":"VEC3"
		},
		{
			"bufferView":6,
			"componentType":5126,
			"count":116,
			"type":"VEC3"
		},
		{
			"bufferView":7,
			"componentType":5126,
			"count":116,
			"type":"VEC2"
		},
		{
			"bufferView":8,
			"componentType":5126,
			"count":116,
			"type":"VEC2"
		},
		{
			"bufferView":9,
			"componentType":5123,
			"count":234,
			"type":"SCALAR"
		},
		{
			"bufferView":10,
			"componentType":5126,
			"count":60,
			"max":[
				4.999979019165039,
				1,
				-3
			],
			"min":[
				-4.993044853210449,
				-3,
				-6
			],
			"type":"VEC3"
		},
		{
			"bufferView":11,
			"componentType":5126,
			"count":60,
			"type":"VEC3"
		},
		{
			"bufferView":12,
			"componentType":5126,
			"count":60,
			"type":"VEC2"
		},
		{
			"bufferView":13,
			"componentType":5126,
			"count":60,
			"type":"VEC2"
		},
		{
			"bufferView":14,
			"componentType":5126,
			"count":12,
			"max":[
				0,
				1.314004898071289,
				5.089219093322754
			],
			"min":[
				-4.605743885040283,
				1.305823802947998,
				-5.089219093322754
			],
			"type":"VEC3"
		},
		{
			"bufferView":15,
			"componentType":5126,
			"count":12,
			"type":"VEC3"
		},
		{
			"bufferView":16,
			"componentType":5126,
			"count":12,
			"type":"VEC2"
		},
		{
			"bufferView":17,
			"componentType":5126,
			"count":12,
			"type":"VEC2"
		},
		{
			"bufferView":18,
			"componentType":5123,
			"count":12,
			"type":"SCALAR"
		},
		{
			"bufferView":19,
			"componentType":5126,
			"count":36,
			"max":[
				4,
				4.3140058517456055,
				4.955390930175781
			],
			"min":[
				-6.97898006439209,
				-0.6914489269256592,
				-4.955389976501465
			],
			"type":"VEC3"
		},
		{
			"bufferView":20,
			"componentType":5126,
			"count":36,
			"type":"VEC3"
		},
		{
			"bufferView":21,
			"componentType":5126,
			"count":36,
			"type":"VEC2"
		},
		{
			"bufferView":22,
			"componentType":5126,
			"count":36,
			"type":"VEC2"
		},
		{
			"bufferView":23,
			"componentType":5123,
			"count":48,
			"type":"SCALAR"
		},
		{
			"bufferView":24,
			"componentType":5126,
			"count":58,
			"max":[
				3.880255937576294,
				0.5655601024627686,
				3.030656099319458
			],
			"min":[
				-3.8812999725341797,
				-2.538351058959961,
				-3.032219886779785
			],
			"type":"VEC3"
		},
		{
			"bufferView":25,
			"componentType":5126,
			"count":58,
			"type":"VEC3"
		},
		{
			"bufferView":26,
			"componentType":5126,
			"count":58,
			"type":"VEC2"
		},
		{
			"bufferView":27,
			"componentType":5126,
			"count":58,
			"type":"VEC2"
		},
		{
			"bufferView":28,
			"componentType":5123,
			"count":66,
			"type":"SCALAR"
		}
	],
	"bufferViews":[
		{
			"buffer":0,
			"byteLength":720,
			"byteOffset":0,
			"target":34962
		},
		{
			"buffer":0,
			"byteLength":720,
			"byteOffset":720,
			"target":34962
		},
		{
			"buffer":0,
			"byteLength":480,
			"byteOffset":1440,
			"target":34962
		},
		{
			"buffer":0,
			"byteLength":480,
			"byteOffset":1920,
			"target":34962
		},
		{
			"buffer":0,
			"byteLength":192,
			"byteOffset":2400,
			"target":34963
		},
		{
			"buffer":0,
			"byteLength":1392,
			"byteOffset":2592,
			"target":34962
		},
		{
			"buffer":0,
			"byteLength":1392,
			"byteOffset":3984,
			"target":34962
		},
		{
			"buffer":0,
			"byteLength":928,
			"byteOffset":5376,
			"target":34962
		},
		{
			"buffer":0,
			"byteLength":928,
			"byteOffset":6304,
			"target":34962
		},
		{
			"buffer":0,
			"byteLength":468,
			"byteOffset":7232,
			"target":34963
		},
		{
			"buffer":0,
			"byteLength":720,
			"byteOffset":7700,
			"target":34962
		},
		{
			"buffer":0,
			"byteLength":720,
			"byteOffset":8420,
			"target":34962
		},
		{
			"buffer":0,
			"byteLength":480,
			"byteOffset":9140,
			"target":34962
		},
		{
			"buffer":0,
			"byteLength":480,
			"byteOffset":9620,
			"target":34962
		},
		{
			"buffer":0,
			"byteLength":144,
			"byteOffset":10100,
			"target":34962
		},
		{
			"buffer":0,
			"byteLength":144,
			"byteOffset":10244,
			"target":34962
		},
		{
			"buffer":0,
			"byteLength":96,
			"byteOffset":10388,
			"target":34962
		},
		{
			"buffer":0,
			"byteLength":96,
			"byteOffset":10484,
			"target":34962
		},
		{
			"buffer":0,
			"byteLength":24,
			"byteOffset":10580,
			"target":34963
		},
		{
			"buffer":0,
			"byteLength":432,
			"byteOffset":10604,
			"target":34962
		},
		{
			"buffer":0,
			"byteLength":432,
			"byteOffset":11036,
			"target":34962
		},
		{
			"buffer":0,
			"byteLength":288,
			"byteOffset":11468,
			"target":34962
		},
		{
			"buffer":0,
			"byteLength":288,
			"byteOffset":11756,
			"target":34962
		},
		{
			"buffer":0,
			"byteLength":96,
			"byteOffset":12044,
			"target":34963
		},
		{
			"buffer":0,
			"byteLength":696,
			"byteOffset":12140,
			"target":34962
		},
		{
			"buffer":0,
			"byteLength":696,
			"byteOffset":12836,
			"target":34962
		},
		{
			"buffer":0,
			"byteLength":464,
			"byteOffset":13532,
			"target":34962
		},
		{
			"buffer":0,
			"byteLength":464,
			"byteOffset":13996,
			"target":34962
		},
		{
			"buffer":0,
			"byteLength":132,
			"byteOffset":14460,
			"target":34963
		}
	],
	"samplers":[
		{
			"magFilter":9729,
			"minFilter":9987
		}
	],
	"buffers":[
		{
			"byteLength":14592,
			"uri":"ruin3.bin"
		}
	]
}
