{
	"asset":{
		"generator":"Khronos glTF Blender I/O v3.6.28",
		"version":"2.0"
	},
	"scene":0,
	"scenes":[
		{
			"name":"Scene",
			"nodes":[
				0
			]
		}
	],
	"nodes":[
		{
			"mesh":0,
			"name":"safe3"
		}
	],
	"materials":[
		{
			"extras":{
				"dirt":1,
				"recolor":"team",
				"recolor_ref":[
					0.039,
					0.651,
					0.996
				]
			},
			"name":"Material 1 (factory.png)",
			"pbrMetallicRoughness":{
				"baseColorTexture":{
					"index":0
				},
				"metallicFactor":0
			}
		},
		{
			"extras":{
				"dirt":1,
				"recolor":"team",
				"recolor_ref":[
					0.039,
					0.651,
					0.996
				]
			},
			"name":"Material 2 (lemt.png)",
			"pbrMetallicRoughness":{
				"baseColorTexture":{
					"index":1
				},
				"metallicFactor":0
			}
		}
	],
	"meshes":[
		{
			"name":"safe3",
			"primitives":[
				{
					"attributes":{
						"POSITION":0,
						"NORMAL":1,
						"TEXCOORD_0":2,
						"TEXCOORD_1":3
					},
					"indices":4,
					"material":0
				},
				{
					"attributes":{
						"POSITION":5,
						"NORMAL":6,
						"TEXCOORD_0":7,
						"TEXCOORD_1":8
					},
					"indices":9,
					"material":1
				}
			]
		}
	],
	"textures":[
		{
			"sampler":0,
			"source":0
		},
		{
			"sampler":0,
			"source":1
		}
	],
	"images":[
		{
			"mimeType":"image/png",
			"name":"factory",
			"uri":"factory.png"
		},
		{
			"mimeType":"image/png",
			"name":"lemt",
			"uri":"lemt.png"
		}
	],
	"accessors":[
		{
			"bufferView":0,
			"componentType":5126,
			"count":63,
			"max":[
				13.314791679382324,
				14,
				14
			],
			"min":[
				-3.680119037628174,
				0,
				-13.999999046325684
			],
			"type":"VEC3"
		},
		{
			"bufferView":1,
			"componentType":5126,
			"count":63,
			"type":"VEC3"
		},
		{
			"bufferView":2,
			"componentType":5126,
			"count":63,
			"type":"VEC2"
		},
		{
			"bufferView":3,
			"componentType":5126,
			"count":63,
			"type":"VEC2"
		},
		{
			"bufferView":4,
			"componentType":5123,
			"count":63,
			"type":"SCALAR"
		},
		{
			"bufferView":5,
			"componentType":5126,
			"count":87,
			"max":[
				12.680753707885742,
				14,
				14
			],
			"min":[
				-3.680119037628174,
				0,
				-13.999999046325684
			],
			"type":"VEC3"
		},
		{
			"bufferView":6,
			"componentType":5126,
			"count":87,
			"type":"VEC3"
		},
		{
			"bufferView":7,
			"componentType":5126,
			"count":87,
			"type":"VEC2"
		},
		{
			"bufferView":8,
			"componentType":5126,
			"count":87,
			"type":"VEC2"
		},
		{
			"bufferView":9,
			"componentType":5123,
			"count":99,
			"type":"SCALAR"
		}
	],
	"bufferViews":[
		{
			"buffer":0,
			"byteLength":756,
			"byteOffset":0,
			"target":34962
		},
		{
			"buffer":0,
			"byteLength":756,
			"byteOffset":756,
			"target":34962
		},
		{
			"buffer":0,
			"byteLength":504,
			"byteOffset":1512,
			"target":34962
		},
		{
			"buffer":0,
			"byteLength":504,
			"byteOffset":2016,
			"target":34962
		},
		{
			"buffer":0,
			"byteLength":126,
			"byteOffset":2520,
			"target":34963
		},
		{
			"buffer":0,
			"byteLength":1044,
			"byteOffset":2648,
			"target":34962
		},
		{
			"buffer":0,
			"byteLength":1044,
			"byteOffset":3692,
			"target":34962
		},
		{
			"buffer":0,
			"byteLength":696,
			"byteOffset":4736,
			"target":34962
		},
		{
			"buffer":0,
			"byteLength":696,
			"byteOffset":5432,
			"target":34962
		},
		{
			"buffer":0,
			"byteLength":198,
			"byteOffset":6128,
			"target":34963
		}
	],
	"samplers":[
		{
			"magFilter":9729,
			"minFilter":9987
		}
	],
	"buffers":[
		{
			"byteLength":6328,
			"uri":"safe3.bin"
		}
	]
}
