{
	"asset":{
		"generator":"Khronos glTF Blender I/O v3.6.28",
		"version":"2.0"
	},
	"scene":0,
	"scenes":[
		{
			"name":"Scene",
			"nodes":[
				0
			]
		}
	],
	"nodes":[
		{
			"mesh":0,
			"name":"safe2"
		}
	],
	"materials":[
		{
			"extras":{
				"dirt":1,
				"recolor":"team",
				"recolor_ref":[
					0.039,
					0.651,
					0.996
				]
			},
			"name":"Material 1 (factory.png)",
			"pbrMetallicRoughness":{
				"baseColorTexture":{
					"index":0
				},
				"metallicFactor":0
			}
		},
		{
			"extras":{
				"dirt":1,
				"recolor":"team",
				"recolor_ref":[
					0.039,
					0.651,
					0.996
				]
			},
			"name":"Material 2 (lemt.png)",
			"pbrMetallicRoughness":{
				"baseColorTexture":{
					"index":1
				},
				"metallicFactor":0
			}
		}
	],
	"meshes":[
		{
			"name":"safe2",
			"primitives":[
				{
					"attributes":{
						"POSITION":0,
						"NORMAL":1,
						"TEXCOORD_0":2,
						"TEXCOORD_1":3
					},
					"indices":4,
					"material":0
				},
				{
					"attributes":{
						"POSITION":5,
						"NORMAL":6,
						"TEXCOORD_0":7,
						"TEXCOORD_1":8
					},
					"indices":9,
					"material":1
				}
			]
		}
	],
	"textures":[
		{
			"sampler":0,
			"source":0
		},
		{
			"sampler":0,
			"source":1
		}
	],
	"images":[
		{
			"mimeType":"image/png",
			"name":"factory",
			"uri":"factory.png"
		},
		{
			"mimeType":"image/png",
			"name":"lemt",
			"uri":"lemt.png"
		}
	],
	"accessors":[
		{
			"bufferView":0,
			"componentType":5126,
			"count":57,
			"max":[
				2.2744390964508057,
				14,
				14
			],
			"min":[
				-13.314790725708008,
				0,
				-13.999999046325684
			],
			"type":"VEC3"
		},
		{
			"bufferView":1,
			"componentType":5126,
			"count":57,
			"type":"VEC3"
		},
		{
			"bufferView":2,
			"componentType":5126,
			"count":57,
			"type":"VEC2"
		},
		{
			"bufferView":3,
			"componentType":5126,
			"count":57,
			"type":"VEC2"
		},
		{
			"bufferView":4,
			"componentType":5123,
			"count":57,
			"type":"SCALAR"
		},
		{
			"bufferView":5,
			"componentType":5126,
			"count":81,
			"max":[
				2.2744390964508057,
				14,
				14
			],
			"min":[
				-12.680752754211426,
				0,
				-13.999999046325684
			],
			"type":"VEC3"
		},
		{
			"bufferView":6,
			"componentType":5126,
			"count":81,
			"type":"VEC3"
		},
		{
			"bufferView":7,
			"componentType":5126,
			"count":81,
			"type":"VEC2"
		},
		{
			"bufferView":8,
			"componentType":5126,
			"count":81,
			"type":"VEC2"
		},
		{
			"bufferView":9,
			"componentType":5123,
			"count":93,
			"type":"SCALAR"
		}
	],
	"bufferViews":[
		{
			"buffer":0,
			"byteLength":684,
			"byteOffset":0,
			"target":34962
		},
		{
			"buffer":0,
			"byteLength":684,
			"byteOffset":684,
			"target":34962
		},
		{
			"buffer":0,
			"byteLength":456,
			"byteOffset":1368,
			"target":34962
		},
		{
			"buffer":0,
			"byteLength":456,
			"byteOffset":1824,
			"target":34962
		},
		{
			"buffer":0,
			"byteLength":114,
			"byteOffset":2280,
			"target":34963
		},
		{
			"buffer":0,
			"byteLength":972,
			"byteOffset":2396,
			"target":34962
		},
		{
			"buffer":0,
			"byteLength":972,
			"byteOffset":3368,
			"target":34962
		},
		{
			"buffer":0,
			"byteLength":648,
			"byteOffset":4340,
			"target":34962
		},
		{
			"buffer":0,
			"byteLength":648,
			"byteOffset":4988,
			"target":34962
		},
		{
			"buffer":0,
			"byteLength":186,
			"byteOffset":5636,
			"target":34963
		}
	],
	"samplers":[
		{
			"magFilter":9729,
			"minFilter":9987
		}
	],
	"buffers":[
		{
			"byteLength":5824,
			"uri":"safe2.bin"
		}
	]
}
