{
	"asset":{
		"generator":"Khronos glTF Blender I/O v4.2.57",
		"version":"2.0"
	},
	"scene":0,
	"scenes":[
		{
			"name":"Scene",
			"nodes":[
				0
			]
		}
	],
	"nodes":[
		{
			"mesh":0,
			"name":"safe1"
		}
	],
	"materials":[
		{
			"extras":{
				"dirt":4
			},
			"name":"Material 1 (subm.png)",
			"pbrMetallicRoughness":{
				"baseColorTexture":{
					"index":0
				},
				"metallicFactor":0
			}
		}
	],
	"meshes":[
		{
			"name":"safe1",
			"primitives":[
				{
					"attributes":{
						"POSITION":0,
						"NORMAL":1,
						"TEXCOORD_0":2,
						"TEXCOORD_1":3
					},
					"indices":4,
					"material":0
				}
			]
		}
	],
	"textures":[
		{
			"sampler":0,
			"source":0
		}
	],
	"images":[
		{
			"mimeType":"image/png",
			"name":"objects",
			"uri":"objects.png"
		}
	],
	"accessors":[
		{
			"bufferView":0,
			"componentType":5126,
			"count":63,
			"max":[
				20.237131118774414,
				1,
				20.248424530029297
			],
			"min":[
				-20.240461349487305,
				-1,
				-20.229171752929688
			],
			"type":"VEC3"
		},
		{
			"bufferView":1,
			"componentType":5126,
			"count":63,
			"type":"VEC3"
		},
		{
			"bufferView":2,
			"componentType":5126,
			"count":63,
			"type":"VEC2"
		},
		{
			"bufferView":3,
			"componentType":5126,
			"count":63,
			"type":"VEC2"
		},
		{
			"bufferView":4,
			"componentType":5123,
			"count":96,
			"type":"SCALAR"
		}
	],
	"bufferViews":[
		{
			"buffer":0,
			"byteLength":756,
			"byteOffset":0,
			"target":34962
		},
		{
			"buffer":0,
			"byteLength":756,
			"byteOffset":756,
			"target":34962
		},
		{
			"buffer":0,
			"byteLength":504,
			"byteOffset":1512,
			"target":34962
		},
		{
			"buffer":0,
			"byteLength":504,
			"byteOffset":2016,
			"target":34962
		},
		{
			"buffer":0,
			"byteLength":192,
			"byteOffset":2520,
			"target":34963
		}
	],
	"samplers":[
		{
			"magFilter":9729,
			"minFilter":9987
		}
	],
	"buffers":[
		{
			"byteLength":2712,
			"uri":"safe1.bin"
		}
	]
}
