{
	"asset":{
		"generator":"Khronos glTF Blender I/O v3.6.28",
		"version":"2.0"
	},
	"scene":0,
	"scenes":[
		{
			"name":"Scene",
			"nodes":[
				0
			]
		}
	],
	"nodes":[
		{
			"mesh":0,
			"name":"search3"
		}
	],
	"materials":[
		{
			"extras":{
				"dirt":1,
				"recolor":"team",
				"recolor_ref":[
					0.039,
					0.651,
					0.996
				]
			},
			"name":"Material 1 (lemt.png)",
			"pbrMetallicRoughness":{
				"baseColorTexture":{
					"index":0
				},
				"metallicFactor":0
			}
		},
		{
			"extras":{
				"dirt":1,
				"recolor":"team",
				"recolor_ref":[
					0.039,
					0.651,
					0.996
				]
			},
			"name":"Material 2 (search.png)",
			"pbrMetallicRoughness":{
				"baseColorTexture":{
					"index":1
				},
				"metallicFactor":0
			}
		}
	],
	"meshes":[
		{
			"name":"search3",
			"primitives":[
				{
					"attributes":{
						"POSITION":0,
						"NORMAL":1,
						"TEXCOORD_0":2,
						"TEXCOORD_1":3
					},
					"indices":4,
					"material":0
				},
				{
					"attributes":{
						"POSITION":5,
						"NORMAL":6,
						"TEXCOORD_0":7,
						"TEXCOORD_1":8
					},
					"indices":9,
					"material":1
				}
			]
		}
	],
	"textures":[
		{
			"sampler":0,
			"source":0
		},
		{
			"sampler":0,
			"source":1
		}
	],
	"images":[
		{
			"mimeType":"image/png",
			"name":"lemt",
			"uri":"lemt.png"
		},
		{
			"mimeType":"image/png",
			"name":"search",
			"uri":"search.png"
		}
	],
	"accessors":[
		{
			"bufferView":0,
			"componentType":5126,
			"count":157,
			"max":[
				7.275972843170166,
				3.642411947250366,
				3.642411947250366
			],
			"min":[
				-3.468200922012329,
				-3.642411947250366,
				-3.642411947250366
			],
			"type":"VEC3"
		},
		{
			"bufferView":1,
			"componentType":5126,
			"count":157,
			"type":"VEC3"
		},
		{
			"bufferView":2,
			"componentType":5126,
			"count":157,
			"type":"VEC2"
		},
		{
			"bufferView":3,
			"componentType":5126,
			"count":157,
			"type":"VEC2"
		},
		{
			"bufferView":4,
			"componentType":5123,
			"count":306,
			"type":"SCALAR"
		},
		{
			"bufferView":5,
			"componentType":5126,
			"count":49,
			"max":[
				4.222425937652588,
				3.6424129009246826,
				3.642411947250366
			],
			"min":[
				2.921613931655884,
				-3.642411947250366,
				-3.6424124240875244
			],
			"type":"VEC3"
		},
		{
			"bufferView":6,
			"componentType":5126,
			"count":49,
			"type":"VEC3"
		},
		{
			"bufferView":7,
			"componentType":5126,
			"count":49,
			"type":"VEC2"
		},
		{
			"bufferView":8,
			"componentType":5126,
			"count":49,
			"type":"VEC2"
		},
		{
			"bufferView":9,
			"componentType":5123,
			"count":108,
			"type":"SCALAR"
		}
	],
	"bufferViews":[
		{
			"buffer":0,
			"byteLength":1884,
			"byteOffset":0,
			"target":34962
		},
		{
			"buffer":0,
			"byteLength":1884,
			"byteOffset":1884,
			"target":34962
		},
		{
			"buffer":0,
			"byteLength":1256,
			"byteOffset":3768,
			"target":34962
		},
		{
			"buffer":0,
			"byteLength":1256,
			"byteOffset":5024,
			"target":34962
		},
		{
			"buffer":0,
			"byteLength":612,
			"byteOffset":6280,
			"target":34963
		},
		{
			"buffer":0,
			"byteLength":588,
			"byteOffset":6892,
			"target":34962
		},
		{
			"buffer":0,
			"byteLength":588,
			"byteOffset":7480,
			"target":34962
		},
		{
			"buffer":0,
			"byteLength":392,
			"byteOffset":8068,
			"target":34962
		},
		{
			"buffer":0,
			"byteLength":392,
			"byteOffset":8460,
			"target":34962
		},
		{
			"buffer":0,
			"byteLength":216,
			"byteOffset":8852,
			"target":34963
		}
	],
	"samplers":[
		{
			"magFilter":9729,
			"minFilter":9987
		}
	],
	"buffers":[
		{
			"byteLength":9068,
			"uri":"search3.bin"
		}
	]
}
