{
	"asset":{
		"generator":"Khronos glTF Blender I/O v3.6.28",
		"version":"2.0"
	},
	"scene":0,
	"scenes":[
		{
			"name":"Scene",
			"nodes":[
				0
			]
		}
	],
	"nodes":[
		{
			"mesh":0,
			"name":"search1"
		}
	],
	"materials":[
		{
			"extras":{
				"dirt":1,
				"recolor":"team",
				"recolor_ref":[
					0.039,
					0.651,
					0.996
				]
			},
			"name":"Material 1 (convert.png)",
			"pbrMetallicRoughness":{
				"baseColorTexture":{
					"index":0
				},
				"metallicFactor":0
			}
		},
		{
			"extras":{
				"dirt":1,
				"recolor":"team",
				"recolor_ref":[
					0.039,
					0.651,
					0.996
				]
			},
			"name":"Material 2 (lemt.png)",
			"pbrMetallicRoughness":{
				"baseColorTexture":{
					"index":1
				},
				"metallicFactor":0
			}
		},
		{
			"extras":{
				"dirt":1,
				"recolor":"team",
				"recolor_ref":[
					0.039,
					0.651,
					0.996
				]
			},
			"name":"Material 3 (search.png)",
			"pbrMetallicRoughness":{
				"baseColorTexture":{
					"index":2
				},
				"metallicFactor":0
			}
		},
		{
			"extras":{
				"dirt":1,
				"recolor":"team",
				"recolor_ref":[
					0.039,
					0.651,
					0.996
				]
			},
			"name":"Material 4 (derrick.png)",
			"pbrMetallicRoughness":{
				"baseColorTexture":{
					"index":3
				},
				"metallicFactor":0
			}
		}
	],
	"meshes":[
		{
			"name":"search1",
			"primitives":[
				{
					"attributes":{
						"POSITION":0,
						"NORMAL":1,
						"TEXCOORD_0":2,
						"TEXCOORD_1":3
					},
					"indices":4,
					"material":0
				},
				{
					"attributes":{
						"POSITION":5,
						"NORMAL":6,
						"TEXCOORD_0":7,
						"TEXCOORD_1":8
					},
					"indices":9,
					"material":1
				},
				{
					"attributes":{
						"POSITION":10,
						"NORMAL":11,
						"TEXCOORD_0":12,
						"TEXCOORD_1":13
					},
					"indices":14,
					"material":2
				},
				{
					"attributes":{
						"POSITION":15,
						"NORMAL":16,
						"TEXCOORD_0":17,
						"TEXCOORD_1":18
					},
					"indices":19,
					"material":3
				}
			]
		}
	],
	"textures":[
		{
			"sampler":0,
			"source":0
		},
		{
			"sampler":0,
			"source":1
		},
		{
			"sampler":0,
			"source":2
		},
		{
			"sampler":0,
			"source":3
		}
	],
	"images":[
		{
			"mimeType":"image/png",
			"name":"convert",
			"uri":"convert.png"
		},
		{
			"mimeType":"image/png",
			"name":"lemt",
			"uri":"lemt.png"
		},
		{
			"mimeType":"image/png",
			"name":"search",
			"uri":"search.png"
		},
		{
			"mimeType":"image/png",
			"name":"derrick",
			"uri":"derrick.png"
		}
	],
	"accessors":[
		{
			"bufferView":0,
			"componentType":5126,
			"count":120,
			"max":[
				8.660253524780273,
				13,
				10
			],
			"min":[
				-8.660253524780273,
				-1,
				-10
			],
			"type":"VEC3"
		},
		{
			"bufferView":1,
			"componentType":5126,
			"count":120,
			"type":"VEC3"
		},
		{
			"bufferView":2,
			"componentType":5126,
			"count":120,
			"type":"VEC2"
		},
		{
			"bufferView":3,
			"componentType":5126,
			"count":120,
			"type":"VEC2"
		},
		{
			"bufferView":4,
			"componentType":5123,
			"count":180,
			"type":"SCALAR"
		},
		{
			"bufferView":5,
			"componentType":5126,
			"count":14,
			"max":[
				8.660253524780273,
				10,
				10
			],
			"min":[
				-8.660253524780273,
				3,
				-10
			],
			"type":"VEC3"
		},
		{
			"bufferView":6,
			"componentType":5126,
			"count":14,
			"type":"VEC3"
		},
		{
			"bufferView":7,
			"componentType":5126,
			"count":14,
			"type":"VEC2"
		},
		{
			"bufferView":8,
			"componentType":5126,
			"count":14,
			"type":"VEC2"
		},
		{
			"bufferView":9,
			"componentType":5123,
			"count":33,
			"type":"SCALAR"
		},
		{
			"bufferView":10,
			"componentType":5126,
			"count":27,
			"max":[
				8.660253524780273,
				10,
				7
			],
			"min":[
				-6.062178134918213,
				3,
				-7
			],
			"type":"VEC3"
		},
		{
			"bufferView":11,
			"componentType":5126,
			"count":27,
			"type":"VEC3"
		},
		{
			"bufferView":12,
			"componentType":5126,
			"count":27,
			"type":"VEC2"
		},
		{
			"bufferView":13,
			"componentType":5126,
			"count":27,
			"type":"VEC2"
		},
		{
			"bufferView":14,
			"componentType":5123,
			"count":39,
			"type":"SCALAR"
		},
		{
			"bufferView":15,
			"componentType":5126,
			"count":7,
			"max":[
				8.660253524780273,
				13,
				10
			],
			"min":[
				-8.660253524780273,
				13,
				-10
			],
			"type":"VEC3"
		},
		{
			"bufferView":16,
			"componentType":5126,
			"count":7,
			"type":"VEC3"
		},
		{
			"bufferView":17,
			"componentType":5126,
			"count":7,
			"type":"VEC2"
		},
		{
			"bufferView":18,
			"componentType":5126,
			"count":7,
			"type":"VEC2"
		},
		{
			"bufferView":19,
			"componentType":5123,
			"count":18,
			"type":"SCALAR"
		}
	],
	"bufferViews":[
		{
			"buffer":0,
			"byteLength":1440,
			"byteOffset":0,
			"target":34962
		},
		{
			"buffer":0,
			"byteLength":1440,
			"byteOffset":1440,
			"target":34962
		},
		{
			"buffer":0,
			"byteLength":960,
			"byteOffset":2880,
			"target":34962
		},
		{
			"buffer":0,
			"byteLength":960,
			"byteOffset":3840,
			"target":34962
		},
		{
			"buffer":0,
			"byteLength":360,
			"byteOffset":4800,
			"target":34963
		},
		{
			"buffer":0,
			"byteLength":168,
			"byteOffset":5160,
			"target":34962
		},
		{
			"buffer":0,
			"byteLength":168,
			"byteOffset":5328,
			"target":34962
		},
		{
			"buffer":0,
			"byteLength":112,
			"byteOffset":5496,
			"target":34962
		},
		{
			"buffer":0,
			"byteLength":112,
			"byteOffset":5608,
			"target":34962
		},
		{
			"buffer":0,
			"byteLength":66,
			"byteOffset":5720,
			"target":34963
		},
		{
			"buffer":0,
			"byteLength":324,
			"byteOffset":5788,
			"target":34962
		},
		{
			"buffer":0,
			"byteLength":324,
			"byteOffset":6112,
			"target":34962
		},
		{
			"buffer":0,
			"byteLength":216,
			"byteOffset":6436,
			"target":34962
		},
		{
			"buffer":0,
			"byteLength":216,
			"byteOffset":6652,
			"target":34962
		},
		{
			"buffer":0,
			"byteLength":78,
			"byteOffset":6868,
			"target":34963
		},
		{
			"buffer":0,
			"byteLength":84,
			"byteOffset":6948,
			"target":34962
		},
		{
			"buffer":0,
			"byteLength":84,
			"byteOffset":7032,
			"target":34962
		},
		{
			"buffer":0,
			"byteLength":56,
			"byteOffset":7116,
			"target":34962
		},
		{
			"buffer":0,
			"byteLength":56,
			"byteOffset":7172,
			"target":34962
		},
		{
			"buffer":0,
			"byteLength":36,
			"byteOffset":7228,
			"target":34963
		}
	],
	"samplers":[
		{
			"magFilter":9729,
			"minFilter":9987
		}
	],
	"buffers":[
		{
			"byteLength":7264,
			"uri":"search1.bin"
		}
	]
}
