{
	"asset":{
		"generator":"Khronos glTF Blender I/O v3.6.28",
		"version":"2.0"
	},
	"scene":0,
	"scenes":[
		{
			"name":"Scene",
			"nodes":[
				0
			]
		}
	],
	"nodes":[
		{
			"mesh":0,
			"name":"spider2"
		}
	],
	"materials":[
		{
			"extras":{
				"dirt":0,
				"recolor":"team",
				"recolor_ref":[
					0.039,
					0.651,
					0.996
				]
			},
			"name":"Material 1 (ant.png)",
			"pbrMetallicRoughness":{
				"baseColorTexture":{
					"index":0
				},
				"metallicFactor":0
			}
		}
	],
	"meshes":[
		{
			"name":"spider2",
			"primitives":[
				{
					"attributes":{
						"POSITION":0,
						"NORMAL":1,
						"TEXCOORD_0":2,
						"TEXCOORD_1":3
					},
					"indices":4,
					"material":0
				}
			]
		}
	],
	"textures":[
		{
			"sampler":0,
			"source":0
		}
	],
	"images":[
		{
			"mimeType":"image/png",
			"name":"ant",
			"uri":"ant.png"
		}
	],
	"accessors":[
		{
			"bufferView":0,
			"componentType":5126,
			"count":12,
			"max":[
				1.8049310445785522,
				0.7811970114707947,
				0.5341460108757019
			],
			"min":[
				-0.17339299619197845,
				-0.5908409953117371,
				-0.5389940142631531
			],
			"type":"VEC3"
		},
		{
			"bufferView":1,
			"componentType":5126,
			"count":12,
			"type":"VEC3"
		},
		{
			"bufferView":2,
			"componentType":5126,
			"count":12,
			"type":"VEC2"
		},
		{
			"bufferView":3,
			"componentType":5126,
			"count":12,
			"type":"VEC2"
		},
		{
			"bufferView":4,
			"componentType":5123,
			"count":60,
			"type":"SCALAR"
		}
	],
	"bufferViews":[
		{
			"buffer":0,
			"byteLength":144,
			"byteOffset":0,
			"target":34962
		},
		{
			"buffer":0,
			"byteLength":144,
			"byteOffset":144,
			"target":34962
		},
		{
			"buffer":0,
			"byteLength":96,
			"byteOffset":288,
			"target":34962
		},
		{
			"buffer":0,
			"byteLength":96,
			"byteOffset":384,
			"target":34962
		},
		{
			"buffer":0,
			"byteLength":120,
			"byteOffset":480,
			"target":34963
		}
	],
	"samplers":[
		{
			"magFilter":9729,
			"minFilter":9987
		}
	],
	"buffers":[
		{
			"byteLength":600,
			"uri":"spider2.bin"
		}
	]
}
