{
	"asset":{
		"generator":"Khronos glTF Blender I/O v3.6.28",
		"version":"2.0"
	},
	"scene":0,
	"scenes":[
		{
			"name":"Scene",
			"nodes":[
				0
			]
		}
	],
	"nodes":[
		{
			"mesh":0,
			"name":"spider1"
		}
	],
	"materials":[
		{
			"extras":{
				"dirt":0,
				"recolor":"team",
				"recolor_ref":[
					0.039,
					0.651,
					0.996
				]
			},
			"name":"Material 1 (ant.png)",
			"pbrMetallicRoughness":{
				"baseColorTexture":{
					"index":0
				},
				"metallicFactor":0
			}
		}
	],
	"meshes":[
		{
			"name":"spider1",
			"primitives":[
				{
					"attributes":{
						"POSITION":0,
						"NORMAL":1,
						"TEXCOORD_0":2,
						"TEXCOORD_1":3
					},
					"indices":4,
					"material":0
				}
			]
		}
	],
	"textures":[
		{
			"sampler":0,
			"source":0
		}
	],
	"images":[
		{
			"mimeType":"image/png",
			"name":"ant",
			"uri":"ant.png"
		}
	],
	"accessors":[
		{
			"bufferView":0,
			"componentType":5126,
			"count":35,
			"max":[
				0.26690399646759033,
				2.7587859630584717,
				2.141235113143921
			],
			"min":[
				-5.899237155914307,
				-0.8855410218238831,
				-2.1526880264282227
			],
			"type":"VEC3"
		},
		{
			"bufferView":1,
			"componentType":5126,
			"count":35,
			"type":"VEC3"
		},
		{
			"bufferView":2,
			"componentType":5126,
			"count":35,
			"type":"VEC2"
		},
		{
			"bufferView":3,
			"componentType":5126,
			"count":35,
			"type":"VEC2"
		},
		{
			"bufferView":4,
			"componentType":5123,
			"count":198,
			"type":"SCALAR"
		}
	],
	"bufferViews":[
		{
			"buffer":0,
			"byteLength":420,
			"byteOffset":0,
			"target":34962
		},
		{
			"buffer":0,
			"byteLength":420,
			"byteOffset":420,
			"target":34962
		},
		{
			"buffer":0,
			"byteLength":280,
			"byteOffset":840,
			"target":34962
		},
		{
			"buffer":0,
			"byteLength":280,
			"byteOffset":1120,
			"target":34962
		},
		{
			"buffer":0,
			"byteLength":396,
			"byteOffset":1400,
			"target":34963
		}
	],
	"samplers":[
		{
			"magFilter":9729,
			"minFilter":9987
		}
	],
	"buffers":[
		{
			"byteLength":1796,
			"uri":"spider1.bin"
		}
	]
}
