{
	"asset":{
		"generator":"Khronos glTF Blender I/O v4.2.57",
		"version":"2.0"
	},
	"scene":0,
	"scenes":[
		{
			"name":"Scene",
			"nodes":[
				0
			]
		}
	],
	"nodes":[
		{
			"mesh":0,
			"name":"spider7"
		}
	],
	"materials":[
		{
			"alphaMode":"BLEND",
			"extras":{
				"dirt":1
			},
			"name":"Material_NoRecolor",
			"pbrMetallicRoughness":{
				"baseColorTexture":{
					"index":0
				},
				"metallicFactor":0
			}
		}
	],
	"meshes":[
		{
			"name":"spider7",
			"primitives":[
				{
					"attributes":{
						"POSITION":0,
						"NORMAL":1,
						"TEXCOORD_0":2,
						"TEXCOORD_1":3
					},
					"indices":4,
					"material":0
				}
			]
		}
	],
	"textures":[
		{
			"sampler":0,
			"source":0
		}
	],
	"images":[
		{
			"mimeType":"image/png",
			"name":"objects",
			"uri":"objects.png"
		}
	],
	"accessors":[
		{
			"bufferView":0,
			"componentType":5126,
			"count":30,
			"max":[
				2.2023229598999023,
				0.11403000354766846,
				0.5940359830856323
			],
			"min":[
				0.052032001316547394,
				-0.4734239876270294,
				-0.011865000240504742
			],
			"type":"VEC3"
		},
		{
			"bufferView":1,
			"componentType":5126,
			"count":30,
			"type":"VEC3"
		},
		{
			"bufferView":2,
			"componentType":5126,
			"count":30,
			"type":"VEC2"
		},
		{
			"bufferView":3,
			"componentType":5126,
			"count":30,
			"type":"VEC2"
		},
		{
			"bufferView":4,
			"componentType":5123,
			"count":36,
			"type":"SCALAR"
		}
	],
	"bufferViews":[
		{
			"buffer":0,
			"byteLength":360,
			"byteOffset":0,
			"target":34962
		},
		{
			"buffer":0,
			"byteLength":360,
			"byteOffset":360,
			"target":34962
		},
		{
			"buffer":0,
			"byteLength":240,
			"byteOffset":720,
			"target":34962
		},
		{
			"buffer":0,
			"byteLength":240,
			"byteOffset":960,
			"target":34962
		},
		{
			"buffer":0,
			"byteLength":72,
			"byteOffset":1200,
			"target":34963
		}
	],
	"samplers":[
		{
			"magFilter":9729,
			"minFilter":9987
		}
	],
	"buffers":[
		{
			"byteLength":1272,
			"uri":"spider7.bin"
		}
	]
}
