{
	"asset":{
		"generator":"Khronos glTF Blender I/O v3.6.28",
		"version":"2.0"
	},
	"scene":0,
	"scenes":[
		{
			"name":"Scene",
			"nodes":[
				0
			]
		}
	],
	"nodes":[
		{
			"mesh":0,
			"name":"station"
		}
	],
	"materials":[
		{
			"extras":{
				"dirt":1,
				"recolor":"team",
				"recolor_ref":[
					0.039,
					0.651,
					0.996
				]
			},
			"name":"Material 1 (derrick.png)",
			"pbrMetallicRoughness":{
				"baseColorTexture":{
					"index":0
				},
				"metallicFactor":0
			}
		},
		{
			"extras":{
				"dirt":1,
				"recolor":"team",
				"recolor_ref":[
					0.039,
					0.651,
					0.996
				]
			},
			"name":"Material 2 (factory.png).002",
			"pbrMetallicRoughness":{
				"baseColorTexture":{
					"index":1
				},
				"metallicFactor":0
			}
		},
		{
			"extras":{
				"dirt":1,
				"recolor":"team",
				"recolor_ref":[
					0.039,
					0.651,
					0.996
				]
			},
			"name":"Material 3 (lemt.png).003",
			"pbrMetallicRoughness":{
				"baseColorTexture":{
					"index":2
				},
				"metallicFactor":0
			}
		},
		{
			"extras":{
				"dirt":1,
				"energy":1,
				"recolor":"team",
				"recolor_ref":[
					0.039,
					0.651,
					0.996
				],
				"tag":"energy"
			},
			"name":"Material 4 (lemt.png).001",
			"pbrMetallicRoughness":{
				"baseColorTexture":{
					"index":3
				},
				"metallicFactor":0
			}
		}
	],
	"meshes":[
		{
			"name":"station",
			"primitives":[
				{
					"attributes":{
						"POSITION":0,
						"NORMAL":1,
						"TEXCOORD_0":2,
						"TEXCOORD_1":3
					},
					"indices":4,
					"material":0
				},
				{
					"attributes":{
						"POSITION":5,
						"NORMAL":6,
						"TEXCOORD_0":7,
						"TEXCOORD_1":8
					},
					"indices":9,
					"material":1
				},
				{
					"attributes":{
						"POSITION":10,
						"NORMAL":11,
						"TEXCOORD_0":12,
						"TEXCOORD_1":13
					},
					"indices":14,
					"material":2
				},
				{
					"attributes":{
						"POSITION":15,
						"NORMAL":16,
						"TEXCOORD_0":17,
						"TEXCOORD_1":18
					},
					"indices":19,
					"material":3
				}
			]
		}
	],
	"textures":[
		{
			"sampler":0,
			"source":0
		},
		{
			"sampler":0,
			"source":1
		},
		{
			"sampler":0,
			"source":2
		},
		{
			"sampler":0,
			"source":2
		}
	],
	"images":[
		{
			"mimeType":"image/png",
			"name":"derrick",
			"uri":"derrick.png"
		},
		{
			"mimeType":"image/png",
			"name":"factory",
			"uri":"factory.png"
		},
		{
			"mimeType":"image/png",
			"name":"lemt",
			"uri":"lemt.png"
		}
	],
	"accessors":[
		{
			"bufferView":0,
			"componentType":5126,
			"count":25,
			"max":[
				7.389369964599609,
				4,
				7.400666236877441
			],
			"min":[
				-19,
				-1,
				-7.381408214569092
			],
			"type":"VEC3"
		},
		{
			"bufferView":1,
			"componentType":5126,
			"count":25,
			"type":"VEC3"
		},
		{
			"bufferView":2,
			"componentType":5126,
			"count":25,
			"type":"VEC2"
		},
		{
			"bufferView":3,
			"componentType":5126,
			"count":25,
			"type":"VEC2"
		},
		{
			"bufferView":4,
			"componentType":5123,
			"count":48,
			"type":"SCALAR"
		},
		{
			"bufferView":5,
			"componentType":5126,
			"count":41,
			"max":[
				9.237129211425781,
				10.001649856567383,
				9.248424530029297
			],
			"min":[
				-17.95545196533203,
				-1,
				-9.229166984558105
			],
			"type":"VEC3"
		},
		{
			"bufferView":6,
			"componentType":5126,
			"count":41,
			"type":"VEC3"
		},
		{
			"bufferView":7,
			"componentType":5126,
			"count":41,
			"type":"VEC2"
		},
		{
			"bufferView":8,
			"componentType":5126,
			"count":41,
			"type":"VEC2"
		},
		{
			"bufferView":9,
			"componentType":5123,
			"count":72,
			"type":"SCALAR"
		},
		{
			"bufferView":10,
			"componentType":5126,
			"count":16,
			"max":[
				-7.192576885223389,
				4,
				4
			],
			"min":[
				-19,
				-1.0344140529632568,
				-4
			],
			"type":"VEC3"
		},
		{
			"bufferView":11,
			"componentType":5126,
			"count":16,
			"type":"VEC3"
		},
		{
			"bufferView":12,
			"componentType":5126,
			"count":16,
			"type":"VEC2"
		},
		{
			"bufferView":13,
			"componentType":5126,
			"count":16,
			"type":"VEC2"
		},
		{
			"bufferView":14,
			"componentType":5123,
			"count":24,
			"type":"SCALAR"
		},
		{
			"bufferView":15,
			"componentType":5126,
			"count":28,
			"max":[
				-11.955452919006348,
				10.001649856567383,
				3
			],
			"min":[
				-17.95545196533203,
				4.001649856567383,
				-3
			],
			"type":"VEC3"
		},
		{
			"bufferView":16,
			"componentType":5126,
			"count":28,
			"type":"VEC3"
		},
		{
			"bufferView":17,
			"componentType":5126,
			"count":28,
			"type":"VEC2"
		},
		{
			"bufferView":18,
			"componentType":5126,
			"count":28,
			"type":"VEC2"
		},
		{
			"bufferView":19,
			"componentType":5123,
			"count":48,
			"type":"SCALAR"
		}
	],
	"bufferViews":[
		{
			"buffer":0,
			"byteLength":300,
			"byteOffset":0,
			"target":34962
		},
		{
			"buffer":0,
			"byteLength":300,
			"byteOffset":300,
			"target":34962
		},
		{
			"buffer":0,
			"byteLength":200,
			"byteOffset":600,
			"target":34962
		},
		{
			"buffer":0,
			"byteLength":200,
			"byteOffset":800,
			"target":34962
		},
		{
			"buffer":0,
			"byteLength":96,
			"byteOffset":1000,
			"target":34963
		},
		{
			"buffer":0,
			"byteLength":492,
			"byteOffset":1096,
			"target":34962
		},
		{
			"buffer":0,
			"byteLength":492,
			"byteOffset":1588,
			"target":34962
		},
		{
			"buffer":0,
			"byteLength":328,
			"byteOffset":2080,
			"target":34962
		},
		{
			"buffer":0,
			"byteLength":328,
			"byteOffset":2408,
			"target":34962
		},
		{
			"buffer":0,
			"byteLength":144,
			"byteOffset":2736,
			"target":34963
		},
		{
			"buffer":0,
			"byteLength":192,
			"byteOffset":2880,
			"target":34962
		},
		{
			"buffer":0,
			"byteLength":192,
			"byteOffset":3072,
			"target":34962
		},
		{
			"buffer":0,
			"byteLength":128,
			"byteOffset":3264,
			"target":34962
		},
		{
			"buffer":0,
			"byteLength":128,
			"byteOffset":3392,
			"target":34962
		},
		{
			"buffer":0,
			"byteLength":48,
			"byteOffset":3520,
			"target":34963
		},
		{
			"buffer":0,
			"byteLength":336,
			"byteOffset":3568,
			"target":34962
		},
		{
			"buffer":0,
			"byteLength":336,
			"byteOffset":3904,
			"target":34962
		},
		{
			"buffer":0,
			"byteLength":224,
			"byteOffset":4240,
			"target":34962
		},
		{
			"buffer":0,
			"byteLength":224,
			"byteOffset":4464,
			"target":34962
		},
		{
			"buffer":0,
			"byteLength":96,
			"byteOffset":4688,
			"target":34963
		}
	],
	"samplers":[
		{
			"magFilter":9729,
			"minFilter":9987
		}
	],
	"buffers":[
		{
			"byteLength":4784,
			"uri":"station.bin"
		}
	]
}
