{
	"asset":{
		"generator":"Khronos glTF Blender I/O v4.1.63",
		"version":"2.0"
	},
	"scene":0,
	"scenes":[
		{
			"extras":{
				"bc":{
					"snap":{
						"hit":false
					}
				}
			},
			"name":"Scene",
			"nodes":[
				0
			]
		}
	],
	"nodes":[
		{
			"extras":{
				"hops":{}
			},
			"mesh":0,
			"name":"subm1"
		}
	],
	"materials":[
		{
			"extras":{
				"dirt":1
			},
			"name":"subm1",
			"pbrMetallicRoughness":{
				"baseColorFactor":[
					0.30000001192092896,
					0.30000001192092896,
					0.30000001192092896,
					1
				],
				"baseColorTexture":{
					"index":0
				},
				"metallicFactor":0
			}
		},
		{
			"extras":{
				"dirt":1,
				"recolor":"team",
				"recolor_ref":[
					0.07818696647882462,
					0.3049945831298828,
					0.5088714957237244
				]
			},
			"name":"subm1 2",
			"pbrMetallicRoughness":{
				"baseColorTexture":{
					"index":1
				},
				"metallicFactor":0
			}
		},
		{
			"extras":{
				"dirt":1
			},
			"name":"subm1 3",
			"pbrMetallicRoughness":{
				"baseColorTexture":{
					"index":2
				},
				"metallicFactor":0
			}
		}
	],
	"meshes":[
		{
			"extras":{
				"hops":{}
			},
			"name":"subm1",
			"primitives":[
				{
					"attributes":{
						"POSITION":0,
						"NORMAL":1,
						"TEXCOORD_0":2,
						"TEXCOORD_1":3
					},
					"indices":4,
					"material":0
				},
				{
					"attributes":{
						"POSITION":5,
						"NORMAL":6,
						"TEXCOORD_0":7,
						"TEXCOORD_1":8
					},
					"indices":9,
					"material":1
				},
				{
					"attributes":{
						"POSITION":10,
						"NORMAL":11,
						"TEXCOORD_0":12,
						"TEXCOORD_1":13
					},
					"indices":14,
					"material":2
				}
			]
		}
	],
	"textures":[
		{
			"sampler":0,
			"source":0
		},
		{
			"sampler":0,
			"source":0
		},
		{
			"sampler":0,
			"source":0
		}
	],
	"images":[
		{
			"mimeType":"image/png",
			"name":"objects",
			"uri":"objects.png"
		}
	],
	"accessors":[
		{
			"bufferView":0,
			"componentType":5126,
			"count":58,
			"max":[
				3.3507330417633057,
				2.5048201084136963,
				2.294426918029785
			],
			"min":[
				-3.3695340156555176,
				0.4940190017223358,
				-2.2880780696868896
			],
			"type":"VEC3"
		},
		{
			"bufferView":1,
			"componentType":5126,
			"count":58,
			"type":"VEC3"
		},
		{
			"bufferView":2,
			"componentType":5126,
			"count":58,
			"type":"VEC2"
		},
		{
			"bufferView":3,
			"componentType":5126,
			"count":58,
			"type":"VEC2"
		},
		{
			"bufferView":4,
			"componentType":5123,
			"count":66,
			"type":"SCALAR"
		},
		{
			"bufferView":5,
			"componentType":5126,
			"count":206,
			"max":[
				4.161527156829834,
				7.524754047393799,
				3
			],
			"min":[
				-4.007094860076904,
				0.9842849969863892,
				-3
			],
			"type":"VEC3"
		},
		{
			"bufferView":6,
			"componentType":5126,
			"count":206,
			"type":"VEC3"
		},
		{
			"bufferView":7,
			"componentType":5126,
			"count":206,
			"type":"VEC2"
		},
		{
			"bufferView":8,
			"componentType":5126,
			"count":206,
			"type":"VEC2"
		},
		{
			"bufferView":9,
			"componentType":5123,
			"count":408,
			"type":"SCALAR"
		},
		{
			"bufferView":10,
			"componentType":5126,
			"count":36,
			"max":[
				4.161527156829834,
				4.9842848777771,
				1.5090700387954712
			],
			"min":[
				-5.991121768951416,
				0.9842849969863892,
				-1.5395209789276123
			],
			"type":"VEC3"
		},
		{
			"bufferView":11,
			"componentType":5126,
			"count":36,
			"type":"VEC3"
		},
		{
			"bufferView":12,
			"componentType":5126,
			"count":36,
			"type":"VEC2"
		},
		{
			"bufferView":13,
			"componentType":5126,
			"count":36,
			"type":"VEC2"
		},
		{
			"bufferView":14,
			"componentType":5123,
			"count":48,
			"type":"SCALAR"
		}
	],
	"bufferViews":[
		{
			"buffer":0,
			"byteLength":696,
			"byteOffset":0,
			"target":34962
		},
		{
			"buffer":0,
			"byteLength":696,
			"byteOffset":696,
			"target":34962
		},
		{
			"buffer":0,
			"byteLength":464,
			"byteOffset":1392,
			"target":34962
		},
		{
			"buffer":0,
			"byteLength":464,
			"byteOffset":1856,
			"target":34962
		},
		{
			"buffer":0,
			"byteLength":132,
			"byteOffset":2320,
			"target":34963
		},
		{
			"buffer":0,
			"byteLength":2472,
			"byteOffset":2452,
			"target":34962
		},
		{
			"buffer":0,
			"byteLength":2472,
			"byteOffset":4924,
			"target":34962
		},
		{
			"buffer":0,
			"byteLength":1648,
			"byteOffset":7396,
			"target":34962
		},
		{
			"buffer":0,
			"byteLength":1648,
			"byteOffset":9044,
			"target":34962
		},
		{
			"buffer":0,
			"byteLength":816,
			"byteOffset":10692,
			"target":34963
		},
		{
			"buffer":0,
			"byteLength":432,
			"byteOffset":11508,
			"target":34962
		},
		{
			"buffer":0,
			"byteLength":432,
			"byteOffset":11940,
			"target":34962
		},
		{
			"buffer":0,
			"byteLength":288,
			"byteOffset":12372,
			"target":34962
		},
		{
			"buffer":0,
			"byteLength":288,
			"byteOffset":12660,
			"target":34962
		},
		{
			"buffer":0,
			"byteLength":96,
			"byteOffset":12948,
			"target":34963
		}
	],
	"samplers":[
		{
			"magFilter":9729,
			"minFilter":9987
		}
	],
	"buffers":[
		{
			"byteLength":13044,
			"uri":"subm1.bin"
		}
	]
}
