{
	"asset":{
		"generator":"Khronos glTF Blender I/O v3.6.28",
		"version":"2.0"
	},
	"scene":0,
	"scenes":[
		{
			"name":"Scene",
			"nodes":[
				0
			]
		}
	],
	"nodes":[
		{
			"mesh":0,
			"name":"teen30"
		}
	],
	"materials":[
		{
			"extras":{
				"dirt":1,
				"recolor":"team",
				"recolor_ref":[
					0.039,
					0.651,
					0.996
				]
			},
			"name":"Material 1 (kid3.png)",
			"pbrMetallicRoughness":{
				"baseColorTexture":{
					"index":0
				},
				"metallicFactor":0
			}
		}
	],
	"meshes":[
		{
			"name":"teen30",
			"primitives":[
				{
					"attributes":{
						"POSITION":0,
						"NORMAL":1,
						"TEXCOORD_0":2,
						"TEXCOORD_1":3
					},
					"indices":4,
					"material":0
				}
			]
		}
	],
	"textures":[
		{
			"sampler":0,
			"source":0
		}
	],
	"images":[
		{
			"mimeType":"image/png",
			"name":"kid3",
			"uri":"kid3.png"
		}
	],
	"accessors":[
		{
			"bufferView":0,
			"componentType":5126,
			"count":380,
			"max":[
				18,
				47.15188217163086,
				20.66289710998535
			],
			"min":[
				-29.29528045654297,
				0,
				-20.662893295288086
			],
			"type":"VEC3"
		},
		{
			"bufferView":1,
			"componentType":5126,
			"count":380,
			"type":"VEC3"
		},
		{
			"bufferView":2,
			"componentType":5126,
			"count":380,
			"type":"VEC2"
		},
		{
			"bufferView":3,
			"componentType":5126,
			"count":380,
			"type":"VEC2"
		},
		{
			"bufferView":4,
			"componentType":5123,
			"count":744,
			"type":"SCALAR"
		}
	],
	"bufferViews":[
		{
			"buffer":0,
			"byteLength":4560,
			"byteOffset":0,
			"target":34962
		},
		{
			"buffer":0,
			"byteLength":4560,
			"byteOffset":4560,
			"target":34962
		},
		{
			"buffer":0,
			"byteLength":3040,
			"byteOffset":9120,
			"target":34962
		},
		{
			"buffer":0,
			"byteLength":3040,
			"byteOffset":12160,
			"target":34962
		},
		{
			"buffer":0,
			"byteLength":1488,
			"byteOffset":15200,
			"target":34963
		}
	],
	"samplers":[
		{
			"magFilter":9729,
			"minFilter":9987
		}
	],
	"buffers":[
		{
			"byteLength":16688,
			"uri":"teen30.bin"
		}
	]
}
