{
	"asset":{
		"generator":"Khronos glTF Blender I/O v4.2.60",
		"version":"2.0"
	},
	"extensionsUsed":[
		"KHR_materials_clearcoat"
	],
	"scene":0,
	"scenes":[
		{
			"extras":{
				"bc":{
					"snap":{
						"hit":false
					},
					"running":0,
					"collection":null,
					"shape":null
				}
			},
			"name":"Scene",
			"nodes":[
				0
			]
		}
	],
	"nodes":[
		{
			"extras":{
				"hops":{}
			},
			"mesh":0,
			"name":"teen10"
		}
	],
	"materials":[
		{
			"extensions":{
				"KHR_materials_clearcoat":{
					"clearcoatRoughnessFactor":0
				}
			},
			"name":"teen10",
			"pbrMetallicRoughness":{
				"baseColorTexture":{
					"index":0
				},
				"metallicFactor":0
			}
		}
	],
	"meshes":[
		{
			"extras":{
				"hops":{}
			},
			"name":"teen10",
			"primitives":[
				{
					"attributes":{
						"POSITION":0,
						"NORMAL":1,
						"TEXCOORD_0":2,
						"TEXCOORD_1":3
					},
					"indices":4,
					"material":0
				}
			]
		}
	],
	"textures":[
		{
			"sampler":0,
			"source":0
		}
	],
	"images":[
		{
			"mimeType":"image/png",
			"name":"objects",
			"uri":"objects.png"
		}
	],
	"accessors":[
		{
			"bufferView":0,
			"componentType":5126,
			"count":677,
			"max":[
				29,
				24.979785919189453,
				9.847841262817383
			],
			"min":[
				-31,
				-0.035718001425266266,
				-10.458011627197266
			],
			"type":"VEC3"
		},
		{
			"bufferView":1,
			"componentType":5126,
			"count":677,
			"type":"VEC3"
		},
		{
			"bufferView":2,
			"componentType":5126,
			"count":677,
			"type":"VEC2"
		},
		{
			"bufferView":3,
			"componentType":5126,
			"count":677,
			"type":"VEC2"
		},
		{
			"bufferView":4,
			"componentType":5123,
			"count":1146,
			"type":"SCALAR"
		}
	],
	"bufferViews":[
		{
			"buffer":0,
			"byteLength":8124,
			"byteOffset":0,
			"target":34962
		},
		{
			"buffer":0,
			"byteLength":8124,
			"byteOffset":8124,
			"target":34962
		},
		{
			"buffer":0,
			"byteLength":5416,
			"byteOffset":16248,
			"target":34962
		},
		{
			"buffer":0,
			"byteLength":5416,
			"byteOffset":21664,
			"target":34962
		},
		{
			"buffer":0,
			"byteLength":2292,
			"byteOffset":27080,
			"target":34963
		}
	],
	"samplers":[
		{
			"magFilter":9729,
			"minFilter":9987
		}
	],
	"buffers":[
		{
			"byteLength":29372,
			"uri":"teen10.bin"
		}
	]
}
