{
	"asset":{
		"generator":"Khronos glTF Blender I/O v4.1.63",
		"version":"2.0"
	},
	"scene":0,
	"scenes":[
		{
			"extras":{
				"bc":{
					"snap":{
						"hit":false
					}
				}
			},
			"name":"Scene",
			"nodes":[
				0
			]
		}
	],
	"nodes":[
		{
			"extras":{
				"hops":{}
			},
			"mesh":0,
			"name":"teen38b"
		}
	],
	"materials":[
		{
			"extras":{
				"dirt":1
			},
			"name":"teen38b",
			"pbrMetallicRoughness":{
				"baseColorTexture":{
					"index":0
				},
				"metallicFactor":0
			}
		}
	],
	"meshes":[
		{
			"extras":{
				"hops":{}
			},
			"name":"teen38b",
			"primitives":[
				{
					"attributes":{
						"POSITION":0,
						"NORMAL":1,
						"TEXCOORD_0":2,
						"TEXCOORD_1":3
					},
					"indices":4,
					"material":0
				}
			]
		}
	],
	"textures":[
		{
			"sampler":0,
			"source":0
		}
	],
	"images":[
		{
			"mimeType":"image/png",
			"name":"objects",
			"uri":"objects.png"
		}
	],
	"accessors":[
		{
			"bufferView":0,
			"componentType":5126,
			"count":918,
			"max":[
				16.003734588623047,
				22,
				22
			],
			"min":[
				-7,
				-22,
				-22
			],
			"type":"VEC3"
		},
		{
			"bufferView":1,
			"componentType":5126,
			"count":918,
			"type":"VEC3"
		},
		{
			"bufferView":2,
			"componentType":5126,
			"count":918,
			"type":"VEC2"
		},
		{
			"bufferView":3,
			"componentType":5126,
			"count":918,
			"type":"VEC2"
		},
		{
			"bufferView":4,
			"componentType":5123,
			"count":1392,
			"type":"SCALAR"
		}
	],
	"bufferViews":[
		{
			"buffer":0,
			"byteLength":11016,
			"byteOffset":0,
			"target":34962
		},
		{
			"buffer":0,
			"byteLength":11016,
			"byteOffset":11016,
			"target":34962
		},
		{
			"buffer":0,
			"byteLength":7344,
			"byteOffset":22032,
			"target":34962
		},
		{
			"buffer":0,
			"byteLength":7344,
			"byteOffset":29376,
			"target":34962
		},
		{
			"buffer":0,
			"byteLength":2784,
			"byteOffset":36720,
			"target":34963
		}
	],
	"samplers":[
		{
			"magFilter":9729,
			"minFilter":9987
		}
	],
	"buffers":[
		{
			"byteLength":39504,
			"uri":"teen38b.bin"
		}
	]
}
