{
	"asset":{
		"generator":"Khronos glTF Blender I/O v3.6.28",
		"version":"2.0"
	},
	"scene":0,
	"scenes":[
		{
			"name":"Scene",
			"nodes":[
				0
			]
		}
	],
	"nodes":[
		{
			"mesh":0,
			"name":"teen10"
		}
	],
	"materials":[
		{
			"extras":{
				"dirt":0,
				"recolor":"team",
				"recolor_ref":[
					0.039,
					0.651,
					0.996
				]
			},
			"name":"Material 1 (kid.png)",
			"pbrMetallicRoughness":{
				"baseColorTexture":{
					"index":0
				},
				"metallicFactor":0
			}
		},
		{
			"extras":{
				"dirt":0,
				"recolor":"team",
				"recolor_ref":[
					0.039,
					0.651,
					0.996
				]
			},
			"name":"Material 2 (drawer.png)",
			"pbrMetallicRoughness":{
				"baseColorTexture":{
					"index":1
				},
				"metallicFactor":0
			}
		},
		{
			"extras":{
				"dirt":1,
				"recolor":"team",
				"recolor_ref":[
					0.039,
					0.651,
					0.996
				]
			},
			"name":"Material 3 (drawer.png)",
			"pbrMetallicRoughness":{
				"baseColorTexture":{
					"index":2
				},
				"metallicFactor":0
			}
		}
	],
	"meshes":[
		{
			"name":"teen10",
			"primitives":[
				{
					"attributes":{
						"POSITION":0,
						"NORMAL":1,
						"TEXCOORD_0":2,
						"TEXCOORD_1":3
					},
					"indices":4,
					"material":0
				},
				{
					"attributes":{
						"POSITION":5,
						"NORMAL":6,
						"TEXCOORD_0":7,
						"TEXCOORD_1":8
					},
					"indices":9,
					"material":1
				},
				{
					"attributes":{
						"POSITION":10,
						"NORMAL":11,
						"TEXCOORD_0":12,
						"TEXCOORD_1":13
					},
					"indices":14,
					"material":2
				}
			]
		}
	],
	"textures":[
		{
			"sampler":0,
			"source":0
		},
		{
			"sampler":0,
			"source":1
		},
		{
			"sampler":0,
			"source":1
		}
	],
	"images":[
		{
			"mimeType":"image/png",
			"name":"kid",
			"uri":"kid.png"
		},
		{
			"mimeType":"image/png",
			"name":"drawer",
			"uri":"drawer.png"
		}
	],
	"accessors":[
		{
			"bufferView":0,
			"componentType":5126,
			"count":495,
			"max":[
				18.909292221069336,
				24.979785919189453,
				9.847841262817383
			],
			"min":[
				-20.54591178894043,
				-0.035718001425266266,
				-10.458011627197266
			],
			"type":"VEC3"
		},
		{
			"bufferView":1,
			"componentType":5126,
			"count":495,
			"type":"VEC3"
		},
		{
			"bufferView":2,
			"componentType":5126,
			"count":495,
			"type":"VEC2"
		},
		{
			"bufferView":3,
			"componentType":5126,
			"count":495,
			"type":"VEC2"
		},
		{
			"bufferView":4,
			"componentType":5123,
			"count":918,
			"type":"SCALAR"
		},
		{
			"bufferView":5,
			"componentType":5126,
			"count":4,
			"max":[
				-21,
				14,
				5
			],
			"min":[
				-21,
				0,
				-5
			],
			"type":"VEC3"
		},
		{
			"bufferView":6,
			"componentType":5126,
			"count":4,
			"type":"VEC3"
		},
		{
			"bufferView":7,
			"componentType":5126,
			"count":4,
			"type":"VEC2"
		},
		{
			"bufferView":8,
			"componentType":5126,
			"count":4,
			"type":"VEC2"
		},
		{
			"bufferView":9,
			"componentType":5123,
			"count":6,
			"type":"SCALAR"
		},
		{
			"bufferView":10,
			"componentType":5126,
			"count":174,
			"max":[
				29,
				14,
				5
			],
			"min":[
				-31,
				0,
				-5
			],
			"type":"VEC3"
		},
		{
			"bufferView":11,
			"componentType":5126,
			"count":174,
			"type":"VEC3"
		},
		{
			"bufferView":12,
			"componentType":5126,
			"count":174,
			"type":"VEC2"
		},
		{
			"bufferView":13,
			"componentType":5126,
			"count":174,
			"type":"VEC2"
		},
		{
			"bufferView":14,
			"componentType":5123,
			"count":222,
			"type":"SCALAR"
		}
	],
	"bufferViews":[
		{
			"buffer":0,
			"byteLength":5940,
			"byteOffset":0,
			"target":34962
		},
		{
			"buffer":0,
			"byteLength":5940,
			"byteOffset":5940,
			"target":34962
		},
		{
			"buffer":0,
			"byteLength":3960,
			"byteOffset":11880,
			"target":34962
		},
		{
			"buffer":0,
			"byteLength":3960,
			"byteOffset":15840,
			"target":34962
		},
		{
			"buffer":0,
			"byteLength":1836,
			"byteOffset":19800,
			"target":34963
		},
		{
			"buffer":0,
			"byteLength":48,
			"byteOffset":21636,
			"target":34962
		},
		{
			"buffer":0,
			"byteLength":48,
			"byteOffset":21684,
			"target":34962
		},
		{
			"buffer":0,
			"byteLength":32,
			"byteOffset":21732,
			"target":34962
		},
		{
			"buffer":0,
			"byteLength":32,
			"byteOffset":21764,
			"target":34962
		},
		{
			"buffer":0,
			"byteLength":12,
			"byteOffset":21796,
			"target":34963
		},
		{
			"buffer":0,
			"byteLength":2088,
			"byteOffset":21808,
			"target":34962
		},
		{
			"buffer":0,
			"byteLength":2088,
			"byteOffset":23896,
			"target":34962
		},
		{
			"buffer":0,
			"byteLength":1392,
			"byteOffset":25984,
			"target":34962
		},
		{
			"buffer":0,
			"byteLength":1392,
			"byteOffset":27376,
			"target":34962
		},
		{
			"buffer":0,
			"byteLength":444,
			"byteOffset":28768,
			"target":34963
		}
	],
	"samplers":[
		{
			"magFilter":9729,
			"minFilter":9987
		}
	],
	"buffers":[
		{
			"byteLength":29212,
			"uri":"teen10.bin"
		}
	]
}
