{
	"asset":{
		"generator":"Khronos glTF Blender I/O v3.6.28",
		"version":"2.0"
	},
	"scene":0,
	"scenes":[
		{
			"name":"Scene",
			"nodes":[
				0
			]
		}
	],
	"nodes":[
		{
			"mesh":0,
			"name":"teen41"
		}
	],
	"materials":[
		{
			"extras":{
				"dirt":1,
				"recolor":"team",
				"recolor_ref":[
					0.039,
					0.651,
					0.996
				]
			},
			"name":"Material 1 (kid2.png)",
			"pbrMetallicRoughness":{
				"baseColorTexture":{
					"index":0
				},
				"metallicFactor":0
			}
		}
	],
	"meshes":[
		{
			"name":"teen41",
			"primitives":[
				{
					"attributes":{
						"POSITION":0,
						"NORMAL":1,
						"TEXCOORD_0":2,
						"TEXCOORD_1":3
					},
					"indices":4,
					"material":0
				}
			]
		}
	],
	"textures":[
		{
			"sampler":0,
			"source":0
		}
	],
	"images":[
		{
			"mimeType":"image/png",
			"name":"kid2",
			"uri":"kid2.png"
		}
	],
	"accessors":[
		{
			"bufferView":0,
			"componentType":5126,
			"count":1096,
			"max":[
				181.39862060546875,
				196.16917419433594,
				37.46463394165039
			],
			"min":[
				-181.83668518066406,
				-6.582757949829102,
				-63.55995178222656
			],
			"type":"VEC3"
		},
		{
			"bufferView":1,
			"componentType":5126,
			"count":1096,
			"type":"VEC3"
		},
		{
			"bufferView":2,
			"componentType":5126,
			"count":1096,
			"type":"VEC2"
		},
		{
			"bufferView":3,
			"componentType":5126,
			"count":1096,
			"type":"VEC2"
		},
		{
			"bufferView":4,
			"componentType":5123,
			"count":1770,
			"type":"SCALAR"
		}
	],
	"bufferViews":[
		{
			"buffer":0,
			"byteLength":13152,
			"byteOffset":0,
			"target":34962
		},
		{
			"buffer":0,
			"byteLength":13152,
			"byteOffset":13152,
			"target":34962
		},
		{
			"buffer":0,
			"byteLength":8768,
			"byteOffset":26304,
			"target":34962
		},
		{
			"buffer":0,
			"byteLength":8768,
			"byteOffset":35072,
			"target":34962
		},
		{
			"buffer":0,
			"byteLength":3540,
			"byteOffset":43840,
			"target":34963
		}
	],
	"samplers":[
		{
			"magFilter":9729,
			"minFilter":9987
		}
	],
	"buffers":[
		{
			"byteLength":47380,
			"uri":"teen41.bin"
		}
	]
}
