{
	"asset":{
		"generator":"Khronos glTF Blender I/O v4.2.60",
		"version":"2.0"
	},
	"extensionsUsed":[
		"KHR_materials_clearcoat"
	],
	"scene":0,
	"scenes":[
		{
			"extras":{
				"bc":{
					"snap":{
						"hit":false
					},
					"running":0,
					"collection":null,
					"shape":null
				}
			},
			"name":"Scene",
			"nodes":[
				0
			]
		}
	],
	"nodes":[
		{
			"extras":{
				"hops":{}
			},
			"mesh":0,
			"name":"teen19"
		}
	],
	"materials":[
		{
			"doubleSided":true,
			"extensions":{
				"KHR_materials_clearcoat":{
					"clearcoatRoughnessFactor":0
				}
			},
			"name":"teen19",
			"pbrMetallicRoughness":{
				"baseColorTexture":{
					"index":0
				},
				"metallicFactor":0
			}
		}
	],
	"meshes":[
		{
			"extras":{
				"hops":{}
			},
			"name":"teen19",
			"primitives":[
				{
					"attributes":{
						"POSITION":0,
						"NORMAL":1,
						"TEXCOORD_0":2,
						"TEXCOORD_1":3
					},
					"indices":4,
					"material":0
				}
			]
		}
	],
	"textures":[
		{
			"sampler":0,
			"source":0
		}
	],
	"images":[
		{
			"mimeType":"image/png",
			"name":"objects",
			"uri":"objects.png"
		}
	],
	"accessors":[
		{
			"bufferView":0,
			"componentType":5126,
			"count":619,
			"max":[
				35,
				40.85304260253906,
				30.265987396240234
			],
			"min":[
				-31.999998092651367,
				-1.9073486328125e-06,
				-32.76170349121094
			],
			"type":"VEC3"
		},
		{
			"bufferView":1,
			"componentType":5126,
			"count":619,
			"type":"VEC3"
		},
		{
			"bufferView":2,
			"componentType":5126,
			"count":619,
			"type":"VEC2"
		},
		{
			"bufferView":3,
			"componentType":5126,
			"count":619,
			"type":"VEC2"
		},
		{
			"bufferView":4,
			"componentType":5123,
			"count":1620,
			"type":"SCALAR"
		}
	],
	"bufferViews":[
		{
			"buffer":0,
			"byteLength":7428,
			"byteOffset":0,
			"target":34962
		},
		{
			"buffer":0,
			"byteLength":7428,
			"byteOffset":7428,
			"target":34962
		},
		{
			"buffer":0,
			"byteLength":4952,
			"byteOffset":14856,
			"target":34962
		},
		{
			"buffer":0,
			"byteLength":4952,
			"byteOffset":19808,
			"target":34962
		},
		{
			"buffer":0,
			"byteLength":3240,
			"byteOffset":24760,
			"target":34963
		}
	],
	"samplers":[
		{
			"magFilter":9729,
			"minFilter":9987
		}
	],
	"buffers":[
		{
			"byteLength":28000,
			"uri":"teen19.bin"
		}
	]
}
