{
	"asset":{
		"generator":"Khronos glTF Blender I/O v4.1.63",
		"version":"2.0"
	},
	"scene":0,
	"scenes":[
		{
			"extras":{
				"bc":{
					"snap":{
						"hit":false
					}
				}
			},
			"name":"Scene",
			"nodes":[
				0
			]
		}
	],
	"nodes":[
		{
			"extras":{
				"hops":{}
			},
			"mesh":0,
			"name":"teen17"
		}
	],
	"materials":[
		{
			"name":"teen17",
			"pbrMetallicRoughness":{
				"baseColorTexture":{
					"index":0
				},
				"metallicFactor":0
			}
		}
	],
	"meshes":[
		{
			"extras":{
				"hops":{}
			},
			"name":"teen17",
			"primitives":[
				{
					"attributes":{
						"POSITION":0,
						"NORMAL":1,
						"TEXCOORD_0":2,
						"TEXCOORD_1":3
					},
					"indices":4,
					"material":0
				}
			]
		}
	],
	"textures":[
		{
			"sampler":0,
			"source":0
		}
	],
	"images":[
		{
			"mimeType":"image/png",
			"name":"objects",
			"uri":"objects.png"
		}
	],
	"accessors":[
		{
			"bufferView":0,
			"componentType":5126,
			"count":524,
			"max":[
				32,
				62.76170349121094,
				10.853042602539062
			],
			"min":[
				-31.999998092651367,
				-0.26598700881004333,
				-10.746956825256348
			],
			"type":"VEC3"
		},
		{
			"bufferView":1,
			"componentType":5126,
			"count":524,
			"type":"VEC3"
		},
		{
			"bufferView":2,
			"componentType":5126,
			"count":524,
			"type":"VEC2"
		},
		{
			"bufferView":3,
			"componentType":5126,
			"count":524,
			"type":"VEC2"
		},
		{
			"bufferView":4,
			"componentType":5123,
			"count":1368,
			"type":"SCALAR"
		}
	],
	"bufferViews":[
		{
			"buffer":0,
			"byteLength":6288,
			"byteOffset":0,
			"target":34962
		},
		{
			"buffer":0,
			"byteLength":6288,
			"byteOffset":6288,
			"target":34962
		},
		{
			"buffer":0,
			"byteLength":4192,
			"byteOffset":12576,
			"target":34962
		},
		{
			"buffer":0,
			"byteLength":4192,
			"byteOffset":16768,
			"target":34962
		},
		{
			"buffer":0,
			"byteLength":2736,
			"byteOffset":20960,
			"target":34963
		}
	],
	"samplers":[
		{
			"magFilter":9729,
			"minFilter":9987
		}
	],
	"buffers":[
		{
			"byteLength":23696,
			"uri":"teen17.bin"
		}
	]
}
