{
	"asset":{
		"generator":"Khronos glTF Blender I/O v3.6.28",
		"version":"2.0"
	},
	"scene":0,
	"scenes":[
		{
			"name":"Scene",
			"nodes":[
				0
			]
		}
	],
	"nodes":[
		{
			"mesh":0,
			"name":"teen25"
		}
	],
	"materials":[
		{
			"extras":{
				"dirt":1,
				"recolor":"team",
				"recolor_ref":[
					0.039,
					0.651,
					0.996
				]
			},
			"name":"Material 1 (kid.png)",
			"pbrMetallicRoughness":{
				"baseColorTexture":{
					"index":0
				},
				"metallicFactor":0
			}
		}
	],
	"meshes":[
		{
			"name":"teen25",
			"primitives":[
				{
					"attributes":{
						"POSITION":0,
						"NORMAL":1,
						"TEXCOORD_0":2,
						"TEXCOORD_1":3
					},
					"indices":4,
					"material":0
				}
			]
		}
	],
	"textures":[
		{
			"sampler":0,
			"source":0
		}
	],
	"images":[
		{
			"mimeType":"image/png",
			"name":"kid",
			"uri":"kid.png"
		}
	],
	"accessors":[
		{
			"bufferView":0,
			"componentType":5126,
			"count":714,
			"max":[
				15.163589477539062,
				71.62200927734375,
				10.199999809265137
			],
			"min":[
				-18.155101776123047,
				-0.136688232421875,
				-10.211999893188477
			],
			"type":"VEC3"
		},
		{
			"bufferView":1,
			"componentType":5126,
			"count":714,
			"type":"VEC3"
		},
		{
			"bufferView":2,
			"componentType":5126,
			"count":714,
			"type":"VEC2"
		},
		{
			"bufferView":3,
			"componentType":5126,
			"count":714,
			"type":"VEC2"
		},
		{
			"bufferView":4,
			"componentType":5123,
			"count":1476,
			"type":"SCALAR"
		}
	],
	"bufferViews":[
		{
			"buffer":0,
			"byteLength":8568,
			"byteOffset":0,
			"target":34962
		},
		{
			"buffer":0,
			"byteLength":8568,
			"byteOffset":8568,
			"target":34962
		},
		{
			"buffer":0,
			"byteLength":5712,
			"byteOffset":17136,
			"target":34962
		},
		{
			"buffer":0,
			"byteLength":5712,
			"byteOffset":22848,
			"target":34962
		},
		{
			"buffer":0,
			"byteLength":2952,
			"byteOffset":28560,
			"target":34963
		}
	],
	"samplers":[
		{
			"magFilter":9729,
			"minFilter":9987
		}
	],
	"buffers":[
		{
			"byteLength":31512,
			"uri":"teen25.bin"
		}
	]
}
