{
	"asset":{
		"generator":"Khronos glTF Blender I/O v4.1.63",
		"version":"2.0"
	},
	"scene":0,
	"scenes":[
		{
			"extras":{
				"bc":{
					"snap":{
						"hit":false
					}
				}
			},
			"name":"Scene",
			"nodes":[
				0
			]
		}
	],
	"nodes":[
		{
			"extras":{
				"hops":{}
			},
			"mesh":0,
			"name":"teen37"
		}
	],
	"materials":[
		{
			"doubleSided":true,
			"extras":{
				"dirt":0
			},
			"name":"teen37",
			"pbrMetallicRoughness":{
				"baseColorTexture":{
					"index":0
				},
				"metallicFactor":0
			}
		}
	],
	"meshes":[
		{
			"extras":{
				"hops":{}
			},
			"name":"teen37",
			"primitives":[
				{
					"attributes":{
						"POSITION":0,
						"NORMAL":1,
						"TEXCOORD_0":2,
						"TEXCOORD_1":3
					},
					"indices":4,
					"material":0
				}
			]
		}
	],
	"textures":[
		{
			"sampler":0,
			"source":0
		}
	],
	"images":[
		{
			"mimeType":"image/png",
			"name":"objects",
			"uri":"objects.png"
		}
	],
	"accessors":[
		{
			"bufferView":0,
			"componentType":5126,
			"count":28,
			"max":[
				20,
				15,
				7
			],
			"min":[
				-20,
				-3,
				-7
			],
			"type":"VEC3"
		},
		{
			"bufferView":1,
			"componentType":5126,
			"count":28,
			"type":"VEC3"
		},
		{
			"bufferView":2,
			"componentType":5126,
			"count":28,
			"type":"VEC2"
		},
		{
			"bufferView":3,
			"componentType":5126,
			"count":28,
			"type":"VEC2"
		},
		{
			"bufferView":4,
			"componentType":5123,
			"count":36,
			"type":"SCALAR"
		}
	],
	"bufferViews":[
		{
			"buffer":0,
			"byteLength":336,
			"byteOffset":0,
			"target":34962
		},
		{
			"buffer":0,
			"byteLength":336,
			"byteOffset":336,
			"target":34962
		},
		{
			"buffer":0,
			"byteLength":224,
			"byteOffset":672,
			"target":34962
		},
		{
			"buffer":0,
			"byteLength":224,
			"byteOffset":896,
			"target":34962
		},
		{
			"buffer":0,
			"byteLength":72,
			"byteOffset":1120,
			"target":34963
		}
	],
	"samplers":[
		{
			"magFilter":9729,
			"minFilter":9987
		}
	],
	"buffers":[
		{
			"byteLength":1192,
			"uri":"teen37.bin"
		}
	]
}
