{
	"asset":{
		"generator":"Khronos glTF Blender I/O v4.1.63",
		"version":"2.0"
	},
	"scene":0,
	"scenes":[
		{
			"extras":{
				"bc":{
					"snap":{
						"hit":false
					}
				}
			},
			"name":"Scene",
			"nodes":[
				0
			]
		}
	],
	"nodes":[
		{
			"extras":{
				"hops":{}
			},
			"mesh":0,
			"name":"teen35"
		}
	],
	"materials":[
		{
			"extras":{
				"dirt":1
			},
			"name":"teen35",
			"pbrMetallicRoughness":{
				"baseColorTexture":{
					"index":0
				},
				"metallicFactor":0
			}
		}
	],
	"meshes":[
		{
			"extras":{
				"hops":{}
			},
			"name":"teen35",
			"primitives":[
				{
					"attributes":{
						"POSITION":0,
						"NORMAL":1,
						"TEXCOORD_0":2,
						"TEXCOORD_1":3
					},
					"indices":4,
					"material":0
				}
			]
		}
	],
	"textures":[
		{
			"sampler":0,
			"source":0
		}
	],
	"images":[
		{
			"mimeType":"image/png",
			"name":"objects",
			"uri":"objects.png"
		}
	],
	"accessors":[
		{
			"bufferView":0,
			"componentType":5126,
			"count":853,
			"max":[
				50.1501350402832,
				28.690820693969727,
				14.392294883728027
			],
			"min":[
				-49.99714660644531,
				-0.09376700222492218,
				-14.392294883728027
			],
			"type":"VEC3"
		},
		{
			"bufferView":1,
			"componentType":5126,
			"count":853,
			"type":"VEC3"
		},
		{
			"bufferView":2,
			"componentType":5126,
			"count":853,
			"type":"VEC2"
		},
		{
			"bufferView":3,
			"componentType":5126,
			"count":853,
			"type":"VEC2"
		},
		{
			"bufferView":4,
			"componentType":5123,
			"count":1584,
			"type":"SCALAR"
		}
	],
	"bufferViews":[
		{
			"buffer":0,
			"byteLength":10236,
			"byteOffset":0,
			"target":34962
		},
		{
			"buffer":0,
			"byteLength":10236,
			"byteOffset":10236,
			"target":34962
		},
		{
			"buffer":0,
			"byteLength":6824,
			"byteOffset":20472,
			"target":34962
		},
		{
			"buffer":0,
			"byteLength":6824,
			"byteOffset":27296,
			"target":34962
		},
		{
			"buffer":0,
			"byteLength":3168,
			"byteOffset":34120,
			"target":34963
		}
	],
	"samplers":[
		{
			"magFilter":9729,
			"minFilter":9987
		}
	],
	"buffers":[
		{
			"byteLength":37288,
			"uri":"teen35.bin"
		}
	]
}
