{
	"asset":{
		"generator":"Khronos glTF Blender I/O v3.6.28",
		"version":"2.0"
	},
	"scene":0,
	"scenes":[
		{
			"name":"Scene",
			"nodes":[
				0
			]
		}
	],
	"nodes":[
		{
			"mesh":0,
			"name":"teen43"
		}
	],
	"materials":[
		{
			"extras":{
				"dirt":0,
				"transparency":1,
				"recolor":"team",
				"recolor_ref":[
					0.039,
					0.651,
					0.996
				]
			},
			"name":"Material 1 (plant.png)",
			"pbrMetallicRoughness":{
				"baseColorTexture":{
					"index":0
				},
				"metallicFactor":0
			}
		},
		{
			"doubleSided":true,
			"extras":{
				"dirt":0,
				"transparency":1,
				"recolor":"team",
				"recolor_ref":[
					0.039,
					0.651,
					0.996
				]
			},
			"name":"Material 2 (plant.png)",
			"pbrMetallicRoughness":{
				"baseColorTexture":{
					"index":1
				},
				"metallicFactor":0
			}
		}
	],
	"meshes":[
		{
			"name":"teen43",
			"primitives":[
				{
					"attributes":{
						"POSITION":0,
						"NORMAL":1,
						"TEXCOORD_0":2,
						"TEXCOORD_1":3
					},
					"indices":4,
					"material":0
				},
				{
					"attributes":{
						"POSITION":5,
						"NORMAL":6,
						"TEXCOORD_0":7,
						"TEXCOORD_1":8
					},
					"indices":9,
					"material":1
				}
			]
		}
	],
	"textures":[
		{
			"sampler":0,
			"source":0
		},
		{
			"sampler":0,
			"source":0
		}
	],
	"images":[
		{
			"mimeType":"image/png",
			"name":"plant",
			"uri":"plant.png"
		}
	],
	"accessors":[
		{
			"bufferView":0,
			"componentType":5126,
			"count":15,
			"max":[
				2.7941040992736816,
				13.464852333068848,
				2.3783438205718994
			],
			"min":[
				-3.400663137435913,
				-13.44515609741211,
				-3.3429079055786133
			],
			"type":"VEC3"
		},
		{
			"bufferView":1,
			"componentType":5126,
			"count":15,
			"type":"VEC3"
		},
		{
			"bufferView":2,
			"componentType":5126,
			"count":15,
			"type":"VEC2"
		},
		{
			"bufferView":3,
			"componentType":5126,
			"count":15,
			"type":"VEC2"
		},
		{
			"bufferView":4,
			"componentType":5123,
			"count":57,
			"type":"SCALAR"
		},
		{
			"bufferView":5,
			"componentType":5126,
			"count":27,
			"max":[
				29.40013885498047,
				31.829940795898438,
				32.56769943237305
			],
			"min":[
				-21.709110260009766,
				7.596283912658691,
				-28.27609634399414
			],
			"type":"VEC3"
		},
		{
			"bufferView":6,
			"componentType":5126,
			"count":27,
			"type":"VEC3"
		},
		{
			"bufferView":7,
			"componentType":5126,
			"count":27,
			"type":"VEC2"
		},
		{
			"bufferView":8,
			"componentType":5126,
			"count":27,
			"type":"VEC2"
		},
		{
			"bufferView":9,
			"componentType":5123,
			"count":72,
			"type":"SCALAR"
		}
	],
	"bufferViews":[
		{
			"buffer":0,
			"byteLength":180,
			"byteOffset":0,
			"target":34962
		},
		{
			"buffer":0,
			"byteLength":180,
			"byteOffset":180,
			"target":34962
		},
		{
			"buffer":0,
			"byteLength":120,
			"byteOffset":360,
			"target":34962
		},
		{
			"buffer":0,
			"byteLength":120,
			"byteOffset":480,
			"target":34962
		},
		{
			"buffer":0,
			"byteLength":114,
			"byteOffset":600,
			"target":34963
		},
		{
			"buffer":0,
			"byteLength":324,
			"byteOffset":716,
			"target":34962
		},
		{
			"buffer":0,
			"byteLength":324,
			"byteOffset":1040,
			"target":34962
		},
		{
			"buffer":0,
			"byteLength":216,
			"byteOffset":1364,
			"target":34962
		},
		{
			"buffer":0,
			"byteLength":216,
			"byteOffset":1580,
			"target":34962
		},
		{
			"buffer":0,
			"byteLength":144,
			"byteOffset":1796,
			"target":34963
		}
	],
	"samplers":[
		{
			"magFilter":9729,
			"minFilter":9987
		}
	],
	"buffers":[
		{
			"byteLength":1940,
			"uri":"teen43.bin"
		}
	]
}
