{
	"asset":{
		"generator":"Khronos glTF Blender I/O v3.6.28",
		"version":"2.0"
	},
	"scene":0,
	"scenes":[
		{
			"name":"Scene",
			"nodes":[
				0
			]
		}
	],
	"nodes":[
		{
			"mesh":0,
			"name":"teen11"
		}
	],
	"materials":[
		{
			"extras":{
				"dirt":0,
				"recolor":"team",
				"recolor_ref":[
					0.039,
					0.651,
					0.996
				]
			},
			"name":"Material 1 (kid.png)",
			"pbrMetallicRoughness":{
				"baseColorTexture":{
					"index":0
				},
				"metallicFactor":0
			}
		},
		{
			"doubleSided":true,
			"extras":{
				"dirt":0,
				"recolor":"team",
				"recolor_ref":[
					0.039,
					0.651,
					0.996
				]
			},
			"name":"Material 2 (kid.png)",
			"pbrMetallicRoughness":{
				"baseColorTexture":{
					"index":1
				},
				"metallicFactor":0
			}
		},
		{
			"extras":{
				"dirt":0,
				"transparency":3,
				"recolor":"team",
				"recolor_ref":[
					0.039,
					0.651,
					0.996
				]
			},
			"name":"Material 3 (kid.png)",
			"pbrMetallicRoughness":{
				"baseColorTexture":{
					"index":2
				},
				"metallicFactor":0
			}
		},
		{
			"doubleSided":true,
			"extras":{
				"dirt":0,
				"transparency":3,
				"recolor":"team",
				"recolor_ref":[
					0.039,
					0.651,
					0.996
				]
			},
			"name":"Material 4 (kid.png)",
			"pbrMetallicRoughness":{
				"baseColorTexture":{
					"index":3
				},
				"metallicFactor":0
			}
		}
	],
	"meshes":[
		{
			"name":"teen11",
			"primitives":[
				{
					"attributes":{
						"POSITION":0,
						"NORMAL":1,
						"TEXCOORD_0":2,
						"TEXCOORD_1":3
					},
					"indices":4,
					"material":0
				},
				{
					"attributes":{
						"POSITION":5,
						"NORMAL":6,
						"TEXCOORD_0":7,
						"TEXCOORD_1":8
					},
					"indices":9,
					"material":1
				},
				{
					"attributes":{
						"POSITION":10,
						"NORMAL":11,
						"TEXCOORD_0":12,
						"TEXCOORD_1":13
					},
					"indices":14,
					"material":2
				},
				{
					"attributes":{
						"POSITION":15,
						"NORMAL":16,
						"TEXCOORD_0":17,
						"TEXCOORD_1":18
					},
					"indices":19,
					"material":3
				}
			]
		}
	],
	"textures":[
		{
			"sampler":0,
			"source":0
		},
		{
			"sampler":0,
			"source":0
		},
		{
			"sampler":0,
			"source":0
		},
		{
			"sampler":0,
			"source":0
		}
	],
	"images":[
		{
			"mimeType":"image/png",
			"name":"kid",
			"uri":"kid.png"
		}
	],
	"accessors":[
		{
			"bufferView":0,
			"componentType":5126,
			"count":300,
			"max":[
				10,
				39.631351470947266,
				3.795919895172119
			],
			"min":[
				-54.92720031738281,
				-9.999999046325684,
				-3.795919895172119
			],
			"type":"VEC3"
		},
		{
			"bufferView":1,
			"componentType":5126,
			"count":300,
			"type":"VEC3"
		},
		{
			"bufferView":2,
			"componentType":5126,
			"count":300,
			"type":"VEC2"
		},
		{
			"bufferView":3,
			"componentType":5126,
			"count":300,
			"type":"VEC2"
		},
		{
			"bufferView":4,
			"componentType":5123,
			"count":672,
			"type":"SCALAR"
		},
		{
			"bufferView":5,
			"componentType":5126,
			"count":52,
			"max":[
				-46.25245666503906,
				37.582218170166016,
				10.000004768371582
			],
			"min":[
				-65.57096862792969,
				19.728681564331055,
				-9.999995231628418
			],
			"type":"VEC3"
		},
		{
			"bufferView":6,
			"componentType":5126,
			"count":52,
			"type":"VEC3"
		},
		{
			"bufferView":7,
			"componentType":5126,
			"count":52,
			"type":"VEC2"
		},
		{
			"bufferView":8,
			"componentType":5126,
			"count":52,
			"type":"VEC2"
		},
		{
			"bufferView":9,
			"componentType":5123,
			"count":216,
			"type":"SCALAR"
		},
		{
			"bufferView":10,
			"componentType":5126,
			"count":54,
			"max":[
				-52.97575378417969,
				30.333023071289062,
				3
			],
			"min":[
				-58.771305084228516,
				21.38087272644043,
				-2.999998092651367
			],
			"type":"VEC3"
		},
		{
			"bufferView":11,
			"componentType":5126,
			"count":54,
			"type":"VEC3"
		},
		{
			"bufferView":12,
			"componentType":5126,
			"count":54,
			"type":"VEC2"
		},
		{
			"bufferView":13,
			"componentType":5126,
			"count":54,
			"type":"VEC2"
		},
		{
			"bufferView":14,
			"componentType":5123,
			"count":252,
			"type":"SCALAR"
		},
		{
			"bufferView":15,
			"componentType":5126,
			"count":48,
			"max":[
				-32.332794189453125,
				24.87372398376465,
				33.25
			],
			"min":[
				-96.56685638427734,
				-18.06633186340332,
				-33.25
			],
			"type":"VEC3"
		},
		{
			"bufferView":16,
			"componentType":5126,
			"count":48,
			"type":"VEC3"
		},
		{
			"bufferView":17,
			"componentType":5126,
			"count":48,
			"type":"VEC2"
		},
		{
			"bufferView":18,
			"componentType":5126,
			"count":48,
			"type":"VEC2"
		},
		{
			"bufferView":19,
			"componentType":5123,
			"count":144,
			"type":"SCALAR"
		}
	],
	"bufferViews":[
		{
			"buffer":0,
			"byteLength":3600,
			"byteOffset":0,
			"target":34962
		},
		{
			"buffer":0,
			"byteLength":3600,
			"byteOffset":3600,
			"target":34962
		},
		{
			"buffer":0,
			"byteLength":2400,
			"byteOffset":7200,
			"target":34962
		},
		{
			"buffer":0,
			"byteLength":2400,
			"byteOffset":9600,
			"target":34962
		},
		{
			"buffer":0,
			"byteLength":1344,
			"byteOffset":12000,
			"target":34963
		},
		{
			"buffer":0,
			"byteLength":624,
			"byteOffset":13344,
			"target":34962
		},
		{
			"buffer":0,
			"byteLength":624,
			"byteOffset":13968,
			"target":34962
		},
		{
			"buffer":0,
			"byteLength":416,
			"byteOffset":14592,
			"target":34962
		},
		{
			"buffer":0,
			"byteLength":416,
			"byteOffset":15008,
			"target":34962
		},
		{
			"buffer":0,
			"byteLength":432,
			"byteOffset":15424,
			"target":34963
		},
		{
			"buffer":0,
			"byteLength":648,
			"byteOffset":15856,
			"target":34962
		},
		{
			"buffer":0,
			"byteLength":648,
			"byteOffset":16504,
			"target":34962
		},
		{
			"buffer":0,
			"byteLength":432,
			"byteOffset":17152,
			"target":34962
		},
		{
			"buffer":0,
			"byteLength":432,
			"byteOffset":17584,
			"target":34962
		},
		{
			"buffer":0,
			"byteLength":504,
			"byteOffset":18016,
			"target":34963
		},
		{
			"buffer":0,
			"byteLength":576,
			"byteOffset":18520,
			"target":34962
		},
		{
			"buffer":0,
			"byteLength":576,
			"byteOffset":19096,
			"target":34962
		},
		{
			"buffer":0,
			"byteLength":384,
			"byteOffset":19672,
			"target":34962
		},
		{
			"buffer":0,
			"byteLength":384,
			"byteOffset":20056,
			"target":34962
		},
		{
			"buffer":0,
			"byteLength":288,
			"byteOffset":20440,
			"target":34963
		}
	],
	"samplers":[
		{
			"magFilter":9729,
			"minFilter":9987
		}
	],
	"buffers":[
		{
			"byteLength":20728,
			"uri":"teen11.bin"
		}
	]
}
