{
	"asset":{
		"generator":"Khronos glTF Blender I/O v3.6.28",
		"version":"2.0"
	},
	"scene":0,
	"scenes":[
		{
			"name":"Scene",
			"nodes":[
				0
			]
		}
	],
	"nodes":[
		{
			"mesh":0,
			"name":"teen18"
		}
	],
	"materials":[
		{
			"extras":{
				"dirt":0,
				"recolor":"team",
				"recolor_ref":[
					0.039,
					0.651,
					0.996
				]
			},
			"name":"Material 1 (kid2.png)",
			"pbrMetallicRoughness":{
				"baseColorTexture":{
					"index":0
				},
				"metallicFactor":0
			}
		}
	],
	"meshes":[
		{
			"name":"teen18",
			"primitives":[
				{
					"attributes":{
						"POSITION":0,
						"NORMAL":1,
						"TEXCOORD_0":2,
						"TEXCOORD_1":3
					},
					"indices":4,
					"material":0
				}
			]
		}
	],
	"textures":[
		{
			"sampler":0,
			"source":0
		}
	],
	"images":[
		{
			"mimeType":"image/png",
			"name":"kid2",
			"uri":"kid2.png"
		}
	],
	"accessors":[
		{
			"bufferView":0,
			"componentType":5126,
			"count":377,
			"max":[
				31.889923095703125,
				65.0354232788086,
				9.229249000549316
			],
			"min":[
				-31.13778305053711,
				-1.0974817276000977,
				-25.82547378540039
			],
			"type":"VEC3"
		},
		{
			"bufferView":1,
			"componentType":5126,
			"count":377,
			"type":"VEC3"
		},
		{
			"bufferView":2,
			"componentType":5126,
			"count":377,
			"type":"VEC2"
		},
		{
			"bufferView":3,
			"componentType":5126,
			"count":377,
			"type":"VEC2"
		},
		{
			"bufferView":4,
			"componentType":5123,
			"count":918,
			"type":"SCALAR"
		}
	],
	"bufferViews":[
		{
			"buffer":0,
			"byteLength":4524,
			"byteOffset":0,
			"target":34962
		},
		{
			"buffer":0,
			"byteLength":4524,
			"byteOffset":4524,
			"target":34962
		},
		{
			"buffer":0,
			"byteLength":3016,
			"byteOffset":9048,
			"target":34962
		},
		{
			"buffer":0,
			"byteLength":3016,
			"byteOffset":12064,
			"target":34962
		},
		{
			"buffer":0,
			"byteLength":1836,
			"byteOffset":15080,
			"target":34963
		}
	],
	"samplers":[
		{
			"magFilter":9729,
			"minFilter":9987
		}
	],
	"buffers":[
		{
			"byteLength":16916,
			"uri":"teen18.bin"
		}
	]
}
