{
	"asset":{
		"generator":"Khronos glTF Blender I/O v4.1.63",
		"version":"2.0"
	},
	"scene":0,
	"scenes":[
		{
			"extras":{
				"bc":{
					"snap":{
						"hit":false
					}
				}
			},
			"name":"Scene",
			"nodes":[
				0
			]
		}
	],
	"nodes":[
		{
			"extras":{
				"hops":{}
			},
			"mesh":0,
			"name":"teen31"
		}
	],
	"materials":[
		{
			"extras":{
				"dirt":1
			},
			"name":"teen31",
			"pbrMetallicRoughness":{
				"baseColorTexture":{
					"index":0
				},
				"metallicFactor":0
			}
		}
	],
	"meshes":[
		{
			"extras":{
				"hops":{}
			},
			"name":"teen31",
			"primitives":[
				{
					"attributes":{
						"POSITION":0,
						"NORMAL":1,
						"TEXCOORD_0":2,
						"TEXCOORD_1":3
					},
					"indices":4,
					"material":0
				}
			]
		}
	],
	"textures":[
		{
			"sampler":0,
			"source":0
		}
	],
	"images":[
		{
			"mimeType":"image/png",
			"name":"objects",
			"uri":"objects.png"
		}
	],
	"accessors":[
		{
			"bufferView":0,
			"componentType":5126,
			"count":777,
			"max":[
				15,
				11.741750717163086,
				9.535301208496094
			],
			"min":[
				-15,
				-0.06929899752140045,
				-8.949610710144043
			],
			"type":"VEC3"
		},
		{
			"bufferView":1,
			"componentType":5126,
			"count":777,
			"type":"VEC3"
		},
		{
			"bufferView":2,
			"componentType":5126,
			"count":777,
			"type":"VEC2"
		},
		{
			"bufferView":3,
			"componentType":5126,
			"count":777,
			"type":"VEC2"
		},
		{
			"bufferView":4,
			"componentType":5123,
			"count":1218,
			"type":"SCALAR"
		}
	],
	"bufferViews":[
		{
			"buffer":0,
			"byteLength":9324,
			"byteOffset":0,
			"target":34962
		},
		{
			"buffer":0,
			"byteLength":9324,
			"byteOffset":9324,
			"target":34962
		},
		{
			"buffer":0,
			"byteLength":6216,
			"byteOffset":18648,
			"target":34962
		},
		{
			"buffer":0,
			"byteLength":6216,
			"byteOffset":24864,
			"target":34962
		},
		{
			"buffer":0,
			"byteLength":2436,
			"byteOffset":31080,
			"target":34963
		}
	],
	"samplers":[
		{
			"magFilter":9729,
			"minFilter":9987
		}
	],
	"buffers":[
		{
			"byteLength":33516,
			"uri":"teen31.bin"
		}
	]
}
