{
	"asset":{
		"generator":"Khronos glTF Blender I/O v3.6.28",
		"version":"2.0"
	},
	"scene":0,
	"scenes":[
		{
			"name":"Scene",
			"nodes":[
				0
			]
		}
	],
	"nodes":[
		{
			"mesh":0,
			"name":"teen31"
		}
	],
	"materials":[
		{
			"extras":{
				"dirt":1,
				"recolor":"team",
				"recolor_ref":[
					0.039,
					0.651,
					0.996
				]
			},
			"name":"Material 1 (kid3.png)",
			"pbrMetallicRoughness":{
				"baseColorTexture":{
					"index":0
				},
				"metallicFactor":0
			}
		}
	],
	"meshes":[
		{
			"name":"teen31",
			"primitives":[
				{
					"attributes":{
						"POSITION":0,
						"NORMAL":1,
						"TEXCOORD_0":2,
						"TEXCOORD_1":3
					},
					"indices":4,
					"material":0
				}
			]
		}
	],
	"textures":[
		{
			"sampler":0,
			"source":0
		}
	],
	"images":[
		{
			"mimeType":"image/png",
			"name":"kid3",
			"uri":"kid3.png"
		}
	],
	"accessors":[
		{
			"bufferView":0,
			"componentType":5126,
			"count":776,
			"max":[
				15,
				11.741750717163086,
				9.535301208496094
			],
			"min":[
				-15,
				-0.06929899752140045,
				-8.949610710144043
			],
			"type":"VEC3"
		},
		{
			"bufferView":1,
			"componentType":5126,
			"count":776,
			"type":"VEC3"
		},
		{
			"bufferView":2,
			"componentType":5126,
			"count":776,
			"type":"VEC2"
		},
		{
			"bufferView":3,
			"componentType":5126,
			"count":776,
			"type":"VEC2"
		},
		{
			"bufferView":4,
			"componentType":5123,
			"count":1218,
			"type":"SCALAR"
		}
	],
	"bufferViews":[
		{
			"buffer":0,
			"byteLength":9312,
			"byteOffset":0,
			"target":34962
		},
		{
			"buffer":0,
			"byteLength":9312,
			"byteOffset":9312,
			"target":34962
		},
		{
			"buffer":0,
			"byteLength":6208,
			"byteOffset":18624,
			"target":34962
		},
		{
			"buffer":0,
			"byteLength":6208,
			"byteOffset":24832,
			"target":34962
		},
		{
			"buffer":0,
			"byteLength":2436,
			"byteOffset":31040,
			"target":34963
		}
	],
	"samplers":[
		{
			"magFilter":9729,
			"minFilter":9987
		}
	],
	"buffers":[
		{
			"byteLength":33476,
			"uri":"teen31.bin"
		}
	]
}
