{
	"asset":{
		"generator":"Khronos glTF Blender I/O v3.6.28",
		"version":"2.0"
	},
	"scene":0,
	"scenes":[
		{
			"name":"Scene",
			"nodes":[
				0
			]
		}
	],
	"nodes":[
		{
			"mesh":0,
			"name":"teen9"
		}
	],
	"materials":[
		{
			"extras":{
				"dirt":0,
				"recolor":"team",
				"recolor_ref":[
					0.039,
					0.651,
					0.996
				]
			},
			"name":"Material 1 (kid.png)",
			"pbrMetallicRoughness":{
				"baseColorTexture":{
					"index":0
				},
				"metallicFactor":0
			}
		}
	],
	"meshes":[
		{
			"name":"teen9",
			"primitives":[
				{
					"attributes":{
						"POSITION":0,
						"NORMAL":1,
						"TEXCOORD_0":2,
						"TEXCOORD_1":3
					},
					"indices":4,
					"material":0
				}
			]
		}
	],
	"textures":[
		{
			"sampler":0,
			"source":0
		}
	],
	"images":[
		{
			"mimeType":"image/png",
			"name":"kid",
			"uri":"kid.png"
		}
	],
	"accessors":[
		{
			"bufferView":0,
			"componentType":5126,
			"count":368,
			"max":[
				13.731012344360352,
				20.000343322753906,
				14.438118934631348
			],
			"min":[
				-12.39221477508545,
				0,
				-13.92048168182373
			],
			"type":"VEC3"
		},
		{
			"bufferView":1,
			"componentType":5126,
			"count":368,
			"type":"VEC3"
		},
		{
			"bufferView":2,
			"componentType":5126,
			"count":368,
			"type":"VEC2"
		},
		{
			"bufferView":3,
			"componentType":5126,
			"count":368,
			"type":"VEC2"
		},
		{
			"bufferView":4,
			"componentType":5123,
			"count":738,
			"type":"SCALAR"
		}
	],
	"bufferViews":[
		{
			"buffer":0,
			"byteLength":4416,
			"byteOffset":0,
			"target":34962
		},
		{
			"buffer":0,
			"byteLength":4416,
			"byteOffset":4416,
			"target":34962
		},
		{
			"buffer":0,
			"byteLength":2944,
			"byteOffset":8832,
			"target":34962
		},
		{
			"buffer":0,
			"byteLength":2944,
			"byteOffset":11776,
			"target":34962
		},
		{
			"buffer":0,
			"byteLength":1476,
			"byteOffset":14720,
			"target":34963
		}
	],
	"samplers":[
		{
			"magFilter":9729,
			"minFilter":9987
		}
	],
	"buffers":[
		{
			"byteLength":16196,
			"uri":"teen9.bin"
		}
	]
}
