{
	"asset":{
		"generator":"Khronos glTF Blender I/O v4.1.63",
		"version":"2.0"
	},
	"scene":0,
	"scenes":[
		{
			"extras":{
				"bc":{
					"snap":{
						"hit":false
					}
				}
			},
			"name":"Scene",
			"nodes":[
				0
			]
		}
	],
	"nodes":[
		{
			"extras":{
				"hops":{}
			},
			"mesh":0,
			"name":"toto5"
		}
	],
	"materials":[
		{
			"extras":{
				"dirt":1
			},
			"name":"toto5",
			"pbrMetallicRoughness":{
				"baseColorTexture":{
					"index":0
				},
				"metallicFactor":0
			}
		}
	],
	"meshes":[
		{
			"extras":{
				"hops":{}
			},
			"name":"toto5",
			"primitives":[
				{
					"attributes":{
						"POSITION":0,
						"NORMAL":1,
						"TEXCOORD_0":2,
						"TEXCOORD_1":3
					},
					"indices":4,
					"material":0
				}
			]
		}
	],
	"textures":[
		{
			"sampler":0,
			"source":0
		}
	],
	"images":[
		{
			"mimeType":"image/png",
			"name":"objects",
			"uri":"objects.png"
		}
	],
	"accessors":[
		{
			"bufferView":0,
			"componentType":5126,
			"count":10,
			"max":[
				0.36893999576568604,
				1.0243589878082275,
				0.3082770109176636
			],
			"min":[
				-0.1890600025653839,
				-0.11326500028371811,
				-0.3360460102558136
			],
			"type":"VEC3"
		},
		{
			"bufferView":1,
			"componentType":5126,
			"count":10,
			"type":"VEC3"
		},
		{
			"bufferView":2,
			"componentType":5126,
			"count":10,
			"type":"VEC2"
		},
		{
			"bufferView":3,
			"componentType":5126,
			"count":10,
			"type":"VEC2"
		},
		{
			"bufferView":4,
			"componentType":5123,
			"count":45,
			"type":"SCALAR"
		}
	],
	"bufferViews":[
		{
			"buffer":0,
			"byteLength":120,
			"byteOffset":0,
			"target":34962
		},
		{
			"buffer":0,
			"byteLength":120,
			"byteOffset":120,
			"target":34962
		},
		{
			"buffer":0,
			"byteLength":80,
			"byteOffset":240,
			"target":34962
		},
		{
			"buffer":0,
			"byteLength":80,
			"byteOffset":320,
			"target":34962
		},
		{
			"buffer":0,
			"byteLength":90,
			"byteOffset":400,
			"target":34963
		}
	],
	"samplers":[
		{
			"magFilter":9729,
			"minFilter":9987
		}
	],
	"buffers":[
		{
			"byteLength":492,
			"uri":"toto5.bin"
		}
	]
}
