{
	"asset":{
		"generator":"Khronos glTF Blender I/O v4.2.57",
		"version":"2.0"
	},
	"extensionsUsed":[
		"KHR_materials_clearcoat"
	],
	"scene":0,
	"scenes":[
		{
			"extras":{
				"bc":{
					"snap":{
						"hit":false
					}
				}
			},
			"name":"Scene",
			"nodes":[
				0
			]
		}
	],
	"nodes":[
		{
			"extras":{
				"hops":{}
			},
			"mesh":0,
			"name":"tower"
		}
	],
	"materials":[
		{
			"extensions":{
				"KHR_materials_clearcoat":{
					"clearcoatRoughnessFactor":0
				}
			},
			"extras":{
				"dirt":1,
				"recolor":"team",
				"recolor_ref":[
					0.039,
					0.651,
					0.996
				]
			},
			"name":"tower 2",
			"pbrMetallicRoughness":{
				"baseColorTexture":{
					"index":0
				},
				"metallicFactor":0
			}
		}
	],
	"meshes":[
		{
			"extras":{
				"hops":{}
			},
			"name":"tower.001",
			"primitives":[
				{
					"attributes":{
						"POSITION":0,
						"NORMAL":1,
						"TEXCOORD_0":2,
						"TEXCOORD_1":3
					},
					"indices":4,
					"material":0
				}
			]
		}
	],
	"textures":[
		{
			"sampler":0,
			"source":0
		}
	],
	"images":[
		{
			"mimeType":"image/png",
			"name":"objects",
			"uri":"objects.png"
		}
	],
	"accessors":[
		{
			"bufferView":0,
			"componentType":5126,
			"count":148,
			"max":[
				6.990612030029297,
				19.967294692993164,
				7
			],
			"min":[
				-7.009387969970703,
				-1,
				-7
			],
			"type":"VEC3"
		},
		{
			"bufferView":1,
			"componentType":5126,
			"count":148,
			"type":"VEC3"
		},
		{
			"bufferView":2,
			"componentType":5126,
			"count":148,
			"type":"VEC2"
		},
		{
			"bufferView":3,
			"componentType":5126,
			"count":148,
			"type":"VEC2"
		},
		{
			"bufferView":4,
			"componentType":5123,
			"count":204,
			"type":"SCALAR"
		}
	],
	"bufferViews":[
		{
			"buffer":0,
			"byteLength":1776,
			"byteOffset":0,
			"target":34962
		},
		{
			"buffer":0,
			"byteLength":1776,
			"byteOffset":1776,
			"target":34962
		},
		{
			"buffer":0,
			"byteLength":1184,
			"byteOffset":3552,
			"target":34962
		},
		{
			"buffer":0,
			"byteLength":1184,
			"byteOffset":4736,
			"target":34962
		},
		{
			"buffer":0,
			"byteLength":408,
			"byteOffset":5920,
			"target":34963
		}
	],
	"samplers":[
		{
			"magFilter":9729,
			"minFilter":9987
		}
	],
	"buffers":[
		{
			"byteLength":6328,
			"uri":"tower.bin"
		}
	]
}
