{
	"asset":{
		"generator":"Khronos glTF Blender I/O v4.2.60",
		"version":"2.0"
	},
	"extensionsUsed":[
		"KHR_materials_clearcoat"
	],
	"scene":0,
	"scenes":[
		{
			"extras":{
				"bc":{
					"snap":{
						"hit":false
					}
				}
			},
			"name":"Scene",
			"nodes":[
				0
			]
		}
	],
	"nodes":[
		{
			"extras":{
				"hops":{}
			},
			"mesh":0,
			"name":"trainer"
		}
	],
	"materials":[
		{
			"extensions":{
				"KHR_materials_clearcoat":{
					"clearcoatRoughnessFactor":0
				}
			},
			"extras":{
				"dirt":1,
				"recolor":"team",
				"recolor_ref":[
					0.039,
					0.651,
					0.996
				]
			},
			"name":"trainer",
			"pbrMetallicRoughness":{
				"baseColorTexture":{
					"index":0
				},
				"metallicFactor":0
			}
		}
	],
	"meshes":[
		{
			"extras":{
				"hops":{}
			},
			"name":"trainer",
			"primitives":[
				{
					"attributes":{
						"POSITION":0,
						"NORMAL":1,
						"TEXCOORD_0":2,
						"TEXCOORD_1":3
					},
					"indices":4,
					"material":0
				}
			]
		}
	],
	"textures":[
		{
			"sampler":0,
			"source":0
		}
	],
	"images":[
		{
			"mimeType":"image/png",
			"name":"objects",
			"uri":"objects.png"
		}
	],
	"accessors":[
		{
			"bufferView":0,
			"componentType":5126,
			"count":70,
			"max":[
				4,
				5,
				3
			],
			"min":[
				-4,
				2,
				-3
			],
			"type":"VEC3"
		},
		{
			"bufferView":1,
			"componentType":5126,
			"count":70,
			"type":"VEC3"
		},
		{
			"bufferView":2,
			"componentType":5126,
			"count":70,
			"type":"VEC2"
		},
		{
			"bufferView":3,
			"componentType":5126,
			"count":70,
			"type":"VEC2"
		},
		{
			"bufferView":4,
			"componentType":5123,
			"count":108,
			"type":"SCALAR"
		}
	],
	"bufferViews":[
		{
			"buffer":0,
			"byteLength":840,
			"byteOffset":0,
			"target":34962
		},
		{
			"buffer":0,
			"byteLength":840,
			"byteOffset":840,
			"target":34962
		},
		{
			"buffer":0,
			"byteLength":560,
			"byteOffset":1680,
			"target":34962
		},
		{
			"buffer":0,
			"byteLength":560,
			"byteOffset":2240,
			"target":34962
		},
		{
			"buffer":0,
			"byteLength":216,
			"byteOffset":2800,
			"target":34963
		}
	],
	"samplers":[
		{
			"magFilter":9729,
			"minFilter":9987
		}
	],
	"buffers":[
		{
			"byteLength":3016,
			"uri":"trainer.bin"
		}
	]
}
