{
	"asset":{
		"generator":"Khronos glTF Blender I/O v3.6.28",
		"version":"2.0"
	},
	"scene":0,
	"scenes":[
		{
			"name":"Scene",
			"nodes":[
				0
			]
		}
	],
	"nodes":[
		{
			"mesh":0,
			"name":"trainers"
		}
	],
	"materials":[
		{
			"extras":{
				"dirt":1,
				"recolor":"team",
				"recolor_ref":[
					0.039,
					0.651,
					0.996
				]
			},
			"name":"Material 1 (lemt.png)",
			"pbrMetallicRoughness":{
				"baseColorFactor":[
					0.30000001192092896,
					0.30000001192092896,
					0.30000001192092896,
					1
				],
				"baseColorTexture":{
					"index":0
				},
				"metallicFactor":0
			}
		},
		{
			"extras":{
				"dirt":1,
				"recolor":"team",
				"recolor_ref":[
					0.039,
					0.651,
					0.996
				]
			},
			"name":"Material 2 (rollert.png)",
			"pbrMetallicRoughness":{
				"baseColorTexture":{
					"index":1
				},
				"metallicFactor":0
			}
		},
		{
			"extras":{
				"dirt":1,
				"recolor":"team",
				"recolor_ref":[
					0.039,
					0.651,
					0.996
				]
			},
			"name":"Material 3 (lemt.png)",
			"pbrMetallicRoughness":{
				"baseColorTexture":{
					"index":2
				},
				"metallicFactor":0
			}
		}
	],
	"meshes":[
		{
			"name":"trainers",
			"primitives":[
				{
					"attributes":{
						"POSITION":0,
						"NORMAL":1,
						"TEXCOORD_0":2,
						"TEXCOORD_1":3
					},
					"indices":4,
					"material":0
				},
				{
					"attributes":{
						"POSITION":5,
						"NORMAL":6,
						"TEXCOORD_0":7,
						"TEXCOORD_1":8
					},
					"indices":9,
					"material":1
				},
				{
					"attributes":{
						"POSITION":10,
						"NORMAL":11,
						"TEXCOORD_0":12,
						"TEXCOORD_1":13
					},
					"indices":14,
					"material":2
				}
			]
		}
	],
	"textures":[
		{
			"sampler":0,
			"source":0
		},
		{
			"sampler":0,
			"source":1
		},
		{
			"sampler":0,
			"source":0
		}
	],
	"images":[
		{
			"mimeType":"image/png",
			"name":"lemt",
			"uri":"lemt.png"
		},
		{
			"mimeType":"image/png",
			"name":"rollert",
			"uri":"rollert.png"
		}
	],
	"accessors":[
		{
			"bufferView":0,
			"componentType":5126,
			"count":58,
			"max":[
				3.3507299423217773,
				2.5048201084136963,
				2.2944300174713135
			],
			"min":[
				-3.369529962539673,
				0.4940190017223358,
				-2.2880799770355225
			],
			"type":"VEC3"
		},
		{
			"bufferView":1,
			"componentType":5126,
			"count":58,
			"type":"VEC3"
		},
		{
			"bufferView":2,
			"componentType":5126,
			"count":58,
			"type":"VEC2"
		},
		{
			"bufferView":3,
			"componentType":5126,
			"count":58,
			"type":"VEC2"
		},
		{
			"bufferView":4,
			"componentType":5123,
			"count":66,
			"type":"SCALAR"
		},
		{
			"bufferView":5,
			"componentType":5126,
			"count":196,
			"max":[
				3.9928998947143555,
				7.524750232696533,
				3
			],
			"min":[
				-4.007090091705322,
				1.524749994277954,
				-3
			],
			"type":"VEC3"
		},
		{
			"bufferView":6,
			"componentType":5126,
			"count":196,
			"type":"VEC3"
		},
		{
			"bufferView":7,
			"componentType":5126,
			"count":196,
			"type":"VEC2"
		},
		{
			"bufferView":8,
			"componentType":5126,
			"count":196,
			"type":"VEC2"
		},
		{
			"bufferView":9,
			"componentType":5123,
			"count":384,
			"type":"SCALAR"
		},
		{
			"bufferView":10,
			"componentType":5126,
			"count":48,
			"max":[
				2.124088764190674,
				9.5,
				1.5090700387954712
			],
			"min":[
				-5.991119861602783,
				1.501289963722229,
				-1.539520025253296
			],
			"type":"VEC3"
		},
		{
			"bufferView":11,
			"componentType":5126,
			"count":48,
			"type":"VEC3"
		},
		{
			"bufferView":12,
			"componentType":5126,
			"count":48,
			"type":"VEC2"
		},
		{
			"bufferView":13,
			"componentType":5126,
			"count":48,
			"type":"VEC2"
		},
		{
			"bufferView":14,
			"componentType":5123,
			"count":66,
			"type":"SCALAR"
		}
	],
	"bufferViews":[
		{
			"buffer":0,
			"byteLength":696,
			"byteOffset":0,
			"target":34962
		},
		{
			"buffer":0,
			"byteLength":696,
			"byteOffset":696,
			"target":34962
		},
		{
			"buffer":0,
			"byteLength":464,
			"byteOffset":1392,
			"target":34962
		},
		{
			"buffer":0,
			"byteLength":464,
			"byteOffset":1856,
			"target":34962
		},
		{
			"buffer":0,
			"byteLength":132,
			"byteOffset":2320,
			"target":34963
		},
		{
			"buffer":0,
			"byteLength":2352,
			"byteOffset":2452,
			"target":34962
		},
		{
			"buffer":0,
			"byteLength":2352,
			"byteOffset":4804,
			"target":34962
		},
		{
			"buffer":0,
			"byteLength":1568,
			"byteOffset":7156,
			"target":34962
		},
		{
			"buffer":0,
			"byteLength":1568,
			"byteOffset":8724,
			"target":34962
		},
		{
			"buffer":0,
			"byteLength":768,
			"byteOffset":10292,
			"target":34963
		},
		{
			"buffer":0,
			"byteLength":576,
			"byteOffset":11060,
			"target":34962
		},
		{
			"buffer":0,
			"byteLength":576,
			"byteOffset":11636,
			"target":34962
		},
		{
			"buffer":0,
			"byteLength":384,
			"byteOffset":12212,
			"target":34962
		},
		{
			"buffer":0,
			"byteLength":384,
			"byteOffset":12596,
			"target":34962
		},
		{
			"buffer":0,
			"byteLength":132,
			"byteOffset":12980,
			"target":34963
		}
	],
	"samplers":[
		{
			"magFilter":9729,
			"minFilter":9987
		}
	],
	"buffers":[
		{
			"byteLength":13112,
			"uri":"trainers.bin"
		}
	]
}
