{
	"asset":{
		"generator":"Khronos glTF Blender I/O v4.1.63",
		"version":"2.0"
	},
	"scene":0,
	"scenes":[
		{
			"extras":{
				"bc":{
					"snap":{
						"hit":false
					}
				}
			},
			"name":"Scene",
			"nodes":[
				0
			]
		}
	],
	"nodes":[
		{
			"extras":{
				"hops":{}
			},
			"mesh":0,
			"name":"trainers"
		}
	],
	"materials":[
		{
			"extras":{
				"dirt":1
			},
			"name":"trainers",
			"pbrMetallicRoughness":{
				"baseColorFactor":[
					0.30000001192092896,
					0.30000001192092896,
					0.30000001192092896,
					1
				],
				"baseColorTexture":{
					"index":0
				},
				"metallicFactor":0
			}
		},
		{
			"extras":{
				"dirt":1,
				"recolor":"team",
				"recolor_ref":[
					0.039,
					0.651,
					0.996
				]
			},
			"name":"trainers 2",
			"pbrMetallicRoughness":{
				"baseColorTexture":{
					"index":1
				},
				"metallicFactor":0
			}
		}
	],
	"meshes":[
		{
			"extras":{
				"hops":{}
			},
			"name":"trainers",
			"primitives":[
				{
					"attributes":{
						"POSITION":0,
						"NORMAL":1,
						"TEXCOORD_0":2,
						"TEXCOORD_1":3
					},
					"indices":4,
					"material":0
				},
				{
					"attributes":{
						"POSITION":5,
						"NORMAL":6,
						"TEXCOORD_0":7,
						"TEXCOORD_1":8
					},
					"indices":9,
					"material":1
				}
			]
		}
	],
	"textures":[
		{
			"sampler":0,
			"source":0
		},
		{
			"sampler":0,
			"source":0
		}
	],
	"images":[
		{
			"mimeType":"image/png",
			"name":"objects",
			"uri":"objects.png"
		}
	],
	"accessors":[
		{
			"bufferView":0,
			"componentType":5126,
			"count":58,
			"max":[
				3.3507299423217773,
				2.5048201084136963,
				2.2944300174713135
			],
			"min":[
				-3.369529962539673,
				0.4940190017223358,
				-2.2880799770355225
			],
			"type":"VEC3"
		},
		{
			"bufferView":1,
			"componentType":5126,
			"count":58,
			"type":"VEC3"
		},
		{
			"bufferView":2,
			"componentType":5126,
			"count":58,
			"type":"VEC2"
		},
		{
			"bufferView":3,
			"componentType":5126,
			"count":58,
			"type":"VEC2"
		},
		{
			"bufferView":4,
			"componentType":5123,
			"count":66,
			"type":"SCALAR"
		},
		{
			"bufferView":5,
			"componentType":5126,
			"count":244,
			"max":[
				3.9928998947143555,
				9.5,
				3
			],
			"min":[
				-5.991119861602783,
				1.501289963722229,
				-3
			],
			"type":"VEC3"
		},
		{
			"bufferView":6,
			"componentType":5126,
			"count":244,
			"type":"VEC3"
		},
		{
			"bufferView":7,
			"componentType":5126,
			"count":244,
			"type":"VEC2"
		},
		{
			"bufferView":8,
			"componentType":5126,
			"count":244,
			"type":"VEC2"
		},
		{
			"bufferView":9,
			"componentType":5123,
			"count":450,
			"type":"SCALAR"
		}
	],
	"bufferViews":[
		{
			"buffer":0,
			"byteLength":696,
			"byteOffset":0,
			"target":34962
		},
		{
			"buffer":0,
			"byteLength":696,
			"byteOffset":696,
			"target":34962
		},
		{
			"buffer":0,
			"byteLength":464,
			"byteOffset":1392,
			"target":34962
		},
		{
			"buffer":0,
			"byteLength":464,
			"byteOffset":1856,
			"target":34962
		},
		{
			"buffer":0,
			"byteLength":132,
			"byteOffset":2320,
			"target":34963
		},
		{
			"buffer":0,
			"byteLength":2928,
			"byteOffset":2452,
			"target":34962
		},
		{
			"buffer":0,
			"byteLength":2928,
			"byteOffset":5380,
			"target":34962
		},
		{
			"buffer":0,
			"byteLength":1952,
			"byteOffset":8308,
			"target":34962
		},
		{
			"buffer":0,
			"byteLength":1952,
			"byteOffset":10260,
			"target":34962
		},
		{
			"buffer":0,
			"byteLength":900,
			"byteOffset":12212,
			"target":34963
		}
	],
	"samplers":[
		{
			"magFilter":9729,
			"minFilter":9987
		}
	],
	"buffers":[
		{
			"byteLength":13112,
			"uri":"trainers.bin"
		}
	]
}
