{
	"asset":{
		"generator":"Khronos glTF Blender I/O v3.6.28",
		"version":"2.0"
	},
	"scene":0,
	"scenes":[
		{
			"name":"Scene",
			"nodes":[
				0
			]
		}
	],
	"nodes":[
		{
			"mesh":0,
			"name":"tree5"
		}
	],
	"materials":[
		{
			"extras":{
				"dirt":0,
				"recolor":"team",
				"recolor_ref":[
					0.039,
					0.651,
					0.996
				]
			},
			"name":"Material 1 (vegetal.png)",
			"pbrMetallicRoughness":{
				"baseColorTexture":{
					"index":0
				},
				"metallicFactor":0
			}
		}
	],
	"meshes":[
		{
			"name":"tree5",
			"primitives":[
				{
					"attributes":{
						"POSITION":0,
						"NORMAL":1,
						"TEXCOORD_0":2,
						"TEXCOORD_1":3
					},
					"indices":4,
					"material":0
				}
			]
		}
	],
	"textures":[
		{
			"sampler":0,
			"source":0
		}
	],
	"images":[
		{
			"mimeType":"image/png",
			"name":"vegetal",
			"uri":"vegetal.png"
		}
	],
	"accessors":[
		{
			"bufferView":0,
			"componentType":5126,
			"count":701,
			"max":[
				77.3566665649414,
				228.28375244140625,
				65.02796936035156
			],
			"min":[
				-88.51068878173828,
				-9.324962615966797,
				-79.70378875732422
			],
			"type":"VEC3"
		},
		{
			"bufferView":1,
			"componentType":5126,
			"count":701,
			"type":"VEC3"
		},
		{
			"bufferView":2,
			"componentType":5126,
			"count":701,
			"type":"VEC2"
		},
		{
			"bufferView":3,
			"componentType":5126,
			"count":701,
			"type":"VEC2"
		},
		{
			"bufferView":4,
			"componentType":5123,
			"count":711,
			"type":"SCALAR"
		}
	],
	"bufferViews":[
		{
			"buffer":0,
			"byteLength":8412,
			"byteOffset":0,
			"target":34962
		},
		{
			"buffer":0,
			"byteLength":8412,
			"byteOffset":8412,
			"target":34962
		},
		{
			"buffer":0,
			"byteLength":5608,
			"byteOffset":16824,
			"target":34962
		},
		{
			"buffer":0,
			"byteLength":5608,
			"byteOffset":22432,
			"target":34962
		},
		{
			"buffer":0,
			"byteLength":1422,
			"byteOffset":28040,
			"target":34963
		}
	],
	"samplers":[
		{
			"magFilter":9729,
			"minFilter":9987
		}
	],
	"buffers":[
		{
			"byteLength":29464,
			"uri":"tree5.bin"
		}
	]
}
