{
	"asset":{
		"generator":"Khronos glTF Blender I/O v4.1.63",
		"version":"2.0"
	},
	"scene":0,
	"scenes":[
		{
			"extras":{
				"bc":{
					"snap":{
						"hit":false
					}
				}
			},
			"name":"Scene",
			"nodes":[
				0
			]
		}
	],
	"nodes":[
		{
			"extras":{
				"hops":{}
			},
			"mesh":0,
			"name":"winfire"
		}
	],
	"materials":[
		{
			"extras":{
				"dirt":1,
				"recolor":"team",
				"recolor_ref":[
					0.039,
					0.651,
					0.996
				]
			},
			"name":"Material 1 (recolor)",
			"pbrMetallicRoughness":{
				"baseColorTexture":{
					"index":0
				},
				"metallicFactor":0
			}
		}
	],
	"meshes":[
		{
			"extras":{
				"hops":{}
			},
			"name":"winfire",
			"primitives":[
				{
					"attributes":{
						"POSITION":0,
						"NORMAL":1,
						"TEXCOORD_0":2,
						"TEXCOORD_1":3
					},
					"indices":4,
					"material":0
				}
			]
		}
	],
	"textures":[
		{
			"sampler":0,
			"source":0
		}
	],
	"images":[
		{
			"mimeType":"image/png",
			"name":"objects",
			"uri":"objects.png"
		}
	],
	"accessors":[
		{
			"bufferView":0,
			"componentType":5126,
			"count":359,
			"max":[
				1.1758699417114258,
				2.4110779762268066,
				1.689702033996582
			],
			"min":[
				-1.754148006439209,
				-0.027566999197006226,
				-1.6935919523239136
			],
			"type":"VEC3"
		},
		{
			"bufferView":1,
			"componentType":5126,
			"count":359,
			"type":"VEC3"
		},
		{
			"bufferView":2,
			"componentType":5126,
			"count":359,
			"type":"VEC2"
		},
		{
			"bufferView":3,
			"componentType":5126,
			"count":359,
			"type":"VEC2"
		},
		{
			"bufferView":4,
			"componentType":5123,
			"count":612,
			"type":"SCALAR"
		}
	],
	"bufferViews":[
		{
			"buffer":0,
			"byteLength":4308,
			"byteOffset":0,
			"target":34962
		},
		{
			"buffer":0,
			"byteLength":4308,
			"byteOffset":4308,
			"target":34962
		},
		{
			"buffer":0,
			"byteLength":2872,
			"byteOffset":8616,
			"target":34962
		},
		{
			"buffer":0,
			"byteLength":2872,
			"byteOffset":11488,
			"target":34962
		},
		{
			"buffer":0,
			"byteLength":1224,
			"byteOffset":14360,
			"target":34963
		}
	],
	"samplers":[
		{
			"magFilter":9729,
			"minFilter":9987
		}
	],
	"buffers":[
		{
			"byteLength":15584,
			"uri":"winfire.bin"
		}
	]
}
