{
	"asset":{
		"generator":"Khronos glTF Blender I/O v4.1.63",
		"version":"2.0"
	},
	"scene":0,
	"scenes":[
		{
			"extras":{
				"bc":{
					"snap":{
						"hit":false
					}
				}
			},
			"name":"Scene",
			"nodes":[
				0
			]
		}
	],
	"nodes":[
		{
			"extras":{
				"hops":{}
			},
			"mesh":0,
			"name":"worm3"
		}
	],
	"materials":[
		{
			"extras":{
				"dirt":0
			},
			"name":"Material 1.003",
			"pbrMetallicRoughness":{
				"baseColorTexture":{
					"index":0
				},
				"metallicFactor":0
			}
		}
	],
	"meshes":[
		{
			"name":"worm3",
			"primitives":[
				{
					"attributes":{
						"POSITION":0,
						"NORMAL":1,
						"TEXCOORD_0":2,
						"TEXCOORD_1":3
					},
					"indices":4,
					"material":0
				}
			]
		}
	],
	"textures":[
		{
			"sampler":0,
			"source":0
		}
	],
	"images":[
		{
			"mimeType":"image/png",
			"name":"objects",
			"uri":"objects.png"
		}
	],
	"accessors":[
		{
			"bufferView":0,
			"componentType":5126,
			"count":54,
			"max":[
				0.7576429843902588,
				1.790979027748108,
				0.9519559741020203
			],
			"min":[
				-2.20501708984375,
				-0.08964300155639648,
				-0.9372569918632507
			],
			"type":"VEC3"
		},
		{
			"bufferView":1,
			"componentType":5126,
			"count":54,
			"type":"VEC3"
		},
		{
			"bufferView":2,
			"componentType":5126,
			"count":54,
			"type":"VEC2"
		},
		{
			"bufferView":3,
			"componentType":5126,
			"count":54,
			"type":"VEC2"
		},
		{
			"bufferView":4,
			"componentType":5123,
			"count":288,
			"type":"SCALAR"
		}
	],
	"bufferViews":[
		{
			"buffer":0,
			"byteLength":648,
			"byteOffset":0,
			"target":34962
		},
		{
			"buffer":0,
			"byteLength":648,
			"byteOffset":648,
			"target":34962
		},
		{
			"buffer":0,
			"byteLength":432,
			"byteOffset":1296,
			"target":34962
		},
		{
			"buffer":0,
			"byteLength":432,
			"byteOffset":1728,
			"target":34962
		},
		{
			"buffer":0,
			"byteLength":576,
			"byteOffset":2160,
			"target":34963
		}
	],
	"samplers":[
		{
			"magFilter":9729,
			"minFilter":9987
		}
	],
	"buffers":[
		{
			"byteLength":2736,
			"uri":"worm3.bin"
		}
	]
}
